<svg width="19" height="10" viewBox="0 0 19 10" fill="none" xmlns="http://www.w3.org/2000/svg">
<path d="M1.52161 1.61292C1.84766 4.76478 3.6953 7.4819 5.10821 8.46006H10.8685C14.0204 5.96031 14.3464 1.61292 14.3464 1.61292H1.52161Z" fill="#3F3A31"/>
<path d="M16.9548 1.06949C16.8462 1.06949 16.7375 1.06949 16.6288 0.960806C16.5201 0.960806 16.5201 0.960806 16.4114 0.960806C16.4114 1.28686 16.4114 1.7216 16.3027 2.04766C16.4114 2.04766 16.5201 2.04766 16.6288 2.15634C17.8243 2.48239 18.1504 3.35187 17.4983 4.33004C16.8462 5.19952 15.868 5.63426 14.8898 5.85163C14.7811 5.85163 14.7811 5.85163 14.7811 5.74294C15.2159 4.87346 15.5419 3.8953 15.7593 2.80845C15.868 2.26502 15.9767 1.7216 15.9767 1.17818C15.9767 1.06949 15.9767 0.852121 15.9767 0.743437C15.9767 0.417382 15.6506 0.200012 15.2159 0.200012H9.12953H8.69479H0.760794C0.21737 0.308697 0 0.526067 0 1.06949C0.326055 4.98215 2.1737 8.35138 4.67345 9.87297H11.3032C12.3901 9.22086 13.2596 8.35138 14.0203 7.15584C15.6506 6.93847 17.3896 6.50374 18.4764 4.98215C19.5633 3.35187 18.9112 1.61292 16.9548 1.06949ZM11.1945 9.00349C11.0859 9.00349 11.0859 9.00349 10.9772 9.00349H5.10819C4.9995 9.00349 4.9995 9.00349 4.89082 9.00349C2.49975 7.37321 1.19553 4.22135 0.978164 1.39555C0.978164 1.28686 0.978164 1.17818 1.08685 1.17818H8.58611H9.02084H14.9985C15.1072 1.17818 15.2159 1.17818 15.1072 1.39555C14.7811 4.22135 13.5856 7.37321 11.1945 9.00349Z" fill="white"/>
</svg>
