<svg width="19" height="10" viewBox="0 0 19 10" fill="none" xmlns="http://www.w3.org/2000/svg">
<path d="M16.9548 0.869479C16.8462 0.869479 16.7375 0.869479 16.6288 0.760794C16.5201 0.760794 16.5201 0.760794 16.4114 0.760794C16.4114 1.08685 16.4114 1.52159 16.3027 1.84764C16.4114 1.84764 16.5201 1.84764 16.6288 1.95633C17.8243 2.28238 18.1504 3.15186 17.4983 4.13002C16.8462 4.9995 15.868 5.43424 14.8898 5.65161C14.7811 5.65161 14.7811 5.65161 14.7811 5.54293C15.2159 4.67345 15.5419 3.69529 15.7593 2.60844C15.868 2.06501 15.9767 1.52159 15.9767 0.978164C15.9767 0.869479 15.9767 0.652109 15.9767 0.543424C15.9767 0.21737 15.6506 0 15.2159 0H9.12953H8.69479H0.760794C0.21737 0.108685 0 0.326055 0 0.869479C0.326055 4.78213 2.1737 8.15137 4.67345 9.67295H11.3032C12.3901 9.02085 13.2596 8.15137 14.0203 6.95583C15.6506 6.73846 17.3896 6.30372 18.4764 4.78213C19.5633 3.15186 18.9112 1.4129 16.9548 0.869479ZM11.1945 8.80348C11.0859 8.80348 11.0859 8.80348 10.9772 8.80348H5.10819C4.9995 8.80348 4.9995 8.80348 4.89082 8.80348C2.49975 7.1732 1.19553 4.02134 0.978164 1.19553C0.978164 1.08685 0.978164 0.978164 1.08685 0.978164H8.58611H9.02084H14.9985C15.1072 0.978164 15.2159 0.978164 15.1072 1.19553C14.7811 4.02134 13.5856 7.1732 11.1945 8.80348Z" fill="white"/>
</svg>
