<svg width="19" height="10" viewBox="0 0 19 10" fill="none" xmlns="http://www.w3.org/2000/svg">
<path d="M16.9548 1.06943C16.8462 1.06943 16.7375 1.06943 16.6288 0.960745C16.5201 0.960745 16.5201 0.960745 16.4114 0.960745C16.4114 1.2868 16.4114 1.72154 16.3027 2.04759C16.4114 2.04759 16.5201 2.04759 16.6288 2.15628C17.8243 2.48233 18.1504 3.35181 17.4983 4.32998C16.8462 5.19946 15.868 5.63419 14.8898 5.85156C14.7811 5.85156 14.7811 5.85156 14.7811 5.74288C15.2159 4.8734 15.5419 3.89524 15.7593 2.80839C15.868 2.26496 15.9767 1.72154 15.9767 1.17812C15.9767 1.06943 15.9767 0.85206 15.9767 0.743376C15.9767 0.417321 15.6506 0.199951 15.2159 0.199951H9.12953H8.69479H0.760794C0.21737 0.308636 0 0.526006 0 1.06943C0.326055 4.98209 2.1737 8.35132 4.67345 9.87291H11.3032C12.3901 9.2208 13.2596 8.35132 14.0203 7.15578C15.6506 6.93841 17.3896 6.50367 18.4764 4.98209C19.5633 3.35181 18.9112 1.61285 16.9548 1.06943ZM11.1945 9.00343C11.0859 9.00343 11.0859 9.00343 10.9772 9.00343H5.10819C4.9995 9.00343 4.9995 9.00343 4.89082 9.00343C2.49975 7.37315 1.19553 4.22129 0.978164 1.39548C0.978164 1.2868 0.978164 1.17812 1.08685 1.17812H8.58611H9.02084H14.9985C15.1072 1.17812 15.2159 1.17812 15.1072 1.39548C14.7811 4.22129 13.5856 7.37315 11.1945 9.00343Z" fill="#3F3A31"/>
</svg>
