<svg width="126" height="126" viewBox="0 0 126 126" fill="none" xmlns="http://www.w3.org/2000/svg">
<rect x="0.169434" y="0.592651" width="125.781" height="125" fill="white"/>
<g clip-path="url(#clip0_1_3955)">
<path d="M90.6193 113.53V117.233H79.6608V113.55H83.2578V109.819H75.98V106.1H72.3055V102.337L72.2898 102.352H75.9758V98.6215H79.5875V94.9099H75.9926C75.9926 96.1709 75.9926 97.4053 75.9926 98.6407L72.2908 98.6087L72.3065 98.6236V94.8929H68.6582V87.4441H72.2636V83.7048H64.9848V79.9932H61.3187V87.4046H64.9335V91.1088H57.6484V83.7122H53.9927V79.9505H42.9619L42.9766 79.9665V72.49H28.2964L28.3111 72.506V68.7603L28.2964 68.7763H35.6454V65.0306L35.6307 65.0455H46.6291V68.74H50.2847V65.07H53.9592V76.2133H68.6101V79.9175H72.2615V72.5167H57.6735V68.7774H61.2841V65.0764H64.9586V68.7422H72.2594V65.0594H68.6729V57.5839H72.3045L72.2898 57.5679V61.3328H79.6587C79.6587 62.612 79.6587 63.8378 79.6587 65.0636H76.003V72.4943H79.6398V83.7122H75.9894V87.3897H83.3133V83.6589H86.9312V79.9441H83.3374V76.2133H86.926V72.5071H79.6294C79.6342 70.0199 79.6402 67.5327 79.6472 65.0455H83.3164V61.3424H86.9888V65.0583H90.6424V72.5081H101.632L101.618 72.4932V76.2368H108.966L108.951 76.2219V79.9676L108.966 79.9527H101.667V83.7101H105.258V87.4473H101.655V91.1653H108.951V94.8961L108.966 94.8811H105.276V98.6418H101.619V102.358L101.633 102.343H90.613V106.089H86.9616C86.9616 104.855 86.9616 103.62 86.9616 102.385H79.6692V106.075H86.971V113.55H90.6371L90.6193 113.53ZM97.9233 98.5906V87.4697H86.9888V98.5906H97.9233ZM90.6507 83.6536H97.918V79.9889H90.6507V83.6536Z" fill="black"/>
<path d="M86.9541 38.93H105.278V42.6224H112.598V38.9577H116.264V53.818H112.663V57.5562H116.253V68.7486H112.657V72.4687H116.259V102.315H112.67V106.053H116.263V113.502H112.642V117.233H108.987V106.112H105.315V113.511H101.643V117.241H97.987V113.532H90.6192L90.6349 113.547V109.788H94.323V106.105H97.9713V109.768H101.637V102.337L101.623 102.352H108.97V94.8758L108.955 94.8907H112.596V83.6728H108.97V79.9527L108.955 79.9676H112.592V76.2219H108.955L108.97 76.2368L108.954 65.0295H112.592V61.3136H108.954V50.0914H112.601V46.4139H94.279V50.0712H90.6076V42.6395H86.9688V38.914L86.9541 38.93Z" fill="black"/>
<path d="M57.6388 38.931H53.9727V27.7216L53.957 27.7365H57.6378V23.9908L57.6231 24.0057H61.3039V20.26L61.2892 20.276H64.9553V16.5548H68.6089V12.8145H75.9725L75.9579 12.7985V16.5442H79.6387L79.6229 16.5292V20.26H72.3253V23.977H79.6209V27.7408L79.6366 27.7259H75.9704V31.4727H72.2897V27.7419H68.6309V24.0335H65.0035V27.7227H68.6403C68.6403 28.9705 68.6403 30.2191 68.6403 31.4684H64.9993V38.8841H72.2886V35.1832H75.9715V42.6693H83.2859V46.3894L83.3006 46.3745H75.9453V57.5668H72.2897L72.3043 57.5828V53.8595H64.9868V50.1618H61.3353V57.5732H64.9396V61.272H50.3087V57.5679L50.293 57.5828H53.9738V53.8371L53.9591 53.852H57.5959V50.1063H53.9591L53.9748 50.1213V46.4193H68.6204V50.085H72.2561V42.6735H57.6242V38.9161H61.2641V31.5004H57.6388V38.931Z" fill="black"/>
<path d="M10.0103 9.09967H35.6092V35.1491H10.0103V9.09967ZM13.867 13.0223V31.2339H31.7346V13.0223H13.867Z" fill="black"/>
<path d="M90.6494 35.1523V9.10394H116.247V35.1523H90.6494ZM94.525 13.0234V31.2328H112.391V13.0234H94.525Z" fill="black"/>
<path d="M9.99609 117.231V91.1812H35.594V117.231H9.99609ZM31.7383 113.314V95.1135H13.8612V113.314H31.7383Z" fill="black"/>
<path d="M31.9617 79.9548V83.6856H35.6079V87.3865H10.0111V83.6973H20.9581V79.9804H24.6054V76.2496H17.3266V72.5326H13.6542V76.1899H10.0059V65.0657H20.9466V68.7763H24.6452L24.6305 68.7603V72.506H28.3113L28.2966 72.49V79.9697H31.9764L31.9617 79.9548Z" fill="black"/>
<path d="M53.9747 27.7216H50.3191V42.6171H46.653V38.9694H42.9869V42.6469H31.9634L31.978 42.6629V38.9364H39.2904V20.2761H50.3076L50.2929 20.2601V24.0058H53.9737L53.959 23.9909V27.7366L53.9747 27.7216ZM43.0026 24.0239V35.1491H46.6079V24.0239H43.0026Z" fill="black"/>
<path d="M50.3075 20.276V16.5452H42.9868V12.8315H39.3364V9.10071H53.9401V12.7889H57.6136V16.5079H61.2912V20.2728L61.3059 20.2568H57.6251V24.0025L57.6398 23.9876H53.959L53.9737 24.0025V20.26H50.2929L50.3075 20.276Z" fill="black"/>
<path d="M57.6242 102.337V106.068H61.2715V109.788H57.6399V113.528H50.3182V117.239H39.3271V113.553H42.9472V109.833H50.3087V102.337L50.293 102.352H57.6399L57.6242 102.337Z" fill="black"/>
<path d="M13.6394 53.8531H17.2762V46.3916H10.0005V38.9694H13.6226V42.6661H24.6451L24.6304 42.6501V46.4065H21.0083V53.8574H24.6451L24.6293 53.8425V57.5733H20.9894V61.2742H13.6488V53.8382L13.6394 53.8531Z" fill="black"/>
<path d="M50.3088 102.337H46.6427V106.047H42.9923V102.358H39.3262V98.6386H42.9294V94.9014H39.3429V87.4313H46.6406L46.6259 87.4164V91.1343H50.292V94.8907L50.3078 94.8758H46.671V98.6215H50.3078L50.2931 98.6066V102.352L50.3088 102.337Z" fill="black"/>
<path d="M72.3053 102.337H57.624L57.6397 102.352V98.6066L57.6251 98.6226H61.2912V94.912H64.9447V98.6215H72.3094L72.2937 98.6066V102.352L72.3053 102.337Z" fill="black"/>
<path d="M31.9636 42.6426V46.3628H42.9336V50.1053H28.2964L28.3111 50.1213V42.6448L28.2964 42.6608H31.9782L31.9636 42.6426Z" fill="black"/>
<path d="M79.6221 12.8145H86.9271V23.9684H83.3207V16.5292H79.6211L79.6368 16.5442V12.7985L79.6221 12.8145Z" fill="black"/>
<path d="M83.2883 31.4684H86.9544V38.93L86.969 38.914H79.6211V35.1832H83.3029V31.4524L83.2883 31.4684Z" fill="black"/>
<path d="M64.9732 113.544V106.113H68.6309V109.794H72.2635V113.524H64.9585L64.9732 113.544Z" fill="black"/>
<path d="M50.3086 57.5679H46.6424V61.2774H43.0088V53.8531H50.3075L50.2928 53.8372V57.5829L50.3086 57.5679Z" fill="black"/>
<path d="M50.292 94.8907H57.6242V98.6215L57.6389 98.6055H50.293L50.3077 98.6204V94.8758L50.292 94.8907Z" fill="black"/>
<path d="M24.645 68.7763V61.3445H28.2965V68.7763L28.3112 68.7603H24.6304L24.645 68.7763Z" fill="black"/>
<path d="M35.6003 57.5509H31.9971V53.8862H35.6003V57.5509Z" fill="black"/>
<path d="M35.6452 65.0306H32.0073V61.3413H35.6294C35.6294 62.5792 35.6294 63.814 35.6294 65.0455L35.6452 65.0306Z" fill="black"/>
<path d="M50.3003 50.1223H53.98L53.9643 50.1074V53.8531L53.979 53.8382H50.293L50.3076 53.8542C50.3076 52.6063 50.3076 51.3578 50.3076 50.1085L50.3003 50.1223Z" fill="black"/>
<path d="M28.2965 50.1053V53.8361H24.6304L24.6461 53.851V50.1202H28.3122L28.2965 50.1053Z" fill="black"/>
<path d="M31.9761 79.9697V76.2688H35.6014V79.9548H31.9614L31.9761 79.9697Z" fill="black"/>
<path d="M42.9617 79.9505V83.6525H39.3364V79.9665H42.9764L42.9617 79.9505Z" fill="black"/>
<path d="M13.6486 53.8382H10.0107V50.149H13.6329C13.6329 51.3869 13.6329 52.6216 13.6329 53.8531L13.6486 53.8382Z" fill="black"/>
<path d="M50.3097 50.1074H46.6719V46.4182H50.294C50.294 47.6561 50.294 48.8908 50.294 50.1224L50.3097 50.1074Z" fill="black"/>
<path d="M46.6406 87.4313V83.7303H50.2659V87.4164H46.626L46.6406 87.4313Z" fill="black"/>
<path d="M24.645 42.6607V38.9587H28.2965V42.6607L28.3112 42.6448H24.6304L24.645 42.6607Z" fill="black"/>
<path d="M79.6207 27.7366H83.2868V31.4674L83.3015 31.4514L79.6196 31.4663L79.6353 27.7206L79.6207 27.7366Z" fill="black"/>
<path d="M75.9707 12.8145V9.11249H79.6222V12.8145L79.6368 12.7985H75.9561L75.9707 12.8145Z" fill="black"/>
<path d="M64.9583 113.528V117.23H61.333V113.544H64.9729L64.9583 113.528Z" fill="black"/>
<path d="M83.2858 46.3894H86.9258V53.8254H83.3204V57.5402H79.6543V50.1394H83.2984C83.2984 48.8464 83.2984 47.6099 83.2984 46.3745L83.2858 46.3894Z" fill="black"/>
<path d="M105.316 61.2763C105.196 61.287 105.074 61.3051 104.954 61.3051H90.6558V57.6234H105.302C105.302 58.8321 105.302 60.0654 105.302 61.2987C105.301 61.2944 105.316 61.2763 105.316 61.2763Z" fill="black"/>
<path d="M101.585 53.8254H97.9922V50.1415H101.585V53.8254Z" fill="black"/>
<path d="M108.965 61.2987V65.0444H105.315C105.315 63.7653 105.315 62.5235 105.315 61.2774C105.315 61.2774 105.3 61.2945 105.3 61.2934L108.965 61.2987Z" fill="black"/>
<path d="M101.632 72.5081V68.8072H105.258V72.4932H101.618L101.632 72.5081Z" fill="black"/>
<path d="M77.7963 35.9741C79.2339 35.9741 80.3992 34.7882 80.3992 33.3253C80.3992 31.8623 79.2339 30.6764 77.7963 30.6764C76.3587 30.6764 75.1934 31.8623 75.1934 33.3253C75.1934 34.7882 76.3587 35.9741 77.7963 35.9741Z" fill="black"/>
<path d="M90.6475 94.8428V91.1844H94.2675V94.8428H90.6475Z" fill="black"/>
<path d="M68.6235 31.4524H72.3043V35.1981H68.6235V31.4524Z" fill="black"/>
<path d="M17.3418 16.5612H28.2762V27.6875H17.3418V16.5612Z" fill="black"/>
<path d="M97.9976 16.5602H108.93V27.6865H97.9976V16.5602Z" fill="black"/>
<path d="M17.3428 98.6375H28.2751V109.764H17.3428V98.6375Z" fill="black"/>
</g>
<defs>
<clipPath id="clip0_1_3955">
<rect width="106.265" height="108.14" fill="white" transform="translate(9.99609 9.09967)"/>
</clipPath>
</defs>
</svg>
