<svg width="93" height="81" viewBox="0 0 93 81" fill="none" xmlns="http://www.w3.org/2000/svg">
<g clip-path="url(#clip0_1_2348)">
<path d="M26.3565 77.3909C25.9896 77.3874 25.6298 77.2895 25.3121 77.1065C24.9944 76.9234 24.7294 76.6616 24.5431 76.3464L4.39945 41.5296C4.2189 41.2109 4.12402 40.8511 4.12402 40.4851C4.12402 40.119 4.2189 39.7592 4.39945 39.4406L24.5303 4.67048C24.7144 4.35325 24.9788 4.08981 25.2971 3.90651C25.6153 3.72321 25.9762 3.62647 26.3437 3.62598H66.631C66.9986 3.62604 67.3596 3.72259 67.678 3.90594C67.9963 4.08928 68.2606 4.35296 68.4444 4.67048L88.588 39.4873C88.7723 39.8047 88.8693 40.165 88.8693 40.5318C88.8693 40.8986 88.7723 41.2589 88.588 41.5763L68.4572 76.3421C68.2736 76.6601 68.0094 76.9244 67.6912 77.1085C67.3729 77.2926 67.0117 77.39 66.6438 77.3909H26.3565Z" fill="#F7EEDC"/>
<path d="M65.7626 7.21812L85.0251 40.4979L65.7626 73.7734H27.2377L7.97528 40.4979L27.2377 7.21812H65.7626ZM66.6438 7.4596e-08H26.3566C25.3535 0.000583817 24.3683 0.264589 23.4999 0.765458C22.6316 1.26633 21.9108 1.9864 21.4101 2.85328L1.26643 37.6488C0.764653 38.5157 0.500488 39.499 0.500488 40.5C0.500488 41.501 0.764653 42.4843 1.26643 43.3512L21.4101 78.168C21.9117 79.0338 22.6328 79.7527 23.501 80.2528C24.3692 80.7529 25.354 81.0164 26.3566 81.017H66.6438C67.6471 81.0171 68.6328 80.754 69.5018 80.2539C70.3708 79.7538 71.0926 79.0344 71.5946 78.168L91.7339 43.3512C92.2357 42.4843 92.4999 41.501 92.4999 40.5C92.4999 39.499 92.2357 38.5157 91.7339 37.6488L71.5946 2.85328C71.0934 1.98578 70.372 1.2653 69.5028 0.764396C68.6337 0.263489 67.6476 -0.00016191 66.6438 7.4596e-08Z" fill="#849FA4"/>
<path d="M30.8348 31.4201C30.3939 31.4441 29.9542 31.3549 29.5577 31.1611C29.2502 30.9947 28.9997 30.7404 28.8383 30.4308C28.6613 30.0778 28.553 29.6946 28.519 29.3014C28.4168 28.3289 28.4168 27.3484 28.519 26.3759C28.553 25.9787 28.6613 25.5913 28.8383 25.2338C29.0003 24.9203 29.2503 24.6607 29.5577 24.4865C29.9526 24.2874 30.3929 24.1952 30.8348 24.219C31.2447 24.1989 31.6532 24.2821 32.0224 24.461C32.2914 24.6056 32.5163 24.8198 32.6737 25.0809C32.8147 25.3315 32.9058 25.6069 32.9419 25.8919C32.9747 26.161 32.9918 26.4318 32.993 26.7029H31.5882C31.6128 26.3258 31.5502 25.9481 31.4052 25.5989C31.342 25.4824 31.2456 25.3871 31.1281 25.3252C31.0107 25.2632 30.8775 25.2373 30.7454 25.2508C30.5907 25.2462 30.4395 25.2975 30.3197 25.3951C30.1891 25.5183 30.0962 25.6758 30.0515 25.8495C29.9755 26.1268 29.9298 26.4115 29.9153 26.6986C29.8897 27.0383 29.8769 27.4544 29.8769 27.947C29.8717 28.3722 29.8902 28.7975 29.9323 29.2207C29.9508 29.4793 30.0067 29.7339 30.0983 29.9765C30.1477 30.1254 30.2469 30.2528 30.3793 30.3374C30.5017 30.4 30.6376 30.4321 30.7752 30.4308C30.8931 30.4319 31.0102 30.4102 31.12 30.3671C31.2399 30.3164 31.3389 30.2266 31.4009 30.1124C31.4925 29.9456 31.5558 29.7648 31.5882 29.5774C31.6378 29.2757 31.6605 28.9702 31.6563 28.6645H33.0441C33.0461 29.0259 33.0161 29.3868 32.9547 29.743C32.9076 30.0534 32.7975 30.3511 32.6312 30.6176C32.4632 30.8729 32.2294 31.0782 31.9543 31.2121C31.6025 31.3677 31.2191 31.4389 30.8348 31.4201Z" fill="#849FA4"/>
<path d="M36.0834 31.42C35.6426 31.4426 35.2033 31.3535 34.8063 31.161C34.5001 30.9943 34.251 30.7399 34.0912 30.4307C33.9127 30.078 33.803 29.6947 33.7677 29.3012C33.6712 28.3285 33.6712 27.3486 33.7677 26.3758C33.803 25.9782 33.9127 25.5908 34.0912 25.2336C34.2515 24.9203 34.5 24.6606 34.8063 24.4863C35.2036 24.3099 35.6336 24.2188 36.0685 24.2188C36.5034 24.2188 36.9334 24.3099 37.3307 24.4863C37.637 24.6606 37.8856 24.9203 38.0458 25.2336C38.2243 25.5908 38.334 25.9782 38.3694 26.3758C38.4658 27.3486 38.4658 28.3285 38.3694 29.3012C38.3341 29.6947 38.2243 30.078 38.0458 30.4307C37.886 30.7399 37.6369 30.9943 37.3307 31.161C36.943 31.3494 36.5143 31.4385 36.0834 31.42ZM36.0834 30.4179C36.2623 30.4266 36.4389 30.3758 36.5857 30.2736C36.7231 30.1636 36.8252 30.016 36.8795 29.849C36.9559 29.5891 37.0017 29.3212 37.0157 29.0507C37.0369 28.7196 37.0497 28.3247 37.0497 27.8534C37.0497 27.3821 37.0497 27.0042 37.0157 26.6645C37.0009 26.3941 36.9552 26.1263 36.8795 25.8663C36.83 25.6898 36.7275 25.5327 36.5857 25.4162C36.4344 25.3221 36.2596 25.2722 36.0813 25.2722C35.9029 25.2722 35.7282 25.3221 35.5768 25.4162C35.4365 25.534 35.3343 25.6906 35.2831 25.8663C35.2074 26.1263 35.1617 26.3941 35.1469 26.6645C35.1256 26.9914 35.1128 27.3863 35.1128 27.8534C35.1128 28.3204 35.1128 28.7026 35.1469 29.0507C35.1609 29.3212 35.2066 29.5891 35.2831 29.849C35.3389 30.0153 35.4407 30.1625 35.5768 30.2736C35.7228 30.3825 35.9012 30.4393 36.0834 30.4349V30.4179Z" fill="#849FA4"/>
<path d="M41.2383 31.42C40.8877 31.4276 40.5379 31.3847 40.1996 31.2926C39.9395 31.2223 39.702 31.0863 39.51 30.8977C39.3285 30.7082 39.1982 30.476 39.1311 30.2226C39.0463 29.9213 39.0033 29.6099 39.0034 29.297V29.2078H40.4124V29.2758C40.4125 29.4177 40.4211 29.5595 40.438 29.7004C40.4565 29.8332 40.4999 29.9613 40.5657 30.0782C40.6311 30.1859 40.7217 30.2762 40.8296 30.3415C40.9689 30.4127 41.1245 30.4464 41.2809 30.4392C41.403 30.4458 41.5252 30.4261 41.6391 30.3814C41.7529 30.3367 41.8558 30.2681 41.9407 30.1801C42.1057 29.9385 42.1823 29.6477 42.1578 29.3564C42.1886 29.0542 42.1051 28.7513 41.9236 28.5072C41.8205 28.4161 41.6996 28.3471 41.5684 28.3047C41.4373 28.2623 41.2988 28.2474 41.1617 28.261H40.9573H40.7147V27.174C40.7585 27.1791 40.8028 27.1791 40.8466 27.174H40.9786C41.1247 27.1891 41.2724 27.1747 41.4128 27.1317C41.5533 27.0887 41.6835 27.0179 41.7959 26.9235C41.9875 26.6841 42.0763 26.3788 42.0428 26.0743C42.0637 25.8433 41.9934 25.6134 41.847 25.4332C41.775 25.3668 41.6905 25.3154 41.5985 25.2819C41.5064 25.2484 41.4086 25.2334 41.3107 25.2379C41.118 25.2315 40.9275 25.2801 40.7615 25.378C40.685 25.4296 40.6209 25.4975 40.5737 25.5768C40.5266 25.6561 40.4977 25.7448 40.4891 25.8365C40.4891 25.9087 40.4678 25.9682 40.4635 26.0191C40.4593 26.0701 40.4635 26.1422 40.4635 26.2314H39.0886V26.1762C39.0683 25.9024 39.1098 25.6276 39.21 25.3719C39.3102 25.1162 39.4665 24.8862 39.6675 24.6986C40.1468 24.3407 40.7388 24.1659 41.3362 24.2061C41.8958 24.1687 42.4497 24.3363 42.8942 24.6774C43.0808 24.849 43.2266 25.0601 43.3209 25.2952C43.4152 25.5303 43.4556 25.7834 43.4391 26.0361C43.4389 26.2079 43.4174 26.379 43.3752 26.5456C43.3348 26.7105 43.2687 26.8681 43.1794 27.0127C43.0926 27.1551 42.9817 27.2815 42.8517 27.3863C42.7209 27.4964 42.5665 27.5748 42.4004 27.6156C42.7526 27.6807 43.0714 27.8652 43.3029 28.1378C43.5328 28.4554 43.6455 28.8424 43.6222 29.2333C43.6479 29.5357 43.6058 29.84 43.499 30.1242C43.3923 30.4084 43.2235 30.6654 43.0049 30.8765C42.5004 31.2631 41.8735 31.456 41.2383 31.42Z" fill="#849FA4"/>
<path d="M44.0142 30.1801H44.5718C44.7378 29.8713 44.8732 29.5471 44.9762 29.212C45.07 28.8938 45.1383 28.5687 45.1806 28.2397C45.2231 27.9086 45.2487 27.5689 45.2614 27.2122C45.2742 26.8556 45.2614 26.4777 45.2614 26.0658V24.3674H49.297V30.1759H49.9525V32.6937H48.667V31.3223H45.3125V32.6937H44.0142V30.1801ZM47.9305 30.1801V25.5096H46.6151V26.639C46.6151 26.9221 46.6066 27.215 46.5896 27.5179C46.5896 27.8279 46.547 28.1421 46.5044 28.452C46.4675 28.7588 46.4149 29.0635 46.3469 29.3649C46.2815 29.6388 46.1947 29.9071 46.0873 30.1674L47.9305 30.1801Z" fill="#849FA4"/>
<path d="M51.9103 24.3718H53.6471L55.4946 31.3309H54.0302L53.7067 29.8576H51.8507L51.5272 31.3309H50.0713L51.9103 24.3718ZM53.4768 28.7069L52.8042 25.5819H52.7829L52.1103 28.7069H53.4768Z" fill="#849FA4"/>
<path d="M55.9843 24.3718H59.8623V25.5225H57.3721V27.1742H59.7176V28.3248H57.3721V30.1973H59.9603V31.3479H55.9673L55.9843 24.3718Z" fill="#849FA4"/>
<path d="M61.8335 25.5225H60.3096V24.3718H64.7665V25.5225H63.2426V31.3309H61.8335V25.5225Z" fill="#849FA4"/>
<path d="M15.7183 36.065H18.0766C18.3445 36.0631 18.6118 36.0931 18.8726 36.1542C19.1006 36.2076 19.3151 36.3073 19.5026 36.4472C19.6889 36.5889 19.8355 36.7761 19.9283 36.9906C20.0357 37.2606 20.0864 37.5496 20.0773 37.8398C20.0863 38.1813 19.9945 38.5179 19.8134 38.8079C19.6265 39.0828 19.3446 39.2793 19.0216 39.3599C19.3838 39.3992 19.7166 39.5773 19.9496 39.8567C20.1898 40.1797 20.3102 40.5759 20.2902 40.9776C20.2921 41.2417 20.2563 41.5048 20.1838 41.7588C20.1142 41.9997 19.9888 42.2207 19.8177 42.4042C19.628 42.6011 19.3968 42.7534 19.1408 42.8501C18.811 42.9697 18.4614 43.0259 18.1106 43.0156H15.7183V36.065ZM17.5274 38.9226C17.8268 38.9455 18.1255 38.871 18.3788 38.7103C18.4749 38.6213 18.5491 38.5114 18.5956 38.3892C18.6421 38.2669 18.6597 38.1356 18.647 38.0054C18.6605 37.8781 18.6457 37.7493 18.6038 37.6282C18.5618 37.5072 18.4938 37.3968 18.4044 37.3048C18.177 37.1507 17.9036 37.0788 17.6296 37.101H17.123V38.9226H17.5274ZM17.6722 41.9924C17.963 42.0057 18.2506 41.9269 18.4938 41.7673C18.6094 41.6649 18.6984 41.5361 18.7533 41.392C18.8081 41.2478 18.8272 41.0925 18.8088 40.9394C18.8138 40.7684 18.7849 40.5981 18.7236 40.4383C18.6769 40.3135 18.5993 40.2025 18.498 40.1157C18.4018 40.032 18.2863 39.9736 18.1617 39.9458C18.0226 39.9107 17.8795 39.8936 17.736 39.8949H17.1316V41.9924H17.6722Z" fill="#849FA4"/>
<path d="M23.3808 43.1303C22.9399 43.1542 22.5002 43.065 22.1037 42.8713C21.7953 42.7061 21.5444 42.4515 21.3843 42.141C21.2077 41.7876 21.098 41.4047 21.0608 41.0116C21.0107 40.5249 20.9865 40.0359 20.9884 39.5467C20.9871 39.0589 21.0113 38.5714 21.0608 38.0861C21.0981 37.6889 21.2077 37.3019 21.3843 36.9439C21.5451 36.6296 21.7953 36.3696 22.1037 36.1966C22.5002 36.0203 22.9296 35.9292 23.3637 35.9292C23.7979 35.9292 24.2272 36.0203 24.6238 36.1966C24.9448 36.3637 25.2086 36.6224 25.3815 36.9397C25.5585 37.2972 25.6668 37.6846 25.7008 38.0818C25.7539 38.5669 25.7795 39.0545 25.7774 39.5425C25.7801 40.0318 25.7545 40.5209 25.7008 41.0073C25.6668 41.4005 25.5585 41.7837 25.3815 42.1367C25.2201 42.4463 24.9695 42.7006 24.6621 42.867C24.2646 43.0626 23.8234 43.1532 23.3808 43.1303ZM23.3808 42.1282C23.5597 42.1376 23.7366 42.0867 23.8831 41.9839C24.0251 41.8694 24.1278 41.7135 24.1768 41.538C24.2554 41.2787 24.3011 41.0105 24.313 40.7398C24.3343 40.4086 24.3471 40.0138 24.3471 39.5467C24.3471 39.0797 24.3471 38.6975 24.313 38.3578C24.3007 38.0858 24.2549 37.8163 24.1768 37.5554C24.1303 37.3776 24.0272 37.2197 23.8831 37.1053C23.7326 37.0111 23.5584 36.9611 23.3808 36.9611C23.2031 36.9611 23.029 37.0111 22.8784 37.1053C22.7343 37.2197 22.6312 37.3776 22.5847 37.5554C22.5066 37.8163 22.4608 38.0858 22.4485 38.3578C22.4229 38.6805 22.4144 39.0754 22.4144 39.5467C22.4144 40.018 22.4144 40.3959 22.4485 40.7398C22.4604 41.0105 22.5061 41.2787 22.5847 41.538C22.6337 41.7135 22.7364 41.8694 22.8784 41.9839C23.025 42.0867 23.2018 42.1376 23.3808 42.1282Z" fill="#849FA4"/>
<path d="M28.54 43.1304C28.1881 43.138 27.8368 43.0951 27.4971 43.003C27.2378 42.9307 27.0008 42.795 26.8075 42.6082C26.626 42.4187 26.4956 42.1864 26.4286 41.9331C26.3451 41.6187 26.305 41.2944 26.3094 40.9692V40.8801H27.7184V40.948C27.7179 41.0901 27.7278 41.232 27.7482 41.3726C27.7629 41.5063 27.8065 41.6352 27.8759 41.7505C27.939 41.86 28.0301 41.9508 28.1399 42.0137C28.2715 42.0809 28.4178 42.1144 28.5656 42.1114C28.688 42.1201 28.8107 42.1013 28.9249 42.0565C29.0391 42.0117 29.1418 41.942 29.2254 41.8524C29.3919 41.6113 29.47 41.3205 29.4467 41.0287C29.4747 40.7266 29.3915 40.4248 29.2126 40.1795C29.109 40.0889 28.9881 40.0204 28.8571 39.9781C28.726 39.9357 28.5877 39.9204 28.4506 39.9332H28.242H27.9994V38.842C28.0432 38.8473 28.0875 38.8473 28.1314 38.842H28.2633C28.4104 38.8566 28.5589 38.8416 28.7 38.7979C28.8412 38.7541 28.9721 38.6825 29.0849 38.5872C29.2733 38.3464 29.3603 38.0418 29.3275 37.7381C29.339 37.6236 29.3276 37.508 29.294 37.3979C29.2604 37.2879 29.2052 37.1856 29.1317 37.0969C29.0601 37.03 28.9757 36.9782 28.8835 36.9446C28.7914 36.911 28.6933 36.8964 28.5954 36.9016C28.4027 36.8957 28.2124 36.9443 28.0462 37.0417C27.9697 37.0933 27.9056 37.1612 27.8585 37.2405C27.8113 37.3198 27.7824 37.4085 27.7738 37.5003C27.7616 37.5604 27.7544 37.6215 27.7525 37.6829C27.7525 37.7381 27.7525 37.806 27.7525 37.8952H26.3775V37.84C26.3568 37.5665 26.3976 37.2919 26.497 37.0362C26.5965 36.7806 26.752 36.5503 26.9522 36.3624C27.4328 36.0038 28.0264 35.829 28.6252 35.8698C29.1847 35.8325 29.7387 36.0001 30.1832 36.3411C30.3696 36.5136 30.5149 36.7256 30.6085 36.9614C30.702 37.1973 30.7414 37.4511 30.7238 37.7041C30.7233 37.8745 30.7019 38.0442 30.6599 38.2093C30.6195 38.3743 30.5535 38.5319 30.4641 38.6764C30.3785 38.8198 30.2674 38.9464 30.1364 39.0501C30.0072 39.16 29.8542 39.2385 29.6894 39.2793C30.0399 39.3457 30.357 39.5301 30.5876 39.8016C30.819 40.1185 30.9333 40.5056 30.9111 40.897C30.9363 41.1998 30.8936 41.5043 30.7861 41.7885C30.6786 42.0727 30.509 42.3295 30.2896 42.5402C29.798 42.9431 29.1759 43.153 28.54 43.1304Z" fill="#849FA4"/>
<path d="M31.8306 36.0652H33.9207L34.9168 40.9778H34.9381L35.9427 36.0652H38.0244V43.0243H36.7473V37.4706L35.5043 43.0243H34.4102L33.1715 37.4706H33.1502V43.0243H31.8731L31.8306 36.0652Z" fill="#849FA4"/>
<path d="M41.2597 43.1303C40.8188 43.1542 40.3791 43.065 39.9826 42.8713C39.6742 42.7061 39.4233 42.4515 39.2632 42.141C39.0866 41.7876 38.9769 41.4047 38.9397 41.0116C38.8896 40.5249 38.8655 40.0359 38.8673 39.5467C38.866 39.0589 38.8902 38.5714 38.9397 38.0861C38.977 37.6889 39.0866 37.3019 39.2632 36.9439C39.424 36.6296 39.6742 36.3696 39.9826 36.1966C40.3791 36.0203 40.8085 35.9292 41.2426 35.9292C41.6768 35.9292 42.1061 36.0203 42.5027 36.1966C42.8237 36.3637 43.0875 36.6224 43.2604 36.9397C43.4374 37.2972 43.5457 37.6846 43.5797 38.0818C43.6328 38.5669 43.6584 39.0545 43.6563 39.5425C43.659 40.0318 43.6334 40.5209 43.5797 41.0073C43.5457 41.4005 43.4374 41.7837 43.2604 42.1367C43.099 42.4463 42.8484 42.7006 42.541 42.867C42.1435 43.0626 41.7023 43.1532 41.2597 43.1303ZM41.2597 42.1282C41.4386 42.1376 41.6155 42.0867 41.762 41.9839C41.904 41.8694 42.0067 41.7135 42.0557 41.538C42.1343 41.2787 42.18 41.0105 42.1919 40.7398C42.2132 40.4086 42.226 40.0138 42.226 39.5467C42.226 39.0797 42.226 38.6975 42.1919 38.3578C42.1796 38.0858 42.1339 37.8163 42.0557 37.5554C42.0092 37.3776 41.9061 37.2197 41.762 37.1053C41.6115 37.0111 41.4374 36.9611 41.2597 36.9611C41.082 36.9611 40.9079 37.0111 40.7573 37.1053C40.6132 37.2197 40.5101 37.3776 40.4636 37.5554C40.3855 37.8163 40.3397 38.0858 40.3274 38.3578C40.3019 38.6805 40.2933 39.0754 40.2933 39.5467C40.2933 40.018 40.2933 40.3959 40.3274 40.7398C40.3393 41.0105 40.3851 41.2787 40.4636 41.538C40.5126 41.7135 40.6153 41.8694 40.7573 41.9839C40.9039 42.0867 41.0807 42.1376 41.2597 42.1282Z" fill="#849FA4"/>
<path d="M45.6146 39.0076L43.8692 36.0652H45.3251L46.9725 38.9227V36.0652H48.3219V38.9227L49.9736 36.0652H51.4295L49.6799 39.0076L51.6636 43.0243H50.1396L48.8626 40.2262L48.3347 41.0966V43.0243H46.9853V41.0966L46.4617 40.2262L45.1846 43.0243H43.6606L45.6146 39.0076Z" fill="#849FA4"/>
<path d="M52.0172 36.0652H53.4219V38.7274H55.0651V36.0652H56.4571V43.0243H55.0523V39.9332H53.4092V43.0243H52.0044L52.0172 36.0652Z" fill="#849FA4"/>
<path d="M59.6753 43.1303C59.2344 43.1542 58.7947 43.065 58.3982 42.8713C58.0908 42.7049 57.8402 42.4505 57.6788 42.141C57.5018 41.788 57.3935 41.4048 57.3595 41.0116C57.3058 40.5251 57.2802 40.0361 57.2829 39.5467C57.2808 39.0588 57.3064 38.5711 57.3595 38.0861C57.3935 37.6888 57.5018 37.3014 57.6788 36.9439C57.8408 36.6305 58.0908 36.3708 58.3982 36.1966C58.7948 36.0203 59.2241 35.9292 59.6582 35.9292C60.0924 35.9292 60.5217 36.0203 60.9183 36.1966C61.2266 36.3696 61.4769 36.6296 61.6377 36.9439C61.8142 37.3019 61.9239 37.6889 61.9612 38.0861C62.0107 38.5714 62.0349 39.0589 62.0336 39.5467C62.0354 40.0359 62.0113 40.5249 61.9612 41.0116C61.924 41.4047 61.8143 41.7876 61.6377 42.141C61.4776 42.4515 61.2267 42.7061 60.9183 42.8713C60.532 43.0594 60.1048 43.1484 59.6753 43.1303ZM59.6753 42.1282C59.8542 42.1376 60.0311 42.0867 60.1776 41.9839C60.3197 41.8694 60.4223 41.7135 60.4713 41.538C60.5499 41.2787 60.5956 41.0105 60.6075 40.7398C60.6331 40.4086 60.6416 40.0138 60.6416 39.5467C60.6416 39.0797 60.6416 38.6975 60.6075 38.3578C60.5952 38.0858 60.5495 37.8163 60.4713 37.5554C60.4248 37.3776 60.3217 37.2197 60.1776 37.1053C60.0271 37.0111 59.853 36.9611 59.6753 36.9611C59.4976 36.9611 59.3235 37.0111 59.173 37.1053C59.0288 37.2197 58.9258 37.3776 58.8792 37.5554C58.8011 37.8163 58.7553 38.0858 58.743 38.3578C58.7217 38.6805 58.709 39.0754 58.709 39.5467C58.709 40.018 58.709 40.3959 58.743 40.7398C58.7549 41.0105 58.8007 41.2787 58.8792 41.538C58.9282 41.7135 59.0309 41.8694 59.173 41.9839C59.3195 42.0867 59.4964 42.1376 59.6753 42.1282Z" fill="#849FA4"/>
<path d="M65.1068 43.1303C64.6659 43.1538 64.2264 43.0647 63.8297 42.8713C63.5223 42.7048 63.2717 42.4505 63.1103 42.141C62.9334 41.788 62.825 41.4047 62.7911 41.0115C62.7389 40.525 62.7147 40.036 62.7187 39.5467C62.7153 39.0589 62.7394 38.5712 62.7911 38.0861C62.825 37.6888 62.9333 37.3014 63.1103 36.9439C63.2724 36.6305 63.5223 36.3708 63.8297 36.1966C64.225 35.9987 64.6651 35.9065 65.1068 35.9291C65.5168 35.909 65.9252 35.9923 66.2945 36.1712C66.5634 36.3158 66.7884 36.5299 66.9458 36.7911C67.0862 37.0419 67.1772 37.3171 67.214 37.602C67.2468 37.8711 67.2638 38.1419 67.2651 38.413H65.8603C65.8848 38.0359 65.8222 37.6582 65.6772 37.3091C65.6203 37.2223 65.5464 37.1479 65.4598 37.0903C65.3733 37.0328 65.2761 36.9933 65.1738 36.9742C65.0716 36.9552 64.9666 36.957 64.8651 36.9795C64.7636 37.002 64.6677 37.0448 64.5832 37.1053C64.4541 37.2296 64.3614 37.3866 64.315 37.5596C64.239 37.8369 64.1934 38.1216 64.1788 38.4088C64.1533 38.7484 64.1405 39.1646 64.1405 39.6613C64.1351 40.0866 64.1536 40.5119 64.1958 40.9351C64.2143 41.1937 64.2703 41.4483 64.3618 41.6909C64.4112 41.8398 64.5104 41.9672 64.6428 42.0518C64.7645 42.1164 64.9009 42.1486 65.0387 42.1452C65.158 42.1459 65.2764 42.1242 65.3878 42.0815C65.5057 42.0294 65.603 41.9399 65.6645 41.8268C65.7561 41.66 65.8193 41.4792 65.8518 41.2918C65.9015 40.9901 65.9243 40.6846 65.9199 40.3789H67.3247C67.3258 40.7401 67.2974 41.1008 67.2395 41.4574C67.1882 41.7687 67.0769 42.0672 66.9117 42.3363C66.7422 42.5901 66.5088 42.7951 66.2349 42.9307C65.8791 43.0826 65.4932 43.1509 65.1068 43.1303Z" fill="#849FA4"/>
<path d="M69.1807 37.2158H67.6567V36.0652H72.1137V37.2158H70.5897V43.0243H69.1807V37.2158Z" fill="#849FA4"/>
<path d="M72.7183 36.0652H74.0677V40.5277L75.7704 36.0652H77.2859V43.0243H75.9365V38.5703L74.2337 43.0243H72.7183V36.0652Z" fill="#849FA4"/>
<path d="M24.2154 53.567H24.7731C24.939 53.2581 25.0744 52.9339 25.1775 52.5989C25.2716 52.2823 25.34 51.9585 25.3818 51.6309C25.4267 51.2886 25.4537 50.9442 25.4627 50.5991C25.4627 50.2467 25.4627 49.8645 25.4627 49.4569V47.7585H29.4982V53.567H30.1538V56.0933H28.8554V54.7177H25.501V56.0933H24.2026L24.2154 53.567ZM28.1317 53.567V48.8965H26.8164V50.0259C26.8164 50.3089 26.8079 50.6019 26.7908 50.9048C26.7908 51.2148 26.7482 51.5289 26.7057 51.8389C26.6691 52.1457 26.6165 52.4504 26.5482 52.7518C26.4861 53.0265 26.3992 53.2951 26.2885 53.5543L28.1317 53.567Z" fill="#849FA4"/>
<path d="M30.8686 54.7729C30.7793 54.7729 30.6686 54.7729 30.5409 54.7516C30.448 54.7437 30.3557 54.7309 30.2642 54.7134V53.5161C30.301 53.5189 30.338 53.5189 30.3748 53.5161H30.46C30.5619 53.5251 30.6645 53.5251 30.7665 53.5161C30.8725 53.4889 30.964 53.422 31.0219 53.3292C31.1161 53.1719 31.1824 52.9995 31.2177 52.8197C31.2825 52.49 31.328 52.1569 31.3539 51.8219C31.388 51.3973 31.4178 50.8496 31.4348 50.1915C31.4518 49.5333 31.4646 48.7224 31.4646 47.7585H35.4405V54.7177H34.0358V48.9092H32.7928C32.7928 49.7287 32.7927 50.442 32.7587 51.0534C32.7246 51.6648 32.6991 52.1871 32.648 52.6244C32.6103 52.9876 32.5362 53.346 32.4267 53.6944C32.3547 53.9362 32.2329 54.1603 32.0691 54.3525C31.9346 54.51 31.7572 54.6251 31.5583 54.6837C31.3343 54.7485 31.1017 54.7786 30.8686 54.7729Z" fill="#849FA4"/>
<path d="M37.4244 51.8727C37.0598 51.7455 36.7472 51.5023 36.5347 51.1806C36.3075 50.7956 36.1966 50.3533 36.2155 49.9068C36.2075 49.5776 36.2594 49.2496 36.3687 48.9388C36.4628 48.6857 36.616 48.4586 36.8157 48.2764C37.0157 48.0969 37.2546 47.9661 37.5138 47.8943C37.8085 47.8098 38.1139 47.7683 38.4205 47.7711H40.7065V54.7302H39.306V52.051H38.7994L37.4712 54.7302H35.9175L37.4244 51.8727ZM39.3315 51.0235V48.8114H38.7739C38.4692 48.7851 38.1657 48.8729 37.9225 49.0577C37.8224 49.1737 37.7471 49.3088 37.701 49.4548C37.6548 49.6008 37.639 49.7546 37.6543 49.9068C37.6367 50.0622 37.651 50.2195 37.6964 50.3692C37.7418 50.5188 37.8173 50.6577 37.9182 50.7773C38.152 50.9578 38.4452 51.0442 38.7398 51.0193L39.3315 51.0235Z" fill="#849FA4"/>
<path d="M44.0395 47.7585H46.5C46.8121 47.7505 47.1221 47.8129 47.4067 47.9411C47.6369 48.05 47.8382 48.2114 47.9941 48.4124C48.1479 48.6093 48.2581 48.8365 48.3177 49.079C48.3824 49.3301 48.4153 49.5883 48.4156 49.8475C48.4222 50.1677 48.3673 50.4862 48.2538 50.7859C48.1579 51.0343 48.0048 51.2569 47.8068 51.4355C47.5961 51.6049 47.3527 51.7292 47.0917 51.8006C46.7961 51.8884 46.489 51.9313 46.1807 51.928H45.4272V54.7049H44.0225L44.0395 47.7585ZM46.07 50.909C46.1949 50.9142 46.3195 50.8944 46.4365 50.8506C46.5535 50.8068 46.6605 50.7401 46.7511 50.6542C46.8446 50.5463 46.9157 50.4209 46.9603 50.2853C47.0049 50.1497 47.022 50.0067 47.0108 49.8645C47.0297 49.5805 46.95 49.2986 46.7852 49.0662C46.6883 48.9672 46.5702 48.8913 46.4397 48.8442C46.3092 48.7972 46.1697 48.7802 46.0317 48.7945H45.4443V50.9175L46.07 50.909Z" fill="#849FA4"/>
<path d="M51.3486 54.8236C50.9083 54.8461 50.4693 54.7585 50.0715 54.5689C49.7639 54.4007 49.5135 54.145 49.3521 53.8343C49.1751 53.4813 49.0668 53.0981 49.0328 52.7049C48.9363 51.7336 48.9363 50.7551 49.0328 49.7837C49.0663 49.385 49.1746 48.9961 49.3521 48.6373C49.5141 48.3238 49.7641 48.0642 50.0715 47.89C50.4681 47.7137 50.8974 47.6226 51.3315 47.6226C51.7657 47.6226 52.195 47.7137 52.5916 47.89C52.8999 48.063 53.1502 48.323 53.311 48.6373C53.488 48.9965 53.5977 49.3851 53.6345 49.7837C53.731 50.7551 53.731 51.7336 53.6345 52.7049C53.5972 53.098 53.4876 53.4809 53.311 53.8343C53.1509 54.1459 52.9001 54.402 52.5916 54.5689C52.2042 54.7535 51.7775 54.841 51.3486 54.8236ZM51.3486 53.8216C51.5269 53.8309 51.7033 53.7816 51.8509 53.6815C51.993 53.5653 52.0956 53.4081 52.1446 53.2314C52.2232 52.972 52.2689 52.7039 52.2808 52.4332C52.3064 52.1062 52.3149 51.7071 52.3149 51.2401C52.3149 50.773 52.3149 50.3909 52.2808 50.0512C52.2685 49.7805 52.2228 49.5124 52.1446 49.253C52.0967 49.0746 51.994 48.9157 51.8509 48.7986C51.7033 48.6985 51.5269 48.6493 51.3486 48.6585C51.1704 48.6499 50.9941 48.699 50.8463 48.7986C50.7031 48.9157 50.6004 49.0746 50.5525 49.253C50.4743 49.5124 50.4286 49.7805 50.4163 50.0512C50.4163 50.3739 50.3823 50.773 50.3823 51.2401C50.3823 51.7071 50.3823 52.0892 50.4163 52.4332C50.4282 52.7039 50.474 52.972 50.5525 53.2314C50.6015 53.4081 50.7041 53.5653 50.8463 53.6815C50.9941 53.7811 51.1704 53.8302 51.3486 53.8216Z" fill="#849FA4"/>
<path d="M56.7675 54.8236C56.3272 54.8461 55.8882 54.7585 55.4904 54.5689C55.1838 54.3995 54.9336 54.1441 54.771 53.8343C54.5959 53.4806 54.4877 53.0977 54.4518 52.7049C54.3553 51.7335 54.3553 50.755 54.4518 49.7837C54.4873 49.3853 54.5955 48.9968 54.771 48.6373C54.9343 48.3247 55.1839 48.0653 55.4904 47.89C55.8857 47.692 56.3258 47.5999 56.7675 47.6225C57.178 47.6014 57.5871 47.6863 57.9552 47.8688C58.2236 48.0122 58.4485 48.2248 58.6065 48.4844C58.7469 48.7352 58.8379 49.0105 58.8747 49.2954C58.9076 49.5659 58.9247 49.8381 58.9257 50.1106H57.521C57.5447 49.7326 57.4836 49.354 57.3422 49.0024C57.2775 48.8874 57.1807 48.7937 57.0636 48.7326C56.9464 48.6715 56.8139 48.6458 56.6824 48.6585C56.5285 48.6549 56.3782 48.7044 56.2567 48.7986C56.1265 48.9238 56.0337 49.0826 55.9885 49.2572C55.9133 49.5275 55.8676 49.8051 55.8523 50.0851C55.8267 50.4248 55.814 50.8409 55.814 51.3589C55.8085 51.7842 55.827 52.2095 55.8693 52.6327C55.8878 52.8913 55.9437 53.1459 56.0353 53.3885C56.085 53.5372 56.1841 53.6645 56.3163 53.7494C56.438 53.814 56.5743 53.8462 56.7122 53.8428C56.8315 53.8435 56.9499 53.8219 57.0612 53.7791C57.1792 53.7271 57.2765 53.6375 57.3379 53.5244C57.4295 53.3576 57.4928 53.1768 57.5252 52.9894C57.5748 52.6891 57.5976 52.385 57.5934 52.0807H58.9981C58.9992 52.4405 58.9707 52.7998 58.913 53.155C58.8617 53.4663 58.7504 53.7648 58.5852 54.0339C58.4172 54.2891 58.1834 54.4944 57.9084 54.6283C57.5484 54.7807 57.1578 54.8475 56.7675 54.8236Z" fill="#849FA4"/>
<path d="M60.8413 48.9092H59.3174V47.7585H63.7744V48.9092H62.2504V54.7177H60.8413V48.9092Z" fill="#849FA4"/>
<path d="M65.2005 47.7585H66.9373L68.8018 54.7177H67.3375L67.0139 53.2486H65.1409L64.8174 54.7177H63.353L65.2005 47.7585ZM66.7543 52.0979L66.0817 48.9686H66.0604L65.3963 52.0979H66.7543Z" fill="#849FA4"/>
</g>
<defs>
<clipPath id="clip0_1_2348">
<rect width="92" height="81" fill="white" transform="translate(0.5)"/>
</clipPath>
</defs>
</svg>
