<svg width="89" height="88" viewBox="0 0 89 88" fill="none" xmlns="http://www.w3.org/2000/svg">
<g clip-path="url(#clip0_1_2377)">
<path d="M44.5024 84.3453C66.7833 84.3453 84.8456 66.283 84.8456 44.0021C84.8456 21.7212 66.7833 3.65894 44.5024 3.65894C22.2214 3.65894 4.15918 21.7212 4.15918 44.0021C4.15918 66.283 22.2214 84.3453 44.5024 84.3453Z" fill="#F7EEDC"/>
<path d="M44.5022 7.31362C51.7594 7.30937 58.8549 9.4575 64.8911 13.4863C70.9273 17.5151 75.6331 23.2436 78.4133 29.9472C81.1934 36.6507 81.9231 44.0282 80.5098 51.1465C79.0966 58.2648 75.6041 64.8041 70.474 69.9372C65.3439 75.0704 58.8066 78.5668 51.6892 79.9841C44.5717 81.4015 37.1938 80.6762 30.4886 77.9C23.7834 75.1237 18.0521 70.4213 14.0198 64.3874C9.98744 58.3536 7.83515 51.2594 7.83515 44.0022C7.84653 34.2752 11.7156 24.95 18.5935 18.072C25.4715 11.194 34.7968 7.325 44.5237 7.31362M44.5237 0.00429724C35.8198 4.48404e-05 27.3101 2.57722 20.0711 7.40984C12.832 12.2425 7.18884 19.1134 3.85525 27.1536C0.521657 35.1939 -0.352549 44.0421 1.3432 52.5792C3.03896 61.1164 7.22849 68.9588 13.3819 75.1146C19.5353 81.2704 27.3761 85.463 35.9125 87.1621C44.449 88.8612 53.2976 87.9904 61.3391 84.66C69.3806 81.3295 76.2538 75.689 81.0892 68.4518C85.9247 61.2147 88.5052 52.7061 88.5043 44.0022C88.5043 32.3321 83.8684 21.1399 75.6164 12.8879C67.3644 4.63593 56.1723 0 44.5022 0L44.5237 0.00429724Z" fill="#A04830"/>
<path d="M21.5337 27.6853H24.0232C24.3367 27.6758 24.6484 27.7376 24.9347 27.8659C25.1678 27.9772 25.3722 28.1404 25.5323 28.3431C25.6846 28.5454 25.7943 28.7765 25.8548 29.0224C25.9223 29.2748 25.9556 29.5351 25.9537 29.7964C25.9626 30.1208 25.907 30.4438 25.7903 30.7466C25.6935 30.9982 25.5388 31.2236 25.3388 31.4044C25.1339 31.5809 24.8934 31.7114 24.6337 31.7871C24.3353 31.8762 24.025 31.9197 23.7136 31.9161H22.9569V34.728H21.5337V27.6853ZM23.5889 30.8713C23.7144 30.8765 23.8396 30.8563 23.957 30.812C24.0745 30.7677 24.1818 30.7001 24.2726 30.6133C24.3678 30.5045 24.4401 30.3776 24.4852 30.2402C24.5303 30.1028 24.5471 29.9577 24.5348 29.8136C24.5539 29.526 24.4734 29.2405 24.3069 29.0052C24.2091 28.9049 24.0898 28.8281 23.958 28.7804C23.8262 28.7328 23.6853 28.7155 23.5459 28.7301H22.9569V30.8799L23.5889 30.8713Z" fill="#A04830"/>
<path d="M27.6133 27.6851H29.3718L31.2379 34.7278H29.7631L29.4363 33.2402H27.5617L27.2349 34.7278H25.7559L27.6133 27.6851ZM29.1826 32.075L28.5033 28.9061H28.4818L27.8025 32.075H29.1826Z" fill="#A04830"/>
<path d="M33.7229 34.8397C33.3674 34.8474 33.0127 34.804 32.6695 34.7107C32.4077 34.6375 32.1683 34.5 31.973 34.3109C31.7887 34.118 31.657 33.8812 31.5903 33.6229C31.5039 33.305 31.4634 32.9763 31.4699 32.6469V32.5566H32.8931V32.6254C32.8918 32.7764 32.9018 32.9274 32.9232 33.0769C32.9385 33.2102 32.981 33.3389 33.0479 33.4552C33.1127 33.5653 33.2044 33.657 33.3145 33.7218C33.4544 33.7961 33.6121 33.8303 33.7702 33.8207C33.8939 33.8305 34.0182 33.8119 34.1337 33.7665C34.2492 33.721 34.3528 33.6499 34.4366 33.5584C34.6048 33.3143 34.6838 33.0198 34.6602 32.7243C34.6914 32.4175 34.6054 32.1103 34.4194 31.8644C34.3156 31.7713 34.1936 31.7007 34.0612 31.657C33.9287 31.6134 33.7887 31.5976 33.6498 31.6107H33.4434C33.3618 31.6055 33.28 31.6055 33.1984 31.6107V30.5057H33.3316H33.4649C33.7642 30.5339 34.0624 30.4427 34.2948 30.252C34.4834 30.0073 34.5711 29.6995 34.5398 29.3921C34.5622 29.1581 34.4911 28.9247 34.3421 28.7429C34.2693 28.6761 34.1838 28.6245 34.0908 28.5913C33.9977 28.5581 33.899 28.5438 33.8003 28.5494C33.6057 28.5434 33.4135 28.5926 33.2457 28.6913C33.1684 28.7436 33.1036 28.8123 33.056 28.8926C33.0084 28.9729 32.9792 29.0627 32.9705 29.1556C32.9705 29.2244 32.9705 29.2889 32.9447 29.3405C32.9189 29.3921 32.9447 29.4652 32.9447 29.5555H31.5559V29.4953C31.5359 29.2185 31.5775 28.9407 31.6779 28.6819C31.7783 28.4232 31.9349 28.1899 32.1364 27.999C32.6218 27.6359 33.2213 27.4589 33.8261 27.5003C34.3936 27.472 34.9519 27.6525 35.3955 28.0076C35.5832 28.1818 35.7296 28.3958 35.8241 28.6338C35.9186 28.8718 35.9587 29.128 35.9415 29.3835C35.9415 29.5561 35.9199 29.728 35.877 29.8952C35.837 30.0625 35.7702 30.2222 35.6792 30.3681C35.5915 30.5136 35.4796 30.6431 35.3482 30.7508C35.2156 30.859 35.0618 30.9381 34.8967 30.983C35.2507 31.0502 35.571 31.2369 35.8039 31.5118C36.0376 31.8328 36.1531 32.2247 36.1307 32.6211C36.1558 32.927 36.1124 33.2346 36.0039 33.5217C35.8953 33.8087 35.7242 34.068 35.5029 34.2808C34.9974 34.6775 34.3645 34.8763 33.7229 34.8397Z" fill="#A04830"/>
<path d="M37.0166 27.6851H39.3943C39.6648 27.6814 39.9347 27.7103 40.1983 27.7711C40.4293 27.823 40.6464 27.9242 40.8347 28.0678C41.0248 28.2111 41.1732 28.4026 41.2646 28.6224C41.3716 28.8961 41.4214 29.1888 41.4108 29.4824C41.4203 29.8282 41.3276 30.1692 41.1442 30.4627C40.9585 30.744 40.6725 30.9439 40.3445 31.0216C40.5262 31.0393 40.7027 31.0929 40.8636 31.1792C41.0245 31.2656 41.1666 31.383 41.2818 31.5247C41.529 31.8497 41.6524 32.2521 41.6301 32.6598C41.6306 32.9261 41.593 33.191 41.5183 33.4466C41.4505 33.6928 41.3236 33.9186 41.1485 34.1044C40.9563 34.2957 40.7244 34.4425 40.4692 34.5344C40.136 34.6552 39.783 34.7121 39.4287 34.7021H37.0295L37.0166 27.6851ZM38.8439 30.5745C39.1459 30.5999 39.4479 30.526 39.7039 30.3638C39.8023 30.2737 39.8784 30.1619 39.9262 30.0372C39.9739 29.9126 39.992 29.7786 39.979 29.6458C39.9939 29.5163 39.9792 29.3852 39.936 29.2623C39.8928 29.1394 39.8222 29.028 39.7297 28.9363C39.5019 28.7796 39.2269 28.7067 38.9514 28.7299H38.4398V30.5874L38.8439 30.5745ZM38.9901 33.6831C39.2838 33.6966 39.5743 33.6168 39.82 33.4552C39.9359 33.3511 40.0251 33.2205 40.0797 33.0745C40.1344 32.9285 40.1529 32.7715 40.1338 32.6168C40.1398 32.444 40.112 32.2717 40.0521 32.1094C40.0028 31.9842 39.9247 31.8722 39.8243 31.7827C39.7261 31.6995 39.6097 31.6406 39.4846 31.6107C39.3438 31.5769 39.1993 31.561 39.0546 31.5634H38.4441V33.6831H38.9901Z" fill="#A04830"/>
<path d="M42.5029 27.6851H43.8659V32.2039L45.5857 27.6851H47.1121V34.7278H45.7534V30.2175L44.0336 34.7278H42.5029V27.6851Z" fill="#A04830"/>
<path d="M48.0967 27.685H50.4787C50.7491 27.682 51.019 27.7109 51.2827 27.771C51.5129 27.8251 51.7296 27.9261 51.919 28.0677C52.1083 28.2119 52.2565 28.4031 52.349 28.6223C52.456 28.896 52.5057 29.1886 52.4952 29.4823C52.507 29.8284 52.4141 30.1701 52.2286 30.4626C52.0436 30.7427 51.7594 30.9424 51.4332 31.0215C51.7996 31.0595 52.1363 31.2402 52.3705 31.5246C52.6141 31.8512 52.7358 32.2528 52.7145 32.6597C52.7164 32.9257 52.6802 33.1907 52.607 33.4465C52.5357 33.6912 52.4092 33.9163 52.2372 34.1043C52.0426 34.2948 51.8095 34.4414 51.5536 34.5343C51.2204 34.6555 50.8674 34.7124 50.5131 34.702H48.1139L48.0967 27.685ZM49.924 30.5744C50.2259 30.5989 50.5276 30.525 50.7839 30.3637C50.8816 30.2732 50.9569 30.1612 51.0039 30.0366C51.0509 29.912 51.0683 29.7781 51.0548 29.6457C51.0684 29.5167 51.0535 29.3863 51.0111 29.2637C50.9688 29.1411 50.9 29.0293 50.8097 28.9362C50.5801 28.7802 50.3039 28.7073 50.0272 28.7298H49.5413V30.5873L49.924 30.5744ZM50.0702 33.683C50.3639 33.6965 50.6544 33.6167 50.9 33.4551C51.0168 33.3514 51.1067 33.221 51.1621 33.075C51.2175 32.929 51.2368 32.7717 51.2182 32.6167C51.2229 32.4436 51.1937 32.2712 51.1322 32.1093C51.086 31.9859 51.01 31.8757 50.911 31.7887C50.812 31.7017 50.693 31.6405 50.5646 31.6106C50.4239 31.5768 50.2794 31.5609 50.1347 31.5633H49.5413V33.683H50.0702Z" fill="#A04830"/>
<path d="M54.8599 27.6851H56.6141L58.4801 34.7278H57.0011L56.6743 33.2402H54.7997L54.4729 34.7278H52.981L54.8599 27.6851ZM56.4206 32.075L55.737 28.9061L55.0534 32.075H56.4206Z" fill="#A04830"/>
<path d="M58.9746 27.6851H62.9088V28.8674H60.3935V30.5271H62.7626V31.6923H60.3935V33.5841H63.0076V34.7493H58.9746V27.6851Z" fill="#A04830"/>
<path d="M64.882 28.8674H63.3428V27.7065H67.8445V28.8674H66.3095V34.7493H64.8863L64.882 28.8674Z" fill="#A04830"/>
<path d="M36.8445 46.6809C36.3994 46.703 35.9558 46.6128 35.5546 46.4186C35.245 46.2488 34.9923 45.9916 34.828 45.6791C34.6492 45.3201 34.5398 44.9306 34.5055 44.5311C34.4025 43.5477 34.4025 42.5563 34.5055 41.5729C34.5393 41.1692 34.6487 40.7754 34.828 40.412C34.9917 40.0958 35.2443 39.8343 35.5546 39.6596C35.9535 39.458 36.3983 39.3646 36.8445 39.3887C37.2586 39.3684 37.6712 39.4527 38.0441 39.6338C38.3168 39.7788 38.5443 39.996 38.7019 40.2616C38.8437 40.514 38.9357 40.7913 38.9728 41.0785C39.0061 41.3524 39.0233 41.6281 39.0244 41.904H37.6055C37.6302 41.5207 37.567 41.1369 37.4207 40.7818C37.3558 40.665 37.2581 40.5697 37.1396 40.5078C37.0212 40.4459 36.8872 40.4201 36.7542 40.4335C36.5988 40.4296 36.4468 40.4797 36.3243 40.5754C36.19 40.7 36.0957 40.8616 36.0534 41.0398C35.9782 41.3136 35.932 41.5947 35.9158 41.8782C35.89 42.2222 35.8771 42.6478 35.8771 43.1466C35.8771 43.6453 35.8771 44.1097 35.9287 44.4365C35.9526 44.6975 36.009 44.9546 36.0964 45.2018C36.1479 45.3518 36.2497 45.4794 36.3844 45.563C36.5074 45.6284 36.6451 45.661 36.7843 45.6575C36.9035 45.6586 37.0217 45.6367 37.1326 45.5931C37.2526 45.5422 37.3524 45.453 37.4164 45.3394C37.5097 45.1697 37.5723 44.9848 37.6012 44.7933C37.6554 44.4897 37.6799 44.1816 37.6743 43.8732H39.0932C39.0952 44.2378 39.065 44.6018 39.0029 44.961C38.9545 45.2765 38.8434 45.5792 38.6761 45.851C38.5065 46.1095 38.2703 46.3174 37.9925 46.453C37.6327 46.6171 37.2397 46.6951 36.8445 46.6809Z" fill="#A04830"/>
<path d="M39.8931 39.5264H43.8315V40.6916H41.3162V42.3469H43.6853V43.5121H41.3162V45.4082H43.9519V46.5691H39.9146L39.8931 39.5264Z" fill="#A04830"/>
<path d="M44.6396 39.5264H48.7544V40.6916H46.0628V42.2394H46.9227C47.2428 42.2348 47.5621 42.2709 47.873 42.3469C48.133 42.4083 48.3747 42.5306 48.5781 42.7038C48.7749 42.8813 48.9229 43.1063 49.0081 43.3573C49.2173 44.0161 49.2173 44.7236 49.0081 45.3824C48.9153 45.6468 48.7552 45.8824 48.5437 46.0661C48.33 46.2499 48.077 46.3822 47.8042 46.453C47.4781 46.5349 47.1428 46.5739 46.8067 46.5691H44.6396V39.5264ZM46.5659 45.4856C46.7407 45.4886 46.9153 45.4713 47.0861 45.434C47.2211 45.4109 47.3467 45.3496 47.4481 45.2574C47.5494 45.1652 47.6222 45.046 47.658 44.9138C47.7096 44.7306 47.7328 44.5407 47.7268 44.3505C47.7463 44.2027 47.7312 44.0523 47.6827 43.9113C47.6342 43.7703 47.5536 43.6425 47.4473 43.5379C47.1918 43.3742 46.8898 43.2987 46.5874 43.3229H46.0456V45.4727L46.5659 45.4856Z" fill="#A04830"/>
<path d="M51.085 43.6882C50.7145 43.5635 50.3975 43.3163 50.1863 42.9874C49.953 42.5989 49.8393 42.1502 49.8596 41.6975C49.851 41.3636 49.905 41.0312 50.0187 40.7172C50.1054 40.462 50.253 40.2318 50.4486 40.0464C50.6511 39.8655 50.8923 39.7331 51.1538 39.6595C51.4532 39.5757 51.763 39.5352 52.0739 39.5391H54.3914V46.5818H52.9811V43.8688H52.4694L51.128 46.5818H49.5586L51.085 43.6882ZM53.0069 42.8283V40.5882H52.4436C52.1361 40.5632 51.8302 40.6519 51.5837 40.8376C51.4083 41.0956 51.3145 41.4005 51.3145 41.7125C51.3145 42.0246 51.4083 42.3294 51.5837 42.5875C51.8199 42.7666 52.1138 42.8524 52.4092 42.8283H53.0069Z" fill="#A04830"/>
<path d="M25.1968 51.3674H26.5555V55.8863L28.2753 51.3674H29.806V58.4145H28.4731V53.9042L26.7532 58.4145H25.2269L25.1968 51.3674Z" fill="#A04830"/>
<path d="M32.6655 57.245H33.2288C33.3972 56.9312 33.534 56.6014 33.6372 56.2604C33.7324 55.9398 33.8014 55.6119 33.8436 55.2801C33.8866 54.9448 33.9124 54.5965 33.9253 54.2396C33.9382 53.8828 33.9253 53.4958 33.9253 53.0787V51.3589H38.0013V57.245H38.6635V59.8248H37.3478V58.436H33.9769V59.8248H32.6655V57.245ZM36.6212 57.245V52.5155H35.2926V53.6592C35.2926 53.9344 35.2926 54.231 35.2668 54.5449C35.241 54.8588 35.2195 55.1769 35.1808 55.4951C35.1424 55.8045 35.0879 56.1116 35.0174 56.4152C34.9553 56.6945 34.869 56.9678 34.7594 57.2321L36.6212 57.245Z" fill="#A04830"/>
<path d="M39.2651 51.3675H41.7546C42.0682 51.3576 42.38 51.4194 42.6661 51.5481C42.8991 51.6615 43.1034 51.8261 43.2638 52.0296C43.4157 52.2312 43.5267 52.4605 43.5905 52.7047C43.6556 52.9575 43.6889 53.2175 43.6894 53.4786C43.6957 53.8042 43.6403 54.1281 43.526 54.4331C43.4332 54.6838 43.2848 54.9102 43.0918 55.0952C42.887 55.2731 42.6466 55.405 42.3866 55.4822C42.0894 55.5698 41.7806 55.6119 41.4708 55.6069H40.7098V58.4231H39.2651V51.3675ZM41.3203 54.5535C41.4455 54.559 41.5704 54.5394 41.6878 54.4959C41.8053 54.4523 41.9127 54.3856 42.004 54.2998C42.0992 54.191 42.1716 54.0641 42.2166 53.9267C42.2617 53.7893 42.2786 53.6442 42.2663 53.5001C42.2856 53.2111 42.2052 52.9242 42.0384 52.6875C41.9406 52.5882 41.822 52.5121 41.6911 52.4645C41.5602 52.4169 41.4203 52.3991 41.2816 52.4123H40.6883V54.5621L41.3203 54.5535Z" fill="#A04830"/>
<path d="M45.2071 58.4531H44.9363H44.7858C44.7128 58.4578 44.6395 58.4578 44.5665 58.4531V57.3738C44.7088 57.3955 44.8526 57.4055 44.9965 57.4039C45.0881 57.4133 45.1807 57.4023 45.2676 57.3719C45.3546 57.3414 45.4337 57.2922 45.4995 57.2277C45.625 57.0772 45.7252 56.9073 45.7962 56.7246L45.865 56.5655L43.9302 51.406H45.5081L46.5486 54.8672L47.5418 51.406H49.0252L47.3355 56.4795C47.2368 56.7954 47.1205 57.1054 46.9872 57.4082C46.8886 57.6364 46.7535 57.8469 46.5873 58.0317C46.4355 58.1936 46.2445 58.3135 46.0327 58.38C45.7634 58.4493 45.4845 58.4739 45.2071 58.4531Z" fill="#A04830"/>
<path d="M49.5415 51.3674H53.3037V52.5154H50.9647V58.3973H49.5415V51.3674Z" fill="#A04830"/>
<path d="M53.9009 51.3674H55.2638V55.8863L56.9837 51.3674H58.5143V58.4145H57.1514V53.9042L55.4315 58.4145H53.9009V51.3674Z" fill="#A04830"/>
<path d="M60.8191 54.8501L59.1981 51.3674H60.7675L61.6747 53.6462L62.5733 51.3674H64.1255L62.4873 54.8501L64.2416 58.4145H62.6421L61.6274 56.0239L60.6213 58.4145H59.0605L60.8191 54.8501Z" fill="#A04830"/>
</g>
<defs>
<clipPath id="clip0_1_2377">
<rect width="88" height="88" fill="white" transform="translate(0.5)"/>
</clipPath>
</defs>
</svg>
