<svg width="87" height="86" viewBox="0 0 87 86" fill="none" xmlns="http://www.w3.org/2000/svg">
<g clip-path="url(#clip0_1_2276)">
<path d="M71.3775 70.8769C86.7744 55.48 86.7744 30.5166 71.3775 15.1197C55.9806 -0.27724 31.0172 -0.277245 15.6203 15.1197C0.223381 30.5166 0.223376 55.48 15.6203 70.8769C31.0172 86.2738 55.9806 86.2738 71.3775 70.8769Z" fill="#F7EEDC"/>
<path d="M43.5021 7.1432C50.5935 7.1432 57.5256 9.24605 63.4219 13.1858C69.3182 17.1256 73.9138 22.7253 76.6275 29.2769C79.3413 35.8285 80.0513 43.0377 78.6679 49.9928C77.2844 56.9479 73.8696 63.3366 68.8552 68.351C63.8408 73.3653 57.4522 76.7802 50.497 78.1636C43.5419 79.5471 36.3327 78.8371 29.7811 76.1233C23.2295 73.4095 17.6298 68.814 13.69 62.9177C9.75026 57.0214 7.64742 50.0893 7.64742 42.9979C7.65854 33.4921 11.4397 24.3787 18.1613 17.6571C24.883 10.9354 33.9963 7.15433 43.5021 7.1432ZM43.5021 2.05329e-07C34.9969 2.45933e-07 26.6827 2.52213 19.611 7.24745C12.5392 11.9728 7.02756 18.689 3.77296 26.5469C0.518356 34.4047 -0.332987 43.0512 1.3266 51.3929C2.98619 59.7346 7.08215 67.3969 13.0965 73.4107C19.1109 79.4244 26.7735 83.5197 35.1154 85.1784C43.4573 86.8372 52.1037 85.985 59.9612 82.7296C67.8187 79.4743 74.5345 73.9619 79.2591 66.8897C83.9837 59.8175 86.505 51.5031 86.5042 42.9979C86.5042 37.351 85.3919 31.7594 83.2308 26.5423C81.0697 21.3253 77.9021 16.5851 73.9089 12.5923C69.9158 8.59953 65.1752 5.43241 59.958 3.27181C54.7408 1.11121 49.149 -0.000551629 43.5021 2.05329e-07Z" fill="#8C7454"/>
<path d="M21.127 32.8H21.6774C21.8483 32.4951 21.989 32.1742 22.0976 31.842C22.1901 31.527 22.2576 31.2053 22.2993 30.8797C22.3421 30.5423 22.3674 30.2029 22.3749 29.8629C22.3749 29.5141 22.3749 29.1359 22.3749 28.7284V27.0476H26.3541V32.7958H27.0012V35.2917H25.7196V33.9345H22.4127V35.2917H21.127V32.8ZM24.9969 32.8V28.1779H23.6943V29.2956C23.6943 29.5757 23.6859 29.8657 23.6691 30.1654C23.6691 30.4721 23.6271 30.7831 23.5893 31.0898C23.5514 31.3935 23.4981 31.695 23.4296 31.9932C23.3669 32.2648 23.2812 32.5304 23.1733 32.7874L24.9969 32.8Z" fill="#8C7454"/>
<path d="M29.7789 34.0437C29.3438 34.067 28.9099 33.9787 28.5184 33.7874C28.2149 33.6227 27.9676 33.371 27.8082 33.0646C27.6336 32.7153 27.5266 32.3361 27.4931 31.9469C27.3923 30.9845 27.3923 30.0142 27.4931 29.0518C27.5267 28.6587 27.6336 28.2753 27.8082 27.9215C27.9769 27.6125 28.2326 27.3597 28.5436 27.1946C28.935 27.0201 29.3588 26.9299 29.7873 26.9299C30.2159 26.9299 30.6397 27.0201 31.0311 27.1946C31.3355 27.3658 31.5825 27.6231 31.7412 27.9341C31.9155 28.2884 32.0237 28.6714 32.0606 29.0644C32.1558 30.0271 32.1558 30.9969 32.0606 31.9595C32.0238 32.3486 31.9155 32.7275 31.7412 33.0772C31.5832 33.3845 31.3355 33.6365 31.0311 33.8C30.6411 33.986 30.2102 34.0698 29.7789 34.0437ZM29.7789 33.052C29.9556 33.0619 30.1304 33.0115 30.2748 32.9092C30.4114 32.8014 30.5125 32.655 30.5647 32.489C30.6422 32.2323 30.6874 31.9669 30.6991 31.699C30.7244 31.3713 30.7328 30.9805 30.7328 30.5141C30.7328 30.0477 30.7328 29.6737 30.6991 29.3418C30.687 29.0725 30.6418 28.8058 30.5647 28.5476C30.5188 28.3717 30.417 28.2154 30.2748 28.1022C30.1304 27.9998 29.9556 27.9495 29.7789 27.9593C29.6023 27.9501 29.4277 28.0004 29.2831 28.1022C29.1408 28.2154 29.0391 28.3717 28.9932 28.5476C28.916 28.8058 28.8709 29.0725 28.8587 29.3418C28.8377 29.6611 28.8251 30.0519 28.8251 30.5141C28.8251 30.9763 28.8251 31.3545 28.8587 31.699C28.8705 31.9669 28.9156 32.2323 28.9932 32.489C29.0454 32.655 29.1464 32.8014 29.2831 32.9092C29.4277 33.0109 29.6023 33.0612 29.7789 33.052Z" fill="#8C7454"/>
<path d="M35.1403 34.0438C34.7051 34.0671 34.2712 33.9788 33.8797 33.7875C33.5762 33.6228 33.3289 33.3711 33.1696 33.0647C32.9949 32.7154 32.888 32.3362 32.8544 31.947C32.7536 30.9846 32.7536 30.0143 32.8544 29.0519C32.888 28.6588 32.9949 28.2754 33.1696 27.9216C33.3295 27.6114 33.5762 27.3545 33.8797 27.1821C34.2699 26.9862 34.7042 26.895 35.1403 26.9174C35.545 26.8975 35.9481 26.9799 36.3126 27.1569C36.578 27.3 36.8001 27.5119 36.9555 27.7704C37.094 28.0186 37.1839 28.291 37.2202 28.5729C37.2526 28.8392 37.2694 29.1072 37.2706 29.3755H35.884C35.9082 29.0023 35.8464 28.6285 35.7033 28.283C35.6421 28.1676 35.5477 28.0732 35.4324 28.0118C35.3171 27.9504 35.1861 27.9249 35.0562 27.9384C34.9036 27.9343 34.7545 27.985 34.636 28.0813C34.5086 28.2043 34.4171 28.3598 34.3713 28.5309C34.2963 28.8054 34.2512 29.0871 34.2368 29.3713C34.2116 29.7074 34.199 30.1192 34.199 30.6066C34.1938 31.0275 34.2121 31.4484 34.2537 31.8672C34.2719 32.1231 34.3271 32.375 34.4175 32.6151C34.4663 32.7625 34.5642 32.8886 34.6949 32.9723C34.8157 33.0342 34.9498 33.066 35.0856 33.0647C35.2034 33.0654 35.3203 33.044 35.4302 33.0017C35.5466 32.9502 35.6427 32.8615 35.7033 32.7496C35.7937 32.5845 35.8562 32.4056 35.8882 32.2202C35.9373 31.9216 35.9598 31.6193 35.9554 31.3168H37.342C37.3432 31.6742 37.3151 32.0312 37.258 32.384C37.2082 32.6911 37.0983 32.9852 36.9345 33.2496C36.7687 33.5022 36.5379 33.7054 36.2664 33.8379C35.9127 33.9951 35.5267 34.0657 35.1403 34.0438Z" fill="#8C7454"/>
<path d="M39.1615 28.1905H37.6572V27.0518H42.0566V28.1905H40.5523V33.9386H39.1615V28.1905Z" fill="#8C7454"/>
<path d="M42.6533 27.0518H43.9853V31.4679L45.6661 27.0518H47.1619V33.9386H45.83V29.5309L44.1492 33.9386H42.6533V27.0518Z" fill="#8C7454"/>
<path d="M48.1621 27.0518H51.8346V28.1905H49.5529V33.9386H48.1663L48.1621 27.0518Z" fill="#8C7454"/>
<path d="M53.0696 27.0518H54.784L56.6076 33.9386H55.1622L54.8428 32.4806H53.0108L52.6915 33.9386H51.2334L53.0696 27.0518ZM54.5949 31.3419L53.9268 28.2493L53.2587 31.3419H54.5949Z" fill="#8C7454"/>
<path d="M57.0908 27.0518H60.9397V28.1905H58.4774V29.8124H60.7927V30.9469H58.4774V32.7999H61.0364V33.9386H57.0908V27.0518Z" fill="#8C7454"/>
<path d="M62.8685 28.1905H61.3643V27.0518H65.7594V28.1905H64.2594V33.9386H62.8727L62.8685 28.1905Z" fill="#8C7454"/>
<path d="M13.6099 38.6236H15.9377C16.2022 38.6217 16.466 38.6514 16.7235 38.7119C16.9485 38.7647 17.1602 38.8634 17.3453 39.0018C17.5292 39.1421 17.6739 39.3273 17.7655 39.5396C17.8694 39.8072 17.918 40.0931 17.9084 40.38C17.9185 40.7175 17.8293 41.0506 17.6521 41.338C17.4676 41.61 17.1894 41.8045 16.8705 41.8843C17.2281 41.9232 17.5565 42.0994 17.7865 42.3759C18.0237 42.6956 18.1425 43.0877 18.1227 43.4852C18.1249 43.7466 18.0895 44.007 18.0177 44.2583C17.949 44.4967 17.8252 44.7155 17.6563 44.897C17.467 45.0843 17.2389 45.2277 16.9882 45.3172C16.6626 45.4356 16.3176 45.4913 15.9713 45.4811H13.6267L13.6099 38.6236ZM15.3957 41.4515C15.6911 41.4742 15.986 41.4005 16.236 41.2414C16.3309 41.1534 16.4041 41.0446 16.45 40.9236C16.496 40.8026 16.5133 40.6727 16.5008 40.5439C16.514 40.4178 16.4995 40.2904 16.4581 40.1706C16.4167 40.0508 16.3495 39.9415 16.2613 39.8506C16.0368 39.6981 15.767 39.6269 15.4965 39.6489H14.9965V41.4515H15.3957ZM15.5385 44.4895C15.8256 44.5027 16.1095 44.4247 16.3495 44.2668C16.4636 44.1654 16.5515 44.038 16.6056 43.8953C16.6598 43.7526 16.6786 43.5989 16.6604 43.4474C16.6654 43.2782 16.6369 43.1097 16.5764 42.9516C16.5303 42.828 16.4537 42.7182 16.3537 42.6322C16.2588 42.5494 16.1447 42.4917 16.0218 42.4641C15.8844 42.4294 15.7432 42.4125 15.6016 42.4137H15.0049V44.4895H15.5385Z" fill="#8C7454"/>
<path d="M18.9756 38.6238H20.3622V41.2289H21.0933C21.4104 41.225 21.7268 41.2618 22.0346 41.3382C22.2889 41.4042 22.5247 41.5279 22.7237 41.6996C22.9166 41.8792 23.0612 42.1047 23.1438 42.3551C23.252 42.6727 23.3032 43.007 23.2951 43.3425C23.3028 43.6821 23.2516 44.0204 23.1438 44.3425C23.0622 44.5995 22.9178 44.832 22.7237 45.0191C22.5254 45.1969 22.2878 45.325 22.0304 45.393C21.7265 45.4761 21.4125 45.5157 21.0975 45.5107H18.9966L18.9756 38.6238ZM20.7488 44.4602C21.0623 44.4908 21.3761 44.4056 21.6312 44.2207C21.7297 44.1001 21.8032 43.9611 21.8472 43.8117C21.8912 43.6623 21.9049 43.5056 21.8875 43.3509C21.8928 43.1728 21.8672 42.9951 21.8119 42.8257C21.7745 42.6996 21.7033 42.5863 21.606 42.4979C21.509 42.4134 21.3917 42.3555 21.2656 42.3298C21.1085 42.2942 20.9477 42.2773 20.7866 42.2794H20.3664V44.4602H20.7488ZM23.8708 38.6238H25.2616V45.5107H23.8708V38.6238Z" fill="#8C7454"/>
<path d="M25.7451 44.372H26.2956C26.4666 44.0671 26.6073 43.7462 26.7158 43.4139C26.8087 43.0991 26.8762 42.7773 26.9174 42.4517C26.9603 42.1143 26.9855 41.7749 26.9931 41.4348C26.9931 41.0861 26.9931 40.7079 26.9931 40.3045V38.6238H30.9765V44.372H31.6194V46.8931H30.3378V45.5317H27.0309V46.8931H25.7493L25.7451 44.372ZM29.6109 44.372V39.7499H28.3083V40.8676C28.3083 41.1407 28.3083 41.4264 28.2831 41.7374C28.2578 42.0483 28.241 42.3551 28.2032 42.6618C28.1657 42.9655 28.1124 43.267 28.0435 43.5652C27.9828 43.8373 27.897 44.1031 27.7872 44.3594L29.6109 44.372Z" fill="#8C7454"/>
<path d="M33.5351 38.6238H35.2663L37.0857 45.5107H35.6403L35.3209 44.0526H33.4889L33.1738 45.5107H31.7241L33.5351 38.6238ZM35.0688 42.9181L34.4259 39.8213H34.4049L33.741 42.9181H35.0688Z" fill="#8C7454"/>
<path d="M42.0695 45.6156C41.6626 45.6331 41.2573 45.5569 40.8845 45.3929C40.5937 45.2548 40.3487 45.036 40.1786 44.7626C40.0027 44.4596 39.8858 44.126 39.8341 43.7794C39.766 43.3542 39.7309 42.9243 39.729 42.4936H38.9475V45.5106H37.5566V38.6237H38.9475V41.2961H39.7374C39.7513 40.9117 39.7991 40.5292 39.8803 40.1532C39.9469 39.8364 40.0738 39.5354 40.2542 39.2666C40.4272 39.0138 40.6673 38.8144 40.9476 38.6909C41.303 38.5448 41.6854 38.476 42.0695 38.4892C42.5056 38.4657 42.9402 38.5569 43.33 38.7539C43.6344 38.9252 43.8814 39.1824 44.0401 39.4935C44.2144 39.8477 44.3226 40.2307 44.3595 40.6238C44.4084 41.104 44.4322 41.5865 44.4309 42.0692C44.4327 42.5534 44.4089 43.0373 44.3595 43.5189C44.3227 43.9079 44.2144 44.2868 44.0401 44.6366C43.8821 44.9439 43.6345 45.1959 43.33 45.3593C42.9386 45.551 42.5046 45.6393 42.0695 45.6156ZM42.0695 44.624C42.2466 44.6317 42.4216 44.5831 42.5695 44.4853C42.7063 44.368 42.8056 44.2132 42.8552 44.0399C42.9328 43.7832 42.9779 43.5179 42.9897 43.25C43.0149 42.9264 43.0233 42.5314 43.0233 42.0692C43.0233 41.607 43.0233 41.2289 42.9897 40.8927C42.9775 40.6235 42.9323 40.3568 42.8552 40.0986C42.8078 39.9244 42.7081 39.7689 42.5695 39.6532C42.4221 39.5539 42.247 39.5038 42.0695 39.5103C41.8931 39.503 41.7191 39.5531 41.5736 39.6532C41.4314 39.7663 41.3296 39.9226 41.2837 40.0986C41.2066 40.3568 41.1614 40.6235 41.1492 40.8927C41.1282 41.2121 41.1156 41.6028 41.1156 42.0692C41.1156 42.5356 41.1156 42.9096 41.1492 43.25C41.161 43.5179 41.2062 43.7832 41.2837 44.0399C41.3333 44.2142 41.4343 44.3695 41.5736 44.4853C41.7196 44.5839 41.8935 44.6325 42.0695 44.624Z" fill="#8C7454"/>
<path d="M51.6539 45.5107H45.2334V38.6238H46.6116V44.372H48.0571V38.6238H49.4437V44.372H50.8933V38.6238H52.28V44.372H52.9271V46.8931H51.6539V45.5107Z" fill="#8C7454"/>
<path d="M53.5195 38.6238H54.8473V43.04L56.5281 38.6238H58.024V45.5107H56.6962V41.1029L55.0154 45.5107H53.5237L53.5195 38.6238Z" fill="#8C7454"/>
<path d="M60.2759 42.0273L58.696 38.6238H60.2297L61.1163 40.8508L61.9945 38.6238H63.5071L61.9062 42.0273L63.6248 45.5107H62.0617L61.0701 43.1618L60.0868 45.4939H58.5615L60.2759 42.0273Z" fill="#8C7454"/>
<path d="M66.1711 45.6156C65.7359 45.6393 65.3019 45.551 64.9106 45.3593C64.6061 45.1959 64.3585 44.9439 64.2004 44.6366C64.0261 44.2868 63.9179 43.9079 63.8811 43.5189C63.8317 43.0373 63.8079 42.5534 63.8097 42.0692C63.8084 41.5865 63.8322 41.104 63.8811 40.6238C63.918 40.2307 64.0262 39.8477 64.2004 39.4935C64.3592 39.1824 64.6062 38.9252 64.9106 38.7539C65.3003 38.5569 65.735 38.4657 66.1711 38.4892C66.5758 38.4699 66.9788 38.5522 67.3435 38.7287C67.6086 38.8707 67.8296 39.083 67.9821 39.3422C68.1238 39.589 68.2139 39.8621 68.2469 40.1448C68.2826 40.4108 68.3009 40.6789 68.3015 40.9473H66.9107C66.9335 40.5746 66.8732 40.2014 66.7342 39.8548C66.671 39.7403 66.5756 39.6466 66.4599 39.5854C66.3442 39.5242 66.2132 39.4981 66.0829 39.5103C65.9305 39.508 65.7821 39.5584 65.6627 39.6532C65.5315 39.7749 65.4393 39.9328 65.398 40.107C65.3222 40.3812 65.2771 40.6631 65.2635 40.9473C65.2383 41.2835 65.2257 41.6953 65.2257 42.1869C65.2257 42.6785 65.2257 43.1281 65.2761 43.4475C65.2985 43.7027 65.3536 43.9541 65.44 44.1954C65.4916 44.3424 65.5906 44.4681 65.7215 44.5526C65.8413 44.6174 65.9762 44.6493 66.1123 44.645C66.2287 44.646 66.3443 44.6246 66.4527 44.582C66.5695 44.5294 66.6666 44.4411 66.73 44.3299C66.8188 44.1645 66.8798 43.9856 66.9107 43.8004C66.9618 43.5021 66.9844 43.1996 66.9779 42.897H68.3687C68.3707 43.2547 68.3411 43.6118 68.2805 43.9643C68.2318 44.2729 68.1217 44.5686 67.9569 44.8341C67.7923 45.0861 67.563 45.2892 67.293 45.4223C66.9387 45.5715 66.5549 45.6376 66.1711 45.6156Z" fill="#8C7454"/>
<path d="M70.1419 42.6954C69.7826 42.5684 69.4743 42.328 69.2637 42.0105C69.0398 41.6293 68.9304 41.1916 68.9485 40.7499C68.941 40.4227 68.9922 40.0968 69.0998 39.7877C69.1945 39.5382 69.3455 39.3139 69.541 39.1322C69.7403 38.9583 69.9756 38.8306 70.2301 38.7582C70.521 38.6746 70.8224 38.6336 71.1251 38.6364H73.3941V45.5233H72.0159V42.8719H71.5117L70.2007 45.5233H68.667L70.1419 42.6954ZM72.0243 41.855V39.6658H71.4739C71.1732 39.6398 70.8736 39.7267 70.6335 39.9095C70.5347 40.0244 70.4603 40.1581 70.4148 40.3025C70.3693 40.447 70.3536 40.5992 70.3688 40.7499C70.3514 40.9037 70.3655 41.0593 70.4103 41.2074C70.4551 41.3555 70.5296 41.493 70.6293 41.6113C70.8602 41.7896 71.1495 41.8751 71.4402 41.8508L72.0243 41.855Z" fill="#8C7454"/>
<path d="M17.1982 50.1958H19.6311C19.9379 50.1877 20.2425 50.2495 20.5219 50.3764C20.7497 50.4852 20.9495 50.6448 21.106 50.8429C21.254 51.0395 21.3612 51.2638 21.4211 51.5026C21.4871 51.7506 21.5196 52.0064 21.5178 52.2631C21.5265 52.5801 21.4722 52.8958 21.3581 53.1917C21.2695 53.4356 21.1257 53.6556 20.9379 53.8346C20.7365 54.0055 20.5019 54.1328 20.2488 54.2086C19.9571 54.2956 19.654 54.3381 19.3496 54.3346H18.6101V57.0827H17.1982V50.1958ZM19.2067 53.3136C19.3293 53.3184 19.4516 53.2986 19.5664 53.2553C19.6811 53.212 19.786 53.1461 19.8748 53.0614C19.9679 52.9551 20.0386 52.8311 20.0827 52.6968C20.1267 52.5625 20.1432 52.4207 20.1312 52.2799C20.1498 51.9988 20.0712 51.7199 19.9085 51.4899C19.8128 51.3919 19.6962 51.3168 19.5674 51.2702C19.4386 51.2236 19.3009 51.2068 19.1647 51.221H18.5891V53.322L19.2067 53.3136Z" fill="#8C7454"/>
<path d="M22.2026 50.1958H26.0516V51.3345H23.5935V52.9564H25.9087V54.0867H23.5935V55.9356H26.1482V57.0743H22.2026V50.1958Z" fill="#8C7454"/>
<path d="M28.7704 57.1878C28.4247 57.1942 28.0797 57.1532 27.7451 57.0659C27.4884 56.9964 27.2539 56.8618 27.0644 56.6751C26.8861 56.4847 26.7564 56.2541 26.6862 56.0028C26.6054 55.6915 26.5673 55.3706 26.5728 55.049V54.9608H27.9594V55.028C27.9611 55.1685 27.9709 55.3088 27.9888 55.4482C28.0072 55.5783 28.0499 55.7037 28.1149 55.8179C28.1771 55.9263 28.267 56.0162 28.3754 56.0785C28.5129 56.1489 28.6664 56.1823 28.8208 56.1751C28.9417 56.1843 29.0631 56.1661 29.1759 56.1217C29.2887 56.0773 29.3899 56.0079 29.4721 55.9188C29.6349 55.6797 29.7106 55.3919 29.6864 55.1036C29.7181 54.8044 29.6355 54.5042 29.4553 54.2632C29.3535 54.1727 29.2343 54.1039 29.1049 54.0613C28.9756 54.0187 28.8388 54.003 28.7031 54.0153H28.5015H28.2619V52.9354C28.3052 52.9409 28.349 52.9409 28.3922 52.9354H28.5435C28.688 52.9498 28.8339 52.9349 28.9725 52.8916C29.1112 52.8483 29.2396 52.7775 29.3502 52.6833C29.4441 52.5661 29.5139 52.4316 29.5557 52.2874C29.5975 52.1432 29.6105 51.9922 29.5939 51.843C29.614 51.6144 29.5448 51.387 29.4007 51.2085C29.3293 51.1436 29.2457 51.0935 29.1548 51.061C29.064 51.0286 28.9676 51.0144 28.8712 51.0194C28.681 51.0131 28.493 51.0612 28.3292 51.158C28.2526 51.208 28.1885 51.2749 28.1418 51.3536C28.0952 51.4323 28.0673 51.5207 28.0603 51.6119C28.0603 51.6791 28.0393 51.7421 28.035 51.7925C28.0308 51.843 28.035 51.9102 28.035 52.0026H26.6736V51.9438C26.6528 51.6728 26.6933 51.4005 26.7922 51.1474C26.8912 50.8942 27.046 50.6666 27.2451 50.4815C27.7182 50.1273 28.3026 49.9544 28.8922 49.9941C29.4453 49.9564 29.9929 50.1239 30.4301 50.4647C30.6143 50.6346 30.7582 50.8435 30.8513 51.0761C30.9443 51.3088 30.9842 51.5593 30.968 51.8093C30.9677 51.978 30.9465 52.1459 30.9049 52.3094C30.864 52.4722 30.7988 52.628 30.7116 52.7716C30.6249 52.913 30.5156 53.0393 30.3881 53.1455C30.257 53.2513 30.1053 53.3286 29.9427 53.3724C30.2905 53.4338 30.6057 53.6152 30.8335 53.8851C31.0613 54.2004 31.1727 54.5851 31.1486 54.9734C31.1737 55.272 31.132 55.5724 31.0266 55.8529C30.9212 56.1334 30.7548 56.387 30.5394 56.5953C30.0435 57.0051 29.4131 57.2162 28.7704 57.1878Z" fill="#8C7454"/>
<path d="M32.5982 57.1205H32.325H32.1822L31.9637 57.0953V56.0449C32.1027 56.0659 32.2432 56.0758 32.3839 56.0743C32.4733 56.0817 32.5633 56.0702 32.648 56.0405C32.7327 56.0109 32.8102 55.9637 32.8755 55.902C32.996 55.7519 33.0937 55.5848 33.1654 55.4062L33.2326 55.2549L31.3418 50.2126H32.8839L33.8965 53.5994L34.8714 50.2126H36.3168L34.6697 55.1709C34.572 55.481 34.4569 55.7854 34.3251 56.0827C34.2278 56.3051 34.0959 56.5107 33.9344 56.692C33.7858 56.8479 33.601 56.9648 33.3965 57.0323C33.1368 57.1038 32.8673 57.1336 32.5982 57.1205Z" fill="#8C7454"/>
<path d="M36.5268 57.1415C36.4386 57.1415 36.3294 57.1415 36.2033 57.1205C36.1117 57.1126 36.0205 57.1 35.9302 57.0826V55.8977C35.9665 55.9005 36.0031 55.9005 36.0394 55.8977H36.1235C36.2241 55.9066 36.3254 55.9066 36.426 55.8977C36.5307 55.8708 36.621 55.8046 36.6781 55.7128C36.7712 55.5572 36.8366 55.3866 36.8714 55.2086C36.9375 54.8827 36.9824 54.5529 37.0059 54.2212C37.0395 53.801 37.0689 53.2589 37.0857 52.6076C37.1025 51.9563 37.1151 51.1538 37.1151 50.2H41.0397V57.0868H39.6531V51.3345H38.4261C38.4261 52.1454 38.4261 52.8513 38.3925 53.4564C38.3589 54.0615 38.3337 54.5783 38.2832 55.0111C38.246 55.3705 38.1728 55.7252 38.0647 56.07C37.9937 56.3093 37.8735 56.5311 37.7118 56.7213C37.5791 56.8771 37.4039 56.991 37.2076 57.049C36.9867 57.1146 36.7572 57.1458 36.5268 57.1415Z" fill="#8C7454"/>
<path d="M42.0229 50.1958H43.4096V52.801H44.1449C44.4606 52.7973 44.7755 52.834 45.0819 52.9102C45.3382 52.9769 45.5755 53.102 45.7752 53.2758C45.9674 53.4561 46.1118 53.6814 46.1954 53.9313C46.2999 54.2483 46.3496 54.5808 46.3425 54.9145C46.3499 55.2538 46.3002 55.5918 46.1954 55.9146C46.1134 56.1713 45.9691 56.4038 45.7752 56.5911C45.5763 56.7687 45.339 56.8981 45.0819 56.9692C44.7789 57.0485 44.4665 57.0867 44.1533 57.0827H42.0314L42.0229 50.1958ZM43.7961 56.0322C44.1091 56.0632 44.4226 55.9796 44.6785 55.7969C44.7763 55.676 44.849 55.5368 44.8923 55.3874C44.9356 55.2381 44.9486 55.0816 44.9307 54.9271C44.9348 54.7494 44.9107 54.5721 44.8592 54.4019C44.8186 54.2763 44.7463 54.1634 44.6491 54.0741C44.5527 53.9888 44.4352 53.9308 44.3088 53.9061C44.1517 53.8704 43.9909 53.8535 43.8298 53.8556H43.4096V56.0364L43.7961 56.0322Z" fill="#8C7454"/>
<path d="M47.7206 51.3345H46.2163V50.1958H50.6157V51.3345H49.1324V57.0827H47.7416L47.7206 51.3345Z" fill="#8C7454"/>
<path d="M52.0236 50.1958H53.7548L55.5784 57.0827H54.133L53.8136 55.6288H51.9816L51.6622 57.0827H50.2168L52.0236 50.1958ZM53.5573 54.5069L52.8892 51.4101L52.2043 54.5069H53.5573Z" fill="#8C7454"/>
<path d="M56.654 51.3345H55.1455V50.1958H59.5449V51.3345H58.0406V57.0827H56.654V51.3345Z" fill="#8C7454"/>
<path d="M62.2467 57.1876C61.812 57.2104 61.3786 57.1237 60.9861 56.9355C60.6816 56.7703 60.434 56.5169 60.276 56.2086C60.1017 55.8588 59.9935 55.4799 59.9567 55.0909C59.8614 54.1296 59.8614 53.1613 59.9567 52.2C59.9931 51.8055 60.1013 51.421 60.276 51.0655C60.4358 50.7551 60.6825 50.4981 60.9861 50.3259C61.3776 50.1515 61.8013 50.0613 62.2299 50.0613C62.6585 50.0613 63.0822 50.1515 63.4737 50.3259C63.7751 50.4995 64.0202 50.7563 64.1796 51.0655C64.3562 51.4203 64.4646 51.8051 64.4989 52.2C64.5942 53.1613 64.5942 54.1296 64.4989 55.0909C64.4641 55.4803 64.3557 55.8595 64.1796 56.2086C64.022 56.5159 63.7762 56.769 63.4737 56.9355C63.0912 57.1178 62.6701 57.2043 62.2467 57.1876ZM62.2467 56.196C62.4226 56.2045 62.5966 56.1559 62.7425 56.0573C62.8829 55.9424 62.9841 55.7868 63.0325 55.6119C63.11 55.3552 63.1552 55.0898 63.1669 54.822C63.1879 54.4984 63.2005 54.1034 63.2005 53.6412C63.2005 53.179 63.2005 52.8009 63.1669 52.4647C63.1548 52.1969 63.1096 51.9315 63.0325 51.6747C62.9852 51.4983 62.8838 51.341 62.7425 51.2251C62.5966 51.1266 62.4226 51.0779 62.2467 51.0865C62.0696 51.0788 61.8946 51.1273 61.7467 51.2251C61.608 51.3425 61.5084 51.4993 61.461 51.6747C61.3838 51.9315 61.3386 52.1969 61.3265 52.4647C61.3013 52.784 61.2929 53.179 61.2929 53.6412C61.2929 54.1034 61.2929 54.4816 61.3265 54.822C61.3382 55.0898 61.3834 55.3552 61.461 55.6119C61.5096 55.7856 61.6091 55.9407 61.7467 56.0573C61.8955 56.1522 62.0705 56.1977 62.2467 56.1876V56.196Z" fill="#8C7454"/>
<path d="M65.4067 50.1956H67.7346C67.9991 50.1938 68.2629 50.2234 68.5203 50.2839C68.7454 50.3367 68.9571 50.4354 69.1422 50.5738C69.3261 50.7141 69.4708 50.8993 69.5624 51.1116C69.6684 51.3788 69.7184 51.6648 69.7095 51.952C69.7188 52.29 69.6281 52.6233 69.449 52.9101C69.2656 53.1832 68.9869 53.378 68.6674 53.4563C69.0244 53.4969 69.3523 53.6728 69.5834 53.9479C69.8205 54.2676 69.9393 54.6597 69.9196 55.0572C69.9218 55.3186 69.8864 55.579 69.8145 55.8304C69.7449 56.0695 69.6212 56.2895 69.4531 56.4733C69.263 56.6594 69.0352 56.8026 68.785 56.8934C68.4595 57.0119 68.1145 57.0675 67.7682 57.0573H65.4235L65.4067 50.1956ZM67.1925 53.0235C67.4874 53.0454 67.7816 52.9733 68.0329 52.8176C68.1284 52.7291 68.202 52.6197 68.2479 52.4979C68.2938 52.3762 68.3109 52.2454 68.2976 52.1159C68.3109 51.9898 68.2963 51.8624 68.2549 51.7426C68.2136 51.6228 68.1464 51.5136 68.0581 51.4226C67.8337 51.2701 67.5638 51.1989 67.2934 51.2209H66.7808V53.0235H67.1925ZM67.3396 56.0615C67.6253 56.0741 67.9076 55.9961 68.1464 55.8388C68.2605 55.7374 68.3484 55.61 68.4025 55.4673C68.4567 55.3246 68.4755 55.1709 68.4573 55.0194C68.4619 54.8502 68.4333 54.6818 68.3733 54.5236C68.3272 54.4 68.2506 54.2902 68.1506 54.2042C68.0546 54.123 67.9409 54.0654 67.8186 54.0362C67.6813 54.0014 67.5401 53.9845 67.3984 53.9857H66.7808V56.0615H67.3396Z" fill="#8C7454"/>
</g>
<defs>
<clipPath id="clip0_1_2276">
<rect width="86" height="86" fill="white" transform="translate(0.5)"/>
</clipPath>
</defs>
</svg>
