<svg width="153" height="45" viewBox="0 0 153 45" fill="none" xmlns="http://www.w3.org/2000/svg">
<g clip-path="url(#clip0_1_2309)">
<path d="M140.702 2.71216H12.2983C7.3121 2.71216 3.27002 6.67022 3.27002 11.5527V33.4471C3.27002 38.3297 7.3121 42.2877 12.2983 42.2877H140.702C145.688 42.2877 149.73 38.3297 149.73 33.4471V11.5527C149.73 6.67022 145.688 2.71216 140.702 2.71216Z" fill="#F7EEDC"/>
<path d="M140.702 5.409C142.362 5.41174 143.953 6.059 145.126 7.20881C146.299 8.35863 146.959 9.91715 146.96 11.5425V33.4318C146.96 35.0581 146.301 36.6179 145.128 37.7688C143.955 38.9198 142.363 39.5677 140.702 39.5705H12.3033C10.6462 39.565 9.05863 38.9173 7.88783 37.7689C6.71703 36.6205 6.05821 35.0648 6.05543 33.4421V11.5529C6.05402 9.92749 6.71098 8.36788 7.88223 7.21613C9.05348 6.06437 10.6434 5.41448 12.3033 5.409H140.702ZM140.702 -0.0102527H12.3033C10.7535 -0.0109327 9.21878 0.287387 7.78677 0.867665C6.35476 1.44794 5.05354 2.29881 3.95743 3.37165C2.86132 4.4445 1.99181 5.7183 1.39858 7.12029C0.805341 8.52227 0.5 10.025 0.5 11.5425V33.4318C0.5 34.9493 0.805341 36.452 1.39858 37.854C1.99181 39.256 2.86132 40.5298 3.95743 41.6027C5.05354 42.6755 6.35476 43.5264 7.78677 44.1066C9.21878 44.6869 10.7535 44.9853 12.3033 44.9846H140.702C143.831 44.9846 146.832 43.7674 149.044 41.6008C151.257 39.4343 152.5 36.4958 152.5 33.4318V11.5529C152.5 8.4889 151.257 5.5504 149.044 3.38383C146.832 1.21726 143.831 0.000101431 140.702 0.000101431V-0.0102527Z" fill="#6B7C43"/>
<path d="M12.3613 12.5983H14.851C15.1355 12.5943 15.4194 12.6238 15.6967 12.6862C15.9381 12.7411 16.1651 12.8452 16.3627 12.9916C16.5546 13.1398 16.704 13.3342 16.7962 13.5558C16.9097 13.8337 16.9636 14.1314 16.9547 14.4306C16.9637 14.7849 16.8663 15.134 16.6746 15.4347C16.4794 15.724 16.1788 15.9295 15.8341 16.0092C16.0249 16.0272 16.2101 16.0823 16.3789 16.1712C16.5477 16.26 16.6967 16.3809 16.8173 16.5268C17.0749 16.861 17.2041 17.2733 17.182 17.6914C17.1842 17.9647 17.145 18.2368 17.0657 18.4989C16.9938 18.7501 16.8615 18.9808 16.6799 19.1718C16.4792 19.3744 16.2356 19.5317 15.9663 19.6324C15.6167 19.7602 15.245 19.8199 14.8721 19.8084H12.3613V12.5983ZM14.2748 15.5641C14.5922 15.5891 14.9093 15.5128 15.1787 15.3467C15.2812 15.2543 15.3604 15.1397 15.4099 15.0122C15.4595 14.8846 15.478 14.7475 15.4641 14.6117C15.4793 14.4788 15.464 14.3443 15.4191 14.2181C15.3743 14.0918 15.3012 13.9769 15.2051 13.8819C14.9646 13.7221 14.6756 13.6472 14.3858 13.6697H13.8572V15.5641H14.2748ZM14.4281 18.7525C14.7366 18.7665 15.0418 18.685 15.3003 18.5196C15.421 18.4124 15.5138 18.2785 15.5708 18.129C15.6278 17.9795 15.6474 17.8188 15.628 17.6604C15.6338 17.4841 15.6051 17.3084 15.5434 17.1428C15.4894 17.0168 15.4083 16.9038 15.3056 16.8115C15.2021 16.7241 15.0789 16.662 14.9461 16.6303C14.7969 16.5982 14.6444 16.5825 14.4915 16.5838H13.8519V18.7577L14.4281 18.7525Z" fill="#6B7C43"/>
<path d="M18.1123 12.5984H19.6029V15.3313H20.3852C20.7254 15.3256 21.0649 15.3639 21.3948 15.4452C21.6687 15.5144 21.9222 15.6456 22.1348 15.8282C22.3445 16.0164 22.5026 16.2531 22.5947 16.5166C22.7088 16.85 22.7624 17.2003 22.7533 17.5518C22.7596 17.9031 22.706 18.253 22.5947 18.587C22.501 18.857 22.3413 19.1004 22.1296 19.2961C21.9156 19.482 21.6605 19.6167 21.3842 19.6895C21.0589 19.7767 20.7225 19.8186 20.3852 19.8137H18.1123V12.5984ZM20.0152 18.7216C20.3509 18.7539 20.6872 18.6656 20.9614 18.4731C21.0667 18.3457 21.1451 18.1992 21.1923 18.0419C21.2395 17.8847 21.2544 17.7199 21.2362 17.557C21.2417 17.371 21.2149 17.1855 21.157 17.0083C21.1124 16.877 21.0362 16.7581 20.9349 16.6615C20.8311 16.5728 20.7054 16.5122 20.5702 16.4855C20.3968 16.4473 20.2193 16.4299 20.0416 16.4338H19.5871V18.7216H20.0152ZM23.3664 12.5984H24.8571V19.8448H23.3664V12.5984Z" fill="#6B7C43"/>
<path d="M28.2559 19.9379C27.7959 19.9591 27.3378 19.8665 26.9239 19.6688C26.5976 19.4985 26.3321 19.2349 26.1627 18.9131C25.9754 18.5458 25.8606 18.1471 25.8244 17.7381C25.7187 16.728 25.7187 15.7099 25.8244 14.6998C25.8593 14.2856 25.9741 13.8817 26.1627 13.5093C26.3327 13.1827 26.5975 12.9126 26.9239 12.7329C27.3359 12.529 27.7947 12.4327 28.2559 12.4534C28.6903 12.4341 29.1227 12.5213 29.5139 12.7071C29.7989 12.8551 30.0366 13.0772 30.2011 13.3489C30.3532 13.6085 30.4503 13.8954 30.4865 14.1926C30.5231 14.4724 30.5425 14.7542 30.5447 15.0363H29.0541C29.0791 14.6441 29.0141 14.2515 28.8638 13.8872C28.7961 13.7672 28.6938 13.6694 28.5698 13.6059C28.4457 13.5424 28.3053 13.516 28.166 13.5301C27.9999 13.5223 27.8365 13.5738 27.7062 13.675C27.5663 13.8036 27.4672 13.9689 27.4207 14.1512C27.3419 14.432 27.2924 14.7198 27.2727 15.0104C27.2463 15.3675 27.2357 15.8023 27.2357 16.3147C27.2304 16.757 27.2481 17.1993 27.2886 17.6398C27.3137 17.9085 27.3741 18.1729 27.4683 18.4265C27.5228 18.5791 27.6267 18.7099 27.7643 18.7992C27.8951 18.865 28.0402 18.8987 28.1872 18.8975C28.3119 18.8964 28.4353 18.8736 28.5519 18.8303C28.6765 18.7749 28.7801 18.6826 28.8479 18.5663C28.9474 18.3932 29.0137 18.2037 29.0435 18.0073C29.0982 17.6945 29.123 17.3774 29.1175 17.0601H30.6081C30.6099 17.4365 30.5781 17.8123 30.513 18.1833C30.459 18.5064 30.3404 18.816 30.1641 19.0942C29.9882 19.3596 29.7414 19.5727 29.4505 19.7102C29.0758 19.8761 28.6668 19.954 28.2559 19.9379Z" fill="#6B7C43"/>
<path d="M32.5585 13.7889H30.9463V12.5984H35.656V13.7889H34.0702V19.8292H32.5796L32.5585 13.7889Z" fill="#6B7C43"/>
<path d="M36.3063 12.5984H38.9122C39.2414 12.5887 39.5686 12.6524 39.869 12.7847C40.1132 12.8987 40.3268 13.0671 40.4927 13.2764C40.6538 13.4826 40.7707 13.7185 40.8363 13.97C40.9041 14.2287 40.9379 14.4949 40.9367 14.7619C40.9437 15.0955 40.8863 15.4275 40.7676 15.7402C40.6632 15.9969 40.5005 16.227 40.2918 16.4131C40.0768 16.5958 39.8245 16.7316 39.5518 16.8116C39.2396 16.902 38.9153 16.9456 38.5898 16.941H37.7705V19.8292H36.2852L36.3063 12.5984ZM38.4576 15.8696C38.5894 15.8751 38.721 15.8545 38.8445 15.8092C38.968 15.7638 39.0809 15.6946 39.1765 15.6056C39.2747 15.4927 39.3491 15.3618 39.3954 15.2205C39.4417 15.0793 39.4589 14.9305 39.4461 14.7826C39.4673 14.4879 39.3832 14.1952 39.2082 13.9545C39.1069 13.8511 38.9828 13.7717 38.8454 13.7224C38.708 13.6731 38.5609 13.6551 38.4154 13.6698H37.7705V15.8696H38.4576Z" fill="#6B7C43"/>
<path d="M42.697 12.5984H44.5365L46.4922 19.8448H44.9382L44.5999 18.292H42.6336L42.2953 19.8448H40.7412L42.697 12.5984ZM44.3409 17.1015L43.6273 13.851L42.9137 17.1015H44.3409Z" fill="#6B7C43"/>
<path d="M47.0102 12.5984H48.4373V17.2568L50.2451 12.5984H51.8309V19.8448H50.4037V15.1864L48.5906 19.8448H47.0049L47.0102 12.5984Z" fill="#6B7C43"/>
<path d="M52.8721 12.5985H55.367C55.6497 12.5948 55.9319 12.6243 56.2074 12.6864C56.4489 12.7413 56.6758 12.8454 56.8735 12.9918C57.067 13.1397 57.2181 13.334 57.3122 13.556C57.4211 13.835 57.4732 14.1322 57.4655 14.4307C57.4744 14.7851 57.377 15.1342 57.1853 15.4349C56.991 15.7228 56.6926 15.928 56.3502 16.0094C56.7348 16.0481 57.0883 16.2341 57.3333 16.527C57.5871 16.8628 57.7141 17.2744 57.6928 17.6916C57.694 17.9645 57.6567 18.2362 57.5818 18.4991C57.5079 18.7506 57.3738 18.9813 57.1906 19.1719C56.9917 19.3768 56.7477 19.5344 56.477 19.6326C56.1293 19.7603 55.7593 19.8201 55.3881 19.8086H52.8721V12.5985ZM54.7855 15.5643C55.1029 15.5893 55.42 15.513 55.6894 15.3469C55.7919 15.2545 55.8711 15.1399 55.9206 15.0124C55.9702 14.8848 55.9888 14.7477 55.9749 14.6119C55.9901 14.479 55.9747 14.3445 55.9299 14.2182C55.8851 14.092 55.8119 13.9771 55.7159 13.8821C55.4775 13.7219 55.19 13.6469 54.9018 13.6699H54.3733V15.5643H54.7855ZM54.9441 18.7527C55.2509 18.766 55.5541 18.6845 55.811 18.5198C55.9334 18.4137 56.0277 18.28 56.0857 18.1304C56.1437 17.9807 56.1637 17.8195 56.144 17.6606C56.1482 17.484 56.1177 17.3083 56.0541 17.143C56.0039 17.0151 55.9222 16.9013 55.8163 16.8117C55.7128 16.7243 55.5896 16.6622 55.4568 16.6305C55.3076 16.5981 55.1551 16.5825 55.0023 16.584H54.3627V18.7579L54.9441 18.7527Z" fill="#6B7C43"/>
<path d="M59.9709 12.5984H61.8104L63.7661 19.8448H62.2121L61.8738 18.292H59.9075L59.5639 19.8448H58.0151L59.9709 12.5984ZM61.6148 17.1015L60.9012 13.851L60.1876 17.1015H61.6148Z" fill="#6B7C43"/>
<path d="M64.2686 12.5984H68.3968V13.7889H65.7539V15.4918H68.2382V16.6874H65.7856V18.6336H68.529V19.8292H64.3003L64.2686 12.5984Z" fill="#6B7C43"/>
<path d="M70.4638 13.7889H68.8516V12.5984H73.5666V13.7889H71.9544V19.8292H70.4638V13.7889Z" fill="#6B7C43"/>
<path d="M78.852 19.9378C78.4403 19.9529 78.0299 19.8842 77.6468 19.7359C77.3609 19.6174 77.1152 19.4217 76.9385 19.1718C76.7658 18.9145 76.6538 18.6227 76.6108 18.3177C76.5499 17.9567 76.5181 17.5915 76.5156 17.2256H77.9428C77.914 17.6746 77.9899 18.1242 78.1648 18.5403C78.2309 18.6607 78.3306 18.7602 78.4523 18.8271C78.574 18.894 78.7126 18.9256 78.852 18.9181C79.0277 18.9242 79.2005 18.8732 79.3436 18.7732C79.4811 18.6639 79.5868 18.5211 79.6501 18.3591C79.7338 18.1378 79.7854 17.9061 79.8034 17.6707C79.8299 17.3912 79.851 17.0703 79.8563 16.708H78.1807V15.533H79.8457C79.8547 15.0142 79.7725 14.4977 79.6026 14.0061C79.5528 13.8512 79.4524 13.7165 79.3167 13.623C79.1811 13.5294 79.0178 13.4822 78.852 13.4885C78.7275 13.4795 78.6028 13.5036 78.4911 13.5583C78.3795 13.6129 78.285 13.6962 78.2177 13.7991C78.0517 14.119 77.9752 14.4761 77.9957 14.8343H76.5685C76.5697 14.4853 76.6141 14.1377 76.7006 13.7991C76.7727 13.5247 76.9104 13.2709 77.1024 13.0589C77.2947 12.8502 77.5386 12.6933 77.8107 12.6034C78.1502 12.4878 78.5084 12.4334 78.8678 12.443C79.3546 12.4153 79.8387 12.5307 80.258 12.7742C80.5886 12.9835 80.8481 13.2844 81.0033 13.6386C81.1745 14.0241 81.2765 14.4356 81.3046 14.855C81.3416 15.3053 81.3628 15.766 81.3628 16.2318C81.3628 16.6976 81.3628 17.1531 81.3046 17.5983C81.278 18.0085 81.1741 18.4104 80.998 18.7836C80.8357 19.127 80.5725 19.4153 80.2422 19.6117C79.8198 19.8476 79.3376 19.9607 78.852 19.9378Z" fill="#6B7C43"/>
<path d="M84.9469 18.9856C84.5563 19.0098 84.1647 18.9562 83.7959 18.8281C83.4271 18.7 83.0885 18.5 82.8008 18.2403C82.5375 17.9635 82.3342 17.6374 82.2034 17.2815C82.0726 16.9256 82.0169 16.5474 82.0396 16.1699C82.0331 15.7784 82.0993 15.389 82.2352 15.0208C82.3592 14.6925 82.5539 14.3941 82.8061 14.1461C83.0658 13.8956 83.3777 13.7031 83.7205 13.5819C84.1143 13.4463 84.5295 13.3797 84.9469 13.3852V12.4639H86.4375V13.3852C86.8532 13.3796 87.2665 13.4462 87.6585 13.5819C88.0016 13.7033 88.3149 13.8937 88.5782 14.1409C88.8299 14.3884 89.023 14.687 89.1438 15.0156C89.2793 15.3857 89.3456 15.7767 89.3394 16.1699C89.3617 16.547 89.3062 16.9246 89.1764 17.2803C89.0465 17.636 88.8449 17.9624 88.5835 18.2403C88.2954 18.4995 87.9569 18.6992 87.5881 18.8272C87.2194 18.9553 86.828 19.0092 86.4375 18.9856V19.938H84.9469V18.9856ZM84.9997 14.498C84.778 14.4925 84.5578 14.5349 84.3548 14.6223C84.1816 14.6983 84.0294 14.8136 83.9108 14.9587C83.7923 15.1139 83.7044 15.2894 83.6518 15.4763C83.5967 15.6982 83.57 15.926 83.5725 16.1543C83.5501 16.5896 83.6685 17.0207 83.9108 17.3862C84.0376 17.5477 84.2036 17.6755 84.3939 17.7578C84.5841 17.8401 84.7925 17.8743 84.9997 17.8572V14.498ZM86.3846 17.8624C86.5868 17.8751 86.7891 17.8388 86.9735 17.7566C87.1579 17.6744 87.3187 17.549 87.4418 17.3914C87.686 17.0265 87.8062 16.5953 87.7854 16.1595C87.7889 15.9308 87.7604 15.7027 87.7008 15.4815C87.6507 15.2937 87.5626 15.1177 87.4418 14.9639C87.3232 14.8188 87.171 14.7034 86.9978 14.6274C86.7966 14.5401 86.5782 14.4977 86.3582 14.5032L86.3846 17.8624Z" fill="#6B7C43"/>
<path d="M92.8702 18.9856C92.4796 19.0101 92.088 18.9566 91.7191 18.8285C91.3502 18.7004 91.0117 18.5003 90.7241 18.2403C90.4608 17.9635 90.2576 17.6374 90.1267 17.2815C89.9959 16.9256 89.9402 16.5474 89.963 16.1699C89.9564 15.7784 90.0227 15.389 90.1586 15.0208C90.2827 14.6887 90.4802 14.3875 90.7369 14.1387C90.9937 13.89 91.3034 13.6998 91.6439 13.5819C92.0376 13.4458 92.4528 13.3792 92.8702 13.3852V12.4639H94.3555V13.3852C94.7729 13.3797 95.1881 13.4463 95.5818 13.5819C95.9234 13.7032 96.235 13.8937 96.4963 14.1409C96.7496 14.3881 96.9444 14.6867 97.0672 15.0156C97.2027 15.3857 97.2689 15.7767 97.2627 16.1699C97.2855 16.5474 97.2298 16.9256 97.099 17.2815C96.9682 17.6374 96.7649 17.9635 96.5016 18.2403C96.2138 18.5 95.8753 18.7 95.5065 18.8281C95.1376 18.9562 94.7461 19.0098 94.3555 18.9856V19.938H92.8702V18.9856ZM92.9178 14.498C92.6978 14.4925 92.4794 14.535 92.2782 14.6223C92.105 14.6983 91.9528 14.8136 91.8342 14.9587C91.7133 15.1125 91.6252 15.2885 91.5752 15.4763C91.5181 15.6979 91.4897 15.9257 91.4906 16.1543C91.4697 16.5902 91.59 17.0213 91.8342 17.3862C91.9597 17.5477 92.1249 17.6755 92.3143 17.7578C92.5037 17.8401 92.7113 17.8743 92.9178 17.8572V14.498ZM94.308 17.8624C94.5144 17.879 94.7218 17.8446 94.9111 17.7623C95.1005 17.68 95.2657 17.5525 95.3916 17.3914C95.6358 17.0265 95.756 16.5953 95.7351 16.1595C95.736 15.9309 95.7076 15.7031 95.6506 15.4815C95.598 15.2946 95.5101 15.1191 95.3916 14.9639C95.273 14.8188 95.1207 14.7034 94.9476 14.6274C94.7462 14.5406 94.5279 14.4982 94.308 14.5032V17.8624Z" fill="#6B7C43"/>
<path d="M98.0927 12.5984H102.216V13.7889H99.5727V15.4918H102.057V16.6874H99.5727V18.6336H102.316V19.8292H98.0874L98.0927 12.5984Z" fill="#6B7C43"/>
<path d="M103.067 12.5984H104.558V15.4918L106.445 12.5984H108.073L106.064 15.704L108.3 19.8448H106.624L105.102 16.8737L104.573 17.6967V19.8448H103.083L103.067 12.5984Z" fill="#6B7C43"/>
<path d="M109.838 13.7889H108.252V12.5984H112.967V13.7889H111.381V19.8292H109.891L109.838 13.7889Z" fill="#6B7C43"/>
<path d="M113.585 12.5984H115.013V17.2568L116.82 12.5984H118.406V19.8448H116.979V15.1864L115.171 19.8448H113.585V12.5984Z" fill="#6B7C43"/>
<path d="M119.448 12.5985H121.943C122.225 12.5948 122.508 12.6243 122.783 12.6864C123.025 12.7413 123.251 12.8454 123.449 12.9918C123.643 13.1386 123.792 13.3334 123.883 13.556C123.996 13.8339 124.05 14.1316 124.041 14.4307C124.05 14.7851 123.953 15.1342 123.761 15.4349C123.566 15.7242 123.265 15.9297 122.921 16.0094C123.111 16.0274 123.297 16.0825 123.465 16.1714C123.634 16.2602 123.783 16.3811 123.904 16.527C124.161 16.8612 124.29 17.2735 124.268 17.6916C124.271 17.9649 124.231 18.237 124.152 18.4991C124.083 18.7516 123.951 18.983 123.766 19.1719C123.566 19.3746 123.322 19.5318 123.053 19.6326C122.705 19.7603 122.335 19.8201 121.964 19.8086H119.448V12.5985ZM121.361 15.5643C121.679 15.5893 121.996 15.513 122.265 15.3469C122.368 15.2545 122.447 15.1399 122.496 15.0124C122.546 14.8848 122.564 14.7477 122.551 14.6119C122.566 14.479 122.55 14.3445 122.506 14.2182C122.461 14.092 122.388 13.9771 122.292 13.8821C122.053 13.7219 121.766 13.6469 121.478 13.6699H120.949V15.5643H121.361ZM121.515 18.7527C121.823 18.7667 122.128 18.6852 122.387 18.5198C122.508 18.4131 122.601 18.2793 122.658 18.1296C122.716 17.98 122.735 17.819 122.714 17.6606C122.72 17.4843 122.692 17.3086 122.63 17.143C122.58 17.0151 122.498 16.9013 122.392 16.8117C122.289 16.7243 122.165 16.6622 122.033 16.6305C121.883 16.5983 121.731 16.5827 121.578 16.584H120.938V18.7579L121.515 18.7527Z" fill="#6B7C43"/>
<path d="M125.199 12.5984H126.689V15.3624H128.423V12.5984H129.914V19.8448H128.423V16.6305H126.689V19.8448H125.199V12.5984Z" fill="#6B7C43"/>
<path d="M133.307 19.9378C132.845 19.9595 132.385 19.8669 131.97 19.6687C131.646 19.4968 131.383 19.2335 131.214 18.913C131.025 18.5461 130.908 18.1474 130.87 17.7381C130.765 16.7279 130.765 15.7099 130.87 14.6997C130.907 14.2852 131.023 13.8812 131.214 13.5093C131.383 13.184 131.646 12.9143 131.97 12.7329C132.383 12.5283 132.844 12.432 133.307 12.4534C133.768 12.431 134.228 12.5273 134.639 12.7329C134.965 12.9125 135.23 13.1826 135.4 13.5093C135.588 13.8821 135.705 14.2856 135.744 14.6997C135.843 15.7102 135.843 16.7276 135.744 17.7381C135.703 18.1469 135.587 18.5451 135.4 18.913C135.231 19.2348 134.965 19.4984 134.639 19.6687C134.226 19.8675 133.767 19.9602 133.307 19.9378ZM133.307 18.9027C133.495 18.9094 133.68 18.8568 133.836 18.7525C133.985 18.632 134.092 18.4693 134.142 18.2867C134.226 18.0177 134.276 17.7395 134.29 17.4585C134.29 17.1169 134.327 16.7029 134.327 16.2163C134.327 15.7298 134.327 15.3209 134.29 14.9793C134.275 14.6984 134.225 14.4204 134.142 14.1511C134.093 13.9665 133.986 13.8018 133.836 13.6801C133.675 13.5892 133.493 13.5414 133.307 13.5414C133.121 13.5414 132.939 13.5892 132.778 13.6801C132.628 13.8026 132.52 13.9668 132.467 14.1511C132.388 14.4212 132.341 14.6989 132.324 14.9793C132.324 15.3209 132.287 15.7298 132.287 16.2163C132.287 16.7029 132.287 17.1169 132.324 17.4585C132.34 17.739 132.387 18.0168 132.467 18.2867C132.521 18.469 132.629 18.6312 132.778 18.7525C132.934 18.855 133.12 18.9058 133.307 18.8975V18.9027Z" fill="#6B7C43"/>
<path d="M136.701 12.5984H140.845V13.7889H138.202V15.4918H140.686V16.6874H138.202V18.6336H140.945V19.8292H136.717L136.701 12.5984Z" fill="#6B7C43"/>
<path d="M36.8506 24.7515H39.3561C39.6388 24.7478 39.921 24.7774 40.1965 24.8395C40.4392 24.8954 40.6676 24.9994 40.8678 25.1449C41.0582 25.2945 41.2073 25.4885 41.3013 25.7091C41.4102 25.9881 41.4623 26.2852 41.4546 26.5838C41.4635 26.9382 41.3661 27.2873 41.1744 27.588C40.9801 27.8759 40.6817 28.0811 40.3392 28.1625C40.7239 28.2011 41.0773 28.3872 41.3224 28.6801C41.5761 29.0159 41.7032 29.4275 41.6818 29.8447C41.6831 30.1176 41.6457 30.3893 41.5708 30.6522C41.497 30.9037 41.3629 31.1344 41.1797 31.325C40.9823 31.5316 40.7378 31.6895 40.4661 31.7857C40.1184 31.9134 39.7484 31.9732 39.3772 31.9617H36.8612L36.8506 24.7515ZM38.7641 27.7174C39.0815 27.7439 39.3991 27.6675 39.6679 27.5C39.7705 27.4075 39.8496 27.293 39.8992 27.1654C39.9487 27.0379 39.9673 26.9008 39.9534 26.765C39.9686 26.6321 39.9532 26.4976 39.9084 26.3713C39.8636 26.245 39.7905 26.1302 39.6944 26.0352C39.456 25.8749 39.1685 25.8 38.8804 25.823H38.3518V27.7174H38.7641ZM38.9226 30.9058C39.2294 30.9191 39.5326 30.8376 39.7895 30.6729C39.9119 30.5667 40.0062 30.4331 40.0642 30.2834C40.1222 30.1338 40.1422 29.9726 40.1225 29.8136C40.1262 29.6371 40.0957 29.4615 40.0327 29.296C39.9811 29.1688 39.8996 29.0553 39.7948 28.9648C39.6919 28.8765 39.5685 28.8143 39.4354 28.7836C39.2861 28.7512 39.1336 28.7355 38.9808 28.737H38.3412V30.911L38.9226 30.9058Z" fill="#6B7C43"/>
<path d="M44.6739 32.0911C44.3012 32.0999 43.9292 32.0563 43.5691 31.9617C43.2966 31.8914 43.0481 31.7512 42.8493 31.5556C42.6505 31.36 42.5085 31.116 42.4379 30.8488C42.3479 30.5216 42.3052 30.1836 42.3111 29.8447V29.736H43.8017V29.8085C43.8012 29.9626 43.8118 30.1165 43.8334 30.2691C43.8506 30.4058 43.8956 30.5378 43.9656 30.6573C44.0322 30.7717 44.1289 30.8664 44.2457 30.9317C44.3922 31.0067 44.5563 31.0424 44.7214 31.0352C44.8509 31.0443 44.9808 31.0249 45.1016 30.9783C45.2223 30.9317 45.3309 30.8592 45.4192 30.766C45.5967 30.5169 45.679 30.2146 45.6517 29.912C45.6849 29.5985 45.5962 29.2843 45.4033 29.0321C45.2948 28.9371 45.1674 28.8651 45.0292 28.8206C44.8909 28.776 44.7448 28.7599 44.5999 28.7733H44.3831H44.1241V27.6656H44.2616H44.4043C44.5594 27.6805 44.7161 27.6648 44.865 27.6195C45.0139 27.5741 45.152 27.5001 45.2712 27.4016C45.4688 27.1573 45.5616 26.8474 45.5302 26.5372C45.5538 26.2984 45.4797 26.0601 45.324 25.8747C45.2477 25.805 45.1578 25.7512 45.0597 25.7165C44.9616 25.6818 44.8573 25.667 44.7531 25.6729C44.5509 25.6662 44.3509 25.7165 44.177 25.8178C44.0942 25.8697 44.0248 25.9397 43.9743 26.0223C43.9239 26.105 43.8937 26.198 43.8863 26.294C43.8733 26.3572 43.8645 26.4212 43.8598 26.4855C43.8598 26.5372 43.8598 26.6097 43.8598 26.7029H42.4009V26.6304C42.3773 26.3436 42.4197 26.0552 42.5249 25.7864C42.63 25.5177 42.7954 25.2755 43.0088 25.0776C43.5162 24.7021 44.145 24.5183 44.7796 24.56C45.3722 24.5212 45.9588 24.6961 46.4288 25.0517C46.6263 25.2303 46.7806 25.4498 46.8803 25.6943C46.98 25.9388 47.0226 26.2021 47.0049 26.4648C47.0044 26.6395 46.9813 26.8134 46.9362 26.9824C46.8951 27.1545 46.8255 27.3189 46.7301 27.4689C46.6356 27.6157 46.5178 27.7467 46.3812 27.8571C46.2429 27.9705 46.0803 28.0519 45.9055 28.0952C46.2773 28.163 46.6136 28.3551 46.8569 28.6387C47.1031 28.9676 47.2246 29.3703 47.2005 29.7774C47.2275 30.0919 47.1827 30.4083 47.0693 30.7038C46.9559 30.9992 46.7769 31.2662 46.5451 31.4855C46.0173 31.9034 45.352 32.1187 44.6739 32.0911Z" fill="#6B7C43"/>
<path d="M49.4631 24.7515H51.3026L53.2583 31.9978H51.7043L51.366 30.445H49.3997L49.0561 31.9978H47.5073L49.4631 24.7515ZM51.107 29.2546L50.3934 26.0041L49.6798 29.2546H51.107Z" fill="#6B7C43"/>
<path d="M53.771 24.7515H55.214V29.4098L57.0271 24.7515H58.6128V31.9978H57.1857V27.3395L55.3779 31.9978H53.7921L53.771 24.7515Z" fill="#6B7C43"/>
<path d="M59.6699 24.7515H61.8794L62.9366 29.855L63.9937 24.7515H66.198V31.9978H64.8342V26.2059L63.5233 31.9823H62.3604L61.0495 26.2059V31.9823H59.6858L59.6699 24.7515Z" fill="#6B7C43"/>
<path d="M69.6494 32.0912C69.1876 32.1128 68.7277 32.0202 68.312 31.822C67.9883 31.6501 67.7249 31.3868 67.5562 31.0663C67.367 30.6994 67.2505 30.3007 67.2126 29.8914C67.1069 28.8813 67.1069 27.8632 67.2126 26.8531C67.2491 26.4385 67.3657 26.0346 67.5562 25.6626C67.7257 25.3374 67.9884 25.0676 68.312 24.8862C68.7257 24.6816 69.1864 24.5853 69.6494 24.6067C70.1107 24.5843 70.5699 24.6807 70.9814 24.8862C71.3078 25.0658 71.5726 25.3359 71.7426 25.6626C71.9307 26.0354 72.0471 26.439 72.0861 26.8531C72.1848 27.8635 72.1848 28.8809 72.0861 29.8914C72.0457 30.3003 71.9293 30.6985 71.7426 31.0663C71.5732 31.3881 71.3077 31.6518 70.9814 31.822C70.5679 32.0209 70.1095 32.1135 69.6494 32.0912ZM69.6494 31.056C69.8374 31.0627 70.0227 31.0101 70.1779 30.9059C70.3268 30.7853 70.4339 30.6226 70.4845 30.44C70.5684 30.171 70.6181 29.8928 70.6325 29.6119C70.6325 29.2703 70.6695 28.8562 70.6695 28.3696C70.6695 27.8831 70.6695 27.4742 70.6325 27.1326C70.6171 26.8517 70.5674 26.5737 70.4845 26.3044C70.4352 26.1199 70.328 25.9551 70.1779 25.8334C70.0172 25.7426 69.8349 25.6947 69.6494 25.6947C69.4638 25.6947 69.2815 25.7426 69.1208 25.8334C68.9706 25.9559 68.8619 26.1202 68.8089 26.3044C68.7306 26.5745 68.6828 26.8523 68.6662 27.1326C68.6398 27.4742 68.6292 27.8831 68.6292 28.3696C68.6292 28.8562 68.6292 29.2703 68.6662 29.6119C68.6818 29.8923 68.7297 30.1701 68.8089 30.44C68.8631 30.6223 68.9717 30.7845 69.1208 30.9059C69.2766 31.0083 69.4619 31.0591 69.6494 31.0508V31.056Z" fill="#6B7C43"/>
<path d="M72.4192 30.7713H73.0112C73.186 30.4488 73.3293 30.1108 73.4394 29.762C73.543 29.4239 73.6155 29.0775 73.6561 28.7268C73.7037 28.3731 73.7319 28.0172 73.7406 27.6605C73.7406 27.293 73.7406 26.8945 73.7406 26.47V24.7102H78.0116V30.7713H78.7041V33.3955H77.3297V31.9669H73.7776V33.3955H72.4033L72.4192 30.7713ZM76.5686 30.7713V25.9266H75.1731V27.1481C75.1731 27.4276 75.1731 27.733 75.1467 28.0591C75.1203 28.3852 75.0991 28.7061 75.0568 29.027C75.0177 29.3454 74.9612 29.6616 74.8877 29.9742C74.8223 30.2613 74.7303 30.542 74.6128 30.8127L76.5686 30.7713Z" fill="#6B7C43"/>
<path d="M79.3384 24.7515H83.4666V25.9419H80.8237V27.6655H83.308V28.8612H80.8237V30.7711H83.5671V31.9668H79.3384V24.7515Z" fill="#6B7C43"/>
<path d="M84.3125 24.7516H85.7291V29.41L87.5422 24.7516H89.1279V31.998H87.7113V27.3396L85.9035 31.998H84.3178L84.3125 24.7516ZM85.7555 23.9183C85.4937 23.6351 85.3519 23.2649 85.3591 22.8831H86.041C86.0598 23.0667 86.1485 23.2367 86.2894 23.3592C86.4402 23.4751 86.6263 23.5381 86.818 23.5381C87.0097 23.5381 87.1958 23.4751 87.3466 23.3592C87.4875 23.2367 87.5762 23.0667 87.595 22.8831H88.2769C88.2841 23.2649 88.1423 23.6351 87.8805 23.9183C87.5857 24.1647 87.2109 24.3001 86.8233 24.3001C86.4357 24.3001 86.0609 24.1647 85.7661 23.9183H85.7555Z" fill="#6B7C43"/>
<path d="M92.5371 32.0912C92.0769 32.1135 91.6185 32.0209 91.205 31.822C90.8787 31.6518 90.6132 31.3881 90.4439 31.0663C90.2547 30.6994 90.1382 30.3007 90.1003 29.8914C89.9946 28.8813 89.9946 27.8632 90.1003 26.8531C90.1368 26.4385 90.2534 26.0346 90.4439 25.6626C90.6138 25.3359 90.8786 25.0658 91.205 24.8862C91.6165 24.6807 92.0757 24.5843 92.5371 24.6067C92.9713 24.5887 93.4034 24.6758 93.7951 24.8603C94.0791 25.0096 94.3165 25.2314 94.4823 25.5021C94.6321 25.7627 94.729 26.0492 94.7677 26.3458C94.8026 26.6258 94.8203 26.9075 94.8205 27.1895H93.3352C93.3618 26.7968 93.2948 26.4035 93.1396 26.0404C93.0719 25.9205 92.9697 25.8226 92.8456 25.7591C92.7216 25.6956 92.5812 25.6692 92.4419 25.6833C92.2759 25.6764 92.1128 25.7278 91.982 25.8282C91.8422 25.9568 91.7431 26.1221 91.6966 26.3044C91.6173 26.5849 91.5695 26.873 91.5539 27.1636C91.5275 27.5208 91.5116 27.9556 91.5116 28.468C91.5077 28.9104 91.5271 29.3526 91.5697 29.793C91.5909 30.0619 91.6496 30.3266 91.7442 30.5798C91.797 30.7347 91.9037 30.8665 92.0455 30.9525C92.1744 31.0182 92.3177 31.052 92.4631 31.0508C92.5895 31.0502 92.7148 31.0274 92.8331 30.9835C92.9583 30.9312 93.0611 30.8379 93.1238 30.7195C93.2254 30.5469 93.2935 30.3574 93.3247 30.1605C93.377 29.8493 93.4 29.5339 93.3934 29.2185H94.884C94.8848 29.5929 94.8548 29.9668 94.7941 30.3365C94.7401 30.6597 94.6216 30.9692 94.4453 31.2475C94.2694 31.5129 94.0226 31.7259 93.7317 31.8634C93.3575 32.0308 92.948 32.1088 92.5371 32.0912Z" fill="#6B7C43"/>
<path d="M96.8504 25.9419H95.2646V24.7515H99.9796V25.9419H98.3675V31.9823H96.8768L96.8504 25.9419Z" fill="#6B7C43"/>
<path d="M100.593 24.7515H103.088C103.37 24.7478 103.653 24.7774 103.928 24.8395C104.17 24.8944 104.397 24.9985 104.594 25.1449C104.788 25.2927 104.939 25.4871 105.033 25.7091C105.142 25.9881 105.194 26.2852 105.186 26.5838C105.195 26.9382 105.098 27.2873 104.906 27.588C104.712 27.8759 104.413 28.0811 104.071 28.1625C104.456 28.2011 104.809 28.3872 105.054 28.6801C105.308 29.0159 105.435 29.4275 105.413 29.8447C105.416 30.118 105.376 30.3901 105.297 30.6522C105.228 30.9047 105.096 31.1361 104.911 31.325C104.712 31.5293 104.468 31.6868 104.198 31.7857C103.85 31.9134 103.48 31.9732 103.109 31.9617H100.593V24.7515ZM102.506 27.7174C102.824 27.7423 103.141 27.6661 103.41 27.5C103.513 27.4075 103.592 27.293 103.641 27.1654C103.691 27.0379 103.709 26.9008 103.696 26.765C103.711 26.6321 103.695 26.4976 103.651 26.3713C103.606 26.245 103.533 26.1302 103.437 26.0352C103.198 25.8749 102.911 25.8 102.623 25.823H102.094V27.7174H102.506ZM102.66 30.9058C102.968 30.9198 103.273 30.8383 103.532 30.6729C103.653 30.5662 103.746 30.4323 103.803 30.2827C103.861 30.1331 103.88 29.9721 103.859 29.8136C103.865 29.6374 103.836 29.4618 103.775 29.296C103.723 29.1688 103.642 29.0553 103.537 28.9648C103.434 28.8773 103.31 28.8152 103.178 28.7836C103.028 28.7512 102.876 28.7355 102.723 28.737H102.083V30.911L102.66 30.9058Z" fill="#6B7C43"/>
<path d="M106.344 24.7515H107.771V29.4098L109.579 24.7515H111.165V31.9978H109.738V27.3395L107.925 31.9978H106.339L106.344 24.7515Z" fill="#6B7C43"/>
<path d="M112.206 24.7515H116.334V25.9419H113.691V27.6655H116.176V28.8612H113.691V30.7711H116.435V31.9668H112.206V24.7515Z" fill="#6B7C43"/>
</g>
<defs>
<clipPath id="clip0_1_2309">
<rect width="152" height="45" fill="white" transform="translate(0.5)"/>
</clipPath>
</defs>
</svg>
