<svg width="105" height="92" viewBox="0 0 105 92" fill="none" xmlns="http://www.w3.org/2000/svg">
<g clip-path="url(#clip0_1_2468)">
<path d="M7.28893 88.0776C6.78695 88.0774 6.29385 87.945 5.85908 87.6937C5.42431 87.4424 5.06315 87.0811 4.81184 86.6459C4.56053 86.2107 4.4279 85.717 4.42725 85.2143C4.4266 84.7116 4.55796 84.2176 4.80815 83.7818L50.0239 5.35132C50.2753 4.91585 50.6367 4.55428 51.0717 4.3029C51.5067 4.05152 52.0002 3.91919 52.5024 3.91919C53.0047 3.91919 53.4981 4.05152 53.9332 4.3029C54.3682 4.55428 54.7295 4.91585 54.9809 5.35132L100.197 83.7818C100.447 84.2176 100.578 84.7116 100.578 85.2143C100.577 85.717 100.444 86.2107 100.193 86.6459C99.9417 87.0811 99.5805 87.4424 99.1458 87.6937C98.711 87.945 98.2179 88.0774 97.7159 88.0776H7.28893Z" fill="#F7EEDC"/>
<path d="M52.5002 8.89567L95.8934 84.1596H9.11166L52.5002 8.89567ZM52.5002 -0.000119234C51.3102 -0.00657164 50.1398 0.304239 49.1094 0.900407C48.0789 1.49658 47.2254 2.35662 46.6365 3.39226L1.43914 81.8181C0.843324 82.8497 0.52935 84.0203 0.528809 85.212C0.528268 86.4038 0.841185 87.5746 1.43607 88.6068C2.03095 89.6389 2.8868 90.4959 3.91751 91.0916C4.94822 91.6872 6.11742 92.0005 7.30744 91.9999H97.716C98.906 92.0005 100.075 91.6872 101.106 91.0916C102.137 90.4959 102.993 89.6389 103.587 88.6068C104.182 87.5746 104.495 86.4038 104.495 85.212C104.494 84.0203 104.18 82.8497 103.584 81.8181L58.3685 3.39226C57.7792 2.35594 56.925 1.49545 55.8937 0.899239C54.8623 0.30303 53.691 -0.00739172 52.5002 -0.000119234Z" fill="#CC902D"/>
<path d="M38.1768 39.1507H40.363C40.6109 39.1489 40.8581 39.1767 41.0994 39.2337C41.3111 39.2825 41.5102 39.3751 41.6839 39.5056C41.8516 39.64 41.9829 39.8143 42.0659 40.0126C42.1646 40.2617 42.2116 40.5283 42.204 40.7962C42.2162 41.1216 42.1296 41.443 41.9555 41.7181C41.7855 41.9757 41.5238 42.1587 41.2237 42.2297C41.5601 42.2634 41.8695 42.4291 42.0843 42.6906C42.3153 42.9971 42.4281 43.3768 42.4019 43.7599C42.4038 44.0063 42.3697 44.2517 42.3007 44.4882C42.2372 44.7139 42.1204 44.921 41.9601 45.092C41.7852 45.2745 41.5711 45.4148 41.3341 45.5022C41.0296 45.6155 40.7061 45.6687 40.3814 45.6589H38.1768V39.1507ZM39.8521 41.8148C40.1319 41.8364 40.4112 41.7669 40.6483 41.6167C40.738 41.5336 40.8071 41.4308 40.8502 41.3165C40.8934 41.2021 40.9094 41.0792 40.8969 40.9575C40.9086 40.8386 40.8945 40.7186 40.8555 40.6056C40.8166 40.4926 40.7538 40.3894 40.6714 40.303C40.4602 40.1607 40.2071 40.0941 39.9533 40.114H39.4931V41.8148H39.8521ZM39.9902 44.6726C40.2588 44.6851 40.5245 44.6125 40.7496 44.4651C40.8566 44.369 40.9389 44.2484 40.9893 44.1136C41.0398 43.9787 41.0571 43.8337 41.0396 43.6908C41.0442 43.5339 41.0192 43.3775 40.9659 43.2299C40.919 43.1152 40.8466 43.0127 40.7542 42.9303C40.6646 42.8516 40.5572 42.7963 40.4412 42.769C40.3113 42.7403 40.1785 42.7264 40.0454 42.7275H39.4839V44.6818L39.9902 44.6726Z" fill="#CC902D"/>
<path d="M43.2168 39.1506H44.5239V41.6304H46.0474V39.1506H47.3545V45.6358H46.0474V42.755H44.5239V45.6358H43.2168V39.1506Z" fill="#CC902D"/>
<path d="M50.3277 45.7556C49.9237 45.774 49.5216 45.69 49.1586 45.5113C48.8729 45.3583 48.6402 45.122 48.4913 44.8338C48.326 44.504 48.2245 44.1458 48.1921 43.7783C48.1 42.8726 48.1 41.9599 48.1921 41.0542C48.2239 40.6836 48.3254 40.3223 48.4913 39.9895C48.6395 39.6961 48.8719 39.4537 49.1586 39.2935C49.5266 39.1293 49.9249 39.0444 50.3277 39.0444C50.7305 39.0444 51.1288 39.1293 51.4968 39.2935C51.7825 39.455 52.0145 39.697 52.1641 39.9895C52.3279 40.3231 52.4293 40.684 52.4633 41.0542C52.5492 41.9602 52.5492 42.8723 52.4633 43.7783C52.4287 44.1454 52.3273 44.5032 52.1641 44.8338C52.0138 45.121 51.7815 45.3569 51.4968 45.5113C51.1337 45.6896 50.7317 45.7736 50.3277 45.7556ZM50.3277 44.8338C50.4915 44.8405 50.6531 44.7935 50.788 44.7001C50.9204 44.5945 51.0156 44.4491 51.0595 44.2853C51.132 44.0424 51.1752 43.7917 51.1884 43.5386C51.1884 43.2344 51.2206 42.861 51.2206 42.4278C51.2206 41.9945 51.2206 41.6211 51.1884 41.3169C51.1749 41.0653 51.1316 40.8162 51.0595 40.5749C51.0168 40.408 50.9216 40.2593 50.788 40.1508C50.6525 40.059 50.491 40.0137 50.3277 40.0217C50.1646 40.0153 50.0035 40.0605 49.8674 40.1508C49.7366 40.2617 49.642 40.4095 49.5959 40.5749C49.5233 40.816 49.4816 41.0653 49.4716 41.3169C49.4716 41.6211 49.4394 41.9899 49.4394 42.4278C49.4394 42.8656 49.4394 43.2344 49.4716 43.5386C49.4812 43.7918 49.523 44.0427 49.5959 44.2853C49.6431 44.4476 49.7377 44.592 49.8674 44.7001C50.0046 44.7872 50.1655 44.8291 50.3277 44.8199V44.8338Z" fill="#CC902D"/>
<path d="M55.3672 45.7558C54.9633 45.7738 54.5613 45.6898 54.1982 45.5115C53.9134 45.3571 53.6811 45.1212 53.5308 44.834C53.3676 44.5033 53.2663 44.1456 53.2316 43.7785C53.1396 42.8728 53.1396 41.9601 53.2316 41.0544C53.2657 40.6842 53.367 40.3233 53.5308 39.9897C53.6804 39.6972 53.9125 39.4552 54.1982 39.2937C54.56 39.1115 54.9627 39.0258 55.3672 39.0448C55.7486 39.0258 56.1285 39.1035 56.4719 39.2706C56.7216 39.404 56.9301 39.6033 57.0748 39.8468C57.2079 40.0793 57.2925 40.3365 57.3233 40.6027C57.3552 40.8534 57.3721 41.1059 57.374 41.3586H56.0668C56.0899 41.0059 56.0316 40.6527 55.8965 40.3262C55.8376 40.2193 55.7486 40.1322 55.6405 40.0756C55.5325 40.0191 55.4102 39.9956 55.289 40.0081C55.1429 40.0013 54.9993 40.0471 54.884 40.1372C54.7612 40.2528 54.6748 40.4018 54.6354 40.5658C54.5642 40.8169 54.521 41.075 54.5066 41.3356C54.4835 41.6536 54.4697 42.0454 54.4697 42.5017C54.4661 42.8987 54.483 43.2956 54.5204 43.6909C54.5373 43.9324 54.59 44.1701 54.6769 44.3961C54.723 44.5352 54.8157 44.654 54.9392 44.7326C55.0514 44.7911 55.1763 44.8212 55.3028 44.8201C55.4129 44.8196 55.522 44.7993 55.625 44.7602C55.7344 44.7124 55.8249 44.6297 55.8827 44.5252C55.9703 44.3694 56.0295 44.1993 56.0576 44.0228C56.1052 43.7426 56.1267 43.4587 56.1221 43.1746H57.4246C57.4255 43.5111 57.3994 43.8472 57.3464 44.1795C57.2994 44.4687 57.1961 44.7459 57.0426 44.9953C56.8892 45.2343 56.6725 45.4258 56.4166 45.5484C56.088 45.6991 55.7285 45.7702 55.3672 45.7558Z" fill="#CC902D"/>
<path d="M58.1704 39.1506H59.4315V43.2989L61.0148 39.1506H62.4232V45.6358H61.1713V41.4875L59.5834 45.6358H58.1796L58.1704 39.1506Z" fill="#CC902D"/>
<path d="M64.3793 40.243H62.9663V39.1506H67.1086V40.2246H65.6956V45.6358H64.3885L64.3793 40.243Z" fill="#CC902D"/>
<path d="M36.9938 53.9002C36.6542 53.7825 36.3629 53.5557 36.1654 53.2549C35.9511 52.8932 35.8471 52.4767 35.8662 52.0565C35.8572 51.7427 35.9072 51.43 36.0135 51.1347C36.0996 50.8982 36.2417 50.6863 36.4277 50.5171C36.612 50.3502 36.8327 50.2286 37.0721 50.1621C37.3476 50.0843 37.6327 50.0455 37.919 50.0469H40.05V56.5321H38.752V54.0339H38.2918L37.0629 56.5321H35.6177L36.9938 53.9002ZM38.7612 53.089V51.0287H38.2596C37.9749 51.0047 37.6913 51.0867 37.4633 51.2591C37.3701 51.3683 37.3 51.4952 37.2573 51.6323C37.2146 51.7694 37.2001 51.9137 37.2148 52.0565C37.1987 52.2012 37.2119 52.3477 37.2539 52.4871C37.2958 52.6266 37.3655 52.756 37.4587 52.8678C37.6779 53.0324 37.9496 53.1111 38.2227 53.089H38.7612Z" fill="#CC902D"/>
<path d="M43.0235 56.6657C42.6195 56.6841 42.2174 56.6 41.8544 56.4214C41.5687 56.2683 41.3359 56.0321 41.1871 55.7438C41.0218 55.414 40.9203 55.0559 40.8879 54.6883C40.7958 53.7826 40.7958 52.8699 40.8879 51.9642C40.9197 51.5936 41.0212 51.2324 41.1871 50.8995C41.3353 50.6061 41.5677 50.3637 41.8544 50.2035C42.2161 50.0209 42.6189 49.9352 43.0235 49.9546C43.4034 49.935 43.782 50.0128 44.1235 50.1805C44.3732 50.3138 44.5817 50.5131 44.7264 50.7566C44.8596 50.9891 44.9442 51.2463 44.975 51.5125C45.0091 51.7631 45.026 52.0156 45.0256 52.2685H43.7231C43.7438 51.9174 43.6856 51.5661 43.5528 51.2406C43.4991 51.1605 43.4301 51.0918 43.3497 51.0387C43.2694 50.9855 43.1793 50.9488 43.0846 50.9308C42.99 50.9128 42.8927 50.9138 42.7985 50.9338C42.7042 50.9537 42.6149 50.9922 42.5356 51.047C42.4129 51.1626 42.3265 51.3116 42.2871 51.4757C42.2177 51.7269 42.176 51.9851 42.1628 52.2454C42.1352 52.5634 42.126 52.9552 42.126 53.4115C42.12 53.8086 42.1369 54.2056 42.1766 54.6007C42.1946 54.8417 42.2457 55.079 42.3285 55.3059C42.3746 55.445 42.4673 55.5639 42.5909 55.6424C42.7039 55.7032 42.8308 55.7334 42.9591 55.73C43.0693 55.7314 43.1788 55.7111 43.2812 55.6701C43.3897 55.6208 43.4799 55.5385 43.539 55.435C43.6249 55.2789 43.6825 55.1088 43.7093 54.9326C43.7592 54.6528 43.7808 54.3686 43.7737 54.0845H45.0809C45.0826 54.4212 45.0549 54.7574 44.998 55.0893C44.9518 55.3787 44.8486 55.6561 44.6942 55.9051C44.5422 56.1453 44.3251 56.3371 44.0683 56.4582C43.741 56.6082 43.3832 56.6793 43.0235 56.6657Z" fill="#CC902D"/>
<path d="M45.8262 50.0654H47.1287V52.5452H48.6522V50.0654H49.9593V56.5506H48.6522V53.6698H47.1287V56.5506H45.8262V50.0654Z" fill="#CC902D"/>
<path d="M52.9327 56.6658C52.5287 56.6838 52.1267 56.5998 51.7636 56.4215C51.4789 56.2671 51.2465 56.0312 51.0962 55.7439C50.9331 55.4133 50.8317 55.0556 50.7971 54.6884C50.705 53.7827 50.705 52.87 50.7971 51.9644C50.8311 51.5942 50.9325 51.2333 51.0962 50.8996C51.2459 50.6072 51.4779 50.3652 51.7636 50.2036C52.1315 50.0394 52.5299 49.9546 52.9327 49.9546C53.3355 49.9546 53.7338 50.0394 54.1017 50.2036C54.3885 50.3639 54.6209 50.6062 54.7691 50.8996C54.935 51.2325 55.0365 51.5937 55.0683 51.9644C55.1603 52.87 55.1603 53.7827 55.0683 54.6884C55.0359 55.056 54.9344 55.4141 54.7691 55.7439C54.6202 56.0322 54.3875 56.2684 54.1017 56.4215C53.7388 56.6002 53.3367 56.6842 52.9327 56.6658ZM52.9327 55.7439C53.0963 55.749 53.2574 55.7022 53.3929 55.6103C53.5227 55.5022 53.6173 55.3577 53.6645 55.1954C53.735 54.9523 53.7767 54.7017 53.7888 54.4487C53.8118 54.1445 53.821 53.7712 53.821 53.3379C53.821 52.9046 53.821 52.5313 53.7888 52.2271C53.7764 51.9757 53.7347 51.7267 53.6645 51.485C53.6184 51.3196 53.5238 51.1719 53.3929 51.061C53.2568 50.9706 53.0958 50.9255 52.9327 50.9319C52.7693 50.9239 52.6078 50.9692 52.4724 51.061C52.3388 51.1694 52.2436 51.3181 52.2009 51.485C52.1288 51.7264 52.0855 51.9755 52.072 52.2271C52.049 52.5313 52.0398 52.9 52.0398 53.3379C52.0398 53.7758 52.0398 54.1445 52.072 54.4487C52.0851 54.7019 52.1284 54.9526 52.2009 55.1954C52.2447 55.3592 52.3399 55.5046 52.4724 55.6103C52.6106 55.694 52.7719 55.7311 52.9327 55.7163V55.7439Z" fill="#CC902D"/>
<path d="M57.9725 56.6658C57.5685 56.6838 57.1665 56.5998 56.8034 56.4215C56.519 56.2682 56.2879 56.0319 56.1407 55.744C55.9734 55.415 55.8717 55.0565 55.8415 54.6885C55.7494 53.7828 55.7494 52.8701 55.8415 51.9644C55.8712 51.5934 55.9728 51.2318 56.1407 50.8997C56.2872 50.6066 56.5181 50.3642 56.8034 50.2037C57.1653 50.0215 57.5679 49.9358 57.9725 49.9548C58.3538 49.9354 58.7339 50.0131 59.0771 50.1807C59.3259 50.3153 59.5341 50.5143 59.6801 50.7568C59.8132 50.9893 59.8978 51.2465 59.9286 51.5127C59.9604 51.7635 59.9773 52.0159 59.9792 52.2686H58.6721C58.6938 51.918 58.6372 51.5668 58.5064 51.2408C58.4469 51.1331 58.3572 51.0452 58.2485 50.9879C58.1397 50.9306 58.0166 50.9063 57.8943 50.9181C57.7482 50.9113 57.6045 50.9571 57.4892 51.0472C57.3665 51.1628 57.2801 51.3118 57.2407 51.4759C57.1717 51.7274 57.1285 51.9853 57.1118 52.2456C57.1118 52.5636 57.075 52.9554 57.075 53.4117C57.0714 53.8087 57.0883 54.2057 57.1256 54.6009C57.1471 54.8418 57.1997 55.0788 57.2821 55.3061C57.3282 55.4452 57.4209 55.564 57.5445 55.6426C57.6575 55.7034 57.7844 55.7336 57.9127 55.7302C58.023 55.7316 58.1324 55.7113 58.2348 55.6702C58.3425 55.6197 58.4323 55.5378 58.4926 55.4352C58.5785 55.2791 58.6361 55.109 58.6629 54.9328C58.7104 54.6527 58.732 54.3688 58.7273 54.0847H60.0345C60.0362 54.4214 60.0085 54.7576 59.9516 55.0895C59.9054 55.3789 59.8022 55.6563 59.6478 55.9053C59.4958 56.1454 59.2787 56.3373 59.0219 56.4584C58.6932 56.6091 58.3337 56.6802 57.9725 56.6658Z" fill="#CC902D"/>
<path d="M61.7558 51.1347H60.3521V50.0608H64.4944V51.1347H63.0814V56.546H61.7742L61.7558 51.1347Z" fill="#CC902D"/>
<path d="M65.0375 50.0654H66.3355V52.5175H67.0212C67.3207 52.5139 67.6193 52.5496 67.9095 52.6235C68.148 52.6852 68.3687 52.802 68.5539 52.9646C68.738 53.1337 68.8772 53.3459 68.9589 53.5823C69.0592 53.879 69.1074 54.1909 69.1016 54.5041C69.1075 54.8249 69.0593 55.1443 68.9589 55.449C68.8801 55.6896 68.7417 55.9063 68.5565 56.0788C68.3714 56.2513 68.1456 56.374 67.9003 56.4354C67.6138 56.5126 67.318 56.5498 67.0212 56.546H65.0283L65.0375 50.0654ZM66.7083 55.5596C67.002 55.5883 67.2962 55.5097 67.5367 55.3384C67.6294 55.2246 67.6984 55.0934 67.7395 54.9525C67.7806 54.8115 67.793 54.6638 67.7761 54.5179C67.7807 54.3493 67.7574 54.1811 67.707 54.0201C67.6682 53.9032 67.6019 53.7973 67.5137 53.7113C67.4216 53.6322 67.3106 53.5782 67.1915 53.5546C67.0406 53.5204 66.886 53.5049 66.7313 53.5085H66.3355V55.5596H66.7083Z" fill="#CC902D"/>
<path d="M28.645 60.9662H29.8969V65.1145L31.4848 60.9662H32.8886V67.4467H31.6367V63.2984L30.0534 67.4467H28.645V60.9662Z" fill="#CC902D"/>
<path d="M35.9585 60.9662H40.1008V67.4467H38.7983V62.0355H37.2748V67.4467H35.9585V60.9662Z" fill="#CC902D"/>
<path d="M43.0741 67.5481C42.6706 67.5662 42.2689 67.4838 41.905 67.3084C41.618 67.1549 41.385 66.9167 41.2376 66.6262C41.0724 66.2964 40.9709 65.9383 40.9385 65.5707C40.8893 65.1115 40.8663 64.6498 40.8694 64.188C40.8666 63.7261 40.8896 63.2645 40.9385 62.8052C40.9703 62.4346 41.0718 62.0733 41.2376 61.7405C41.3859 61.4471 41.6183 61.2047 41.905 61.0445C42.2665 60.8613 42.6694 60.7755 43.0741 60.7956C43.4786 60.7766 43.8813 60.8623 44.2431 61.0445C44.5278 61.2073 44.7596 61.449 44.9105 61.7405C45.0743 62.0741 45.1756 62.435 45.2097 62.8052C45.2511 63.22 45.2741 63.6717 45.2741 64.188C45.2763 64.6497 45.2548 65.1112 45.2097 65.5707C45.175 65.9379 45.0737 66.2956 44.9105 66.6262C44.7603 66.9147 44.528 67.1521 44.2431 67.3084C43.8788 67.4827 43.4774 67.565 43.0741 67.5481ZM43.0741 66.6262C43.2378 66.6323 43.3992 66.5854 43.5343 66.4926C43.6654 66.3857 43.7603 66.2408 43.8059 66.0777C43.8788 65.835 43.922 65.5843 43.9347 65.3311C43.9347 65.0268 43.967 64.6535 43.967 64.2202C43.967 63.787 43.967 63.4136 43.9347 63.114C43.9216 62.8609 43.8783 62.6102 43.8059 62.3673C43.7614 62.2012 43.6665 62.053 43.5343 61.9433C43.3986 61.8521 43.2373 61.8068 43.0741 61.8142C42.9109 61.8078 42.7499 61.853 42.6138 61.9433C42.4829 62.0542 42.3883 62.2019 42.3422 62.3673C42.2693 62.6099 42.2276 62.8608 42.218 63.114C42.195 63.4136 42.1858 63.7824 42.1858 64.2202C42.1858 64.6581 42.1858 65.0268 42.218 65.3311C42.2272 65.5843 42.2689 65.8352 42.3422 66.0777C42.3895 66.24 42.484 66.3845 42.6138 66.4926C42.751 66.5797 42.9119 66.6216 43.0741 66.6124V66.6262Z" fill="#CC902D"/>
<path d="M48.1136 67.5481C47.7102 67.565 47.3088 67.4827 46.9446 67.3084C46.6597 67.1521 46.4274 66.9147 46.2772 66.6262C46.114 66.2956 46.0126 65.9379 45.978 65.5707C45.9289 65.1115 45.9058 64.6498 45.909 64.188C45.9061 63.7261 45.9292 63.2645 45.978 62.8052C46.012 62.435 46.1134 62.0741 46.2772 61.7405C46.4281 61.449 46.6598 61.2073 46.9446 61.0445C47.3125 60.8803 47.7108 60.7954 48.1136 60.7954C48.5164 60.7954 48.9147 60.8803 49.2827 61.0445C49.5684 61.206 49.8004 61.448 49.95 61.7405C50.1138 62.0741 50.2152 62.435 50.2492 62.8052C50.298 63.2645 50.3211 63.7261 50.3183 64.188C50.3214 64.6498 50.2984 65.1115 50.2492 65.5707C50.2146 65.9379 50.1132 66.2956 49.95 66.6262C49.8012 66.9157 49.5686 67.1534 49.2827 67.3084C48.9184 67.4827 48.517 67.565 48.1136 67.5481ZM48.1136 66.6262C48.2775 66.6329 48.439 66.586 48.5739 66.4926C48.7064 66.3861 48.8029 66.2412 48.85 66.0777C48.9211 65.8347 48.9628 65.584 48.9743 65.331C48.9743 65.0268 49.0065 64.6535 49.0065 64.2202C49.0065 63.787 49.0065 63.4136 48.9743 63.114C48.9623 62.8611 48.9206 62.6105 48.85 62.3673C48.8041 62.2007 48.7076 62.0526 48.5739 61.9433C48.4339 61.8624 48.2752 61.8198 48.1136 61.8198C47.952 61.8198 47.7933 61.8624 47.6534 61.9433C47.5197 62.0526 47.4232 62.2007 47.3772 62.3673C47.3088 62.6109 47.2671 62.8613 47.2529 63.114C47.2529 63.4136 47.2207 63.7823 47.2207 64.2202C47.2207 64.6581 47.2207 65.0268 47.2529 65.331C47.2667 65.5838 47.3084 65.8342 47.3772 66.0777C47.4243 66.2412 47.5208 66.3861 47.6534 66.4926C47.7899 66.5811 47.9513 66.6232 48.1136 66.6124V66.6262Z" fill="#CC902D"/>
<path d="M57.1301 67.4467H51.0869V60.9662H52.394V66.3774H53.7748V60.9662H55.0774V66.3774H56.4581V60.9662H57.7607V66.3774H58.3682V68.7281H57.1301V67.4467Z" fill="#CC902D"/>
<path d="M58.8794 60.9661H61.1807C61.4689 60.9571 61.7553 61.0139 62.0184 61.1321C62.2356 61.2389 62.4236 61.3971 62.5661 61.593C62.7091 61.7766 62.8111 61.9888 62.8652 62.2152C62.9258 62.447 62.9567 62.6855 62.9573 62.9251C62.9638 63.2237 62.9138 63.5208 62.81 63.8008C62.7193 64.032 62.5758 64.2388 62.3912 64.4046C62.2022 64.5673 61.981 64.6882 61.7422 64.7595C61.469 64.8415 61.1851 64.8819 60.8999 64.8794H60.2003V67.4651H58.8794V60.9661ZM60.7619 63.8976C60.8773 63.9028 60.9927 63.8847 61.101 63.8443C61.2094 63.8039 61.3085 63.7421 61.3924 63.6625C61.4793 63.5617 61.5453 63.4446 61.5863 63.318C61.6274 63.1913 61.6429 63.0577 61.6317 62.9251C61.6501 62.6598 61.577 62.3962 61.4246 62.1784C61.334 62.0869 61.2242 62.0168 61.1033 61.9729C60.9823 61.9291 60.8531 61.9127 60.725 61.9249H60.1819V63.8976H60.7619Z" fill="#CC902D"/>
<path d="M64.5176 64.7964C64.1792 64.6784 63.8895 64.4515 63.6937 64.1511C63.4774 63.7902 63.3733 63.3731 63.3945 62.9527C63.3842 62.6392 63.4326 62.3265 63.5372 62.0309C63.6233 61.7944 63.7654 61.5825 63.9514 61.4132C64.1379 61.247 64.3599 61.1256 64.6004 61.0583C64.8745 60.9818 65.1581 60.9445 65.4427 60.9477H67.5737V67.4283H66.2757V64.9623H65.8155L64.582 67.4605H63.1138L64.5176 64.7964ZM66.285 63.9898V61.9249H65.7695C65.4839 61.8999 65.1996 61.9839 64.9732 62.1599C64.8799 62.2681 64.8097 62.3942 64.767 62.5305C64.7242 62.6669 64.7098 62.8106 64.7247 62.9527C64.7086 63.0974 64.7219 63.2439 64.7638 63.3833C64.8057 63.5227 64.8754 63.6522 64.9686 63.7639C65.1872 63.9302 65.459 64.0105 65.7326 63.9898H66.285Z" fill="#CC902D"/>
<path d="M68.48 60.9662H72.0976V62.0355H69.7963V63.5796H71.9687V64.649H69.7871V66.3958H72.1897V67.4652H68.48V60.9662Z" fill="#CC902D"/>
<path d="M73.9112 62.0355H72.4937V60.9662H76.636V62.0355H75.2184V67.4467H73.9158L73.9112 62.0355Z" fill="#CC902D"/>
<path d="M26.8405 77.2735H27.3606C27.5139 76.9788 27.6387 76.6701 27.7334 76.3517C27.8221 76.05 27.8867 75.7417 27.9267 75.4298C27.9635 75.121 27.9865 74.7983 27.9957 74.4711C28.0049 74.1438 27.9957 73.7843 27.9957 73.4017V71.8761H31.7422V77.2873H32.3498V79.638H31.1439V78.329H28.0325V79.6104H26.8267L26.8405 77.2735ZM30.4765 77.2735V72.9316H29.2522V73.9871C29.2522 74.2406 29.2522 74.5126 29.2292 74.803C29.2062 75.0933 29.1878 75.3837 29.1556 75.6741C29.1196 75.9592 29.0689 76.2423 29.0037 76.5222C28.946 76.7792 28.866 77.0306 28.7643 77.2735H30.4765Z" fill="#CC902D"/>
<path d="M32.9068 71.8761H34.1587V76.0244L35.7466 71.8761H37.1274V78.329H35.8755V74.1807L34.2922 78.329H32.8838L32.9068 71.8761Z" fill="#CC902D"/>
<path d="M40.1006 78.4443C39.6972 78.4612 39.2958 78.3789 38.9315 78.2046C38.6466 78.0483 38.4144 77.8109 38.2641 77.5225C38.101 77.1918 37.9996 76.8341 37.965 76.4669C37.9199 76.0074 37.8984 75.5459 37.9005 75.0842C37.9005 74.5956 37.9235 74.1393 37.965 73.7245C37.999 73.3542 38.1004 72.9934 38.2641 72.6597C38.4151 72.3682 38.6468 72.1266 38.9315 71.9637C39.2934 71.7815 39.696 71.6958 40.1006 71.7148C40.4819 71.6959 40.8618 71.7735 41.2052 71.9407C41.4539 72.0754 41.6621 72.2743 41.8081 72.5168C41.9413 72.7493 42.0258 73.0065 42.0567 73.2728C42.0885 73.5235 42.1054 73.7759 42.1073 74.0287H40.8002C40.8219 73.678 40.7653 73.3268 40.6345 73.0008C40.5749 72.8931 40.4853 72.8052 40.3765 72.7479C40.2678 72.6906 40.1447 72.6664 40.0223 72.6782C39.8763 72.6714 39.7326 72.7171 39.6173 72.8072C39.4946 72.9228 39.4082 73.0718 39.3688 73.2359C39.2979 73.487 39.2547 73.7451 39.2399 74.0056C39.2169 74.3237 39.2031 74.7154 39.2031 75.1764C39.1997 75.5734 39.2166 75.9703 39.2537 76.3655C39.2733 76.6052 39.326 76.841 39.4102 77.0661C39.4549 77.206 39.5479 77.3253 39.6725 77.4026C39.7854 77.4638 39.9124 77.4941 40.0407 77.4902C40.1495 77.4917 40.2575 77.4713 40.3583 77.4303C40.47 77.3842 40.5626 77.3012 40.6207 77.1952C40.7039 77.0396 40.7614 76.8715 40.791 76.6974C40.8385 76.4158 40.8601 76.1303 40.8554 75.8447H42.1625C42.1643 76.1814 42.1366 76.5176 42.0797 76.8495C42.0335 77.1389 41.9303 77.4163 41.7759 77.6653C41.6216 77.9046 41.4052 78.0974 41.15 78.2231C40.8217 78.3763 40.4627 78.452 40.1006 78.4443Z" fill="#CC902D"/>
<path d="M46.4523 78.329H42.9175V71.8761H44.243V77.2873H45.7665V71.8761H47.069V77.2873H47.6766V79.638H46.4523V78.329Z" fill="#CC902D"/>
<path d="M48.2056 71.8761H49.4575V76.0244L51.0408 71.8761H52.4491V78.329H51.1972V74.1807L49.6094 78.329H48.2056V71.8761Z" fill="#CC902D"/>
<path d="M53.3467 71.8761H57.489V78.329H56.1819V72.9316H54.6584V78.329H53.3559L53.3467 71.8761Z" fill="#CC902D"/>
<path d="M58.5107 78.3982C58.4096 78.4042 58.3081 78.4042 58.207 78.3982C58.1204 78.3909 58.0343 78.3786 57.9492 78.3613V77.2459H58.0505H58.1287C58.2243 77.2456 58.3197 77.2379 58.4141 77.2228C58.4632 77.2115 58.5094 77.1901 58.5498 77.16C58.5902 77.1298 58.6239 77.0916 58.6488 77.0477C58.7351 76.9052 58.7973 76.7495 58.8329 76.5868C58.8957 76.2827 58.9372 75.9747 58.9572 75.6649C58.9894 75.2639 59.017 74.7431 59.0354 74.1439C59.0538 73.5447 59.0631 72.7611 59.0631 71.8807H62.7451V78.329H61.438V72.9316H60.2873C60.2873 73.6968 60.2873 74.3605 60.2551 74.9274C60.2229 75.4944 60.1999 75.9876 60.1493 76.3932C60.1166 76.7312 60.0487 77.0649 59.9467 77.3888C59.8796 77.6138 59.7668 77.8225 59.6154 78.0018C59.4939 78.1459 59.3344 78.253 59.1551 78.3106C58.9462 78.3733 58.7288 78.4028 58.5107 78.3982Z" fill="#CC902D"/>
<path d="M63.6475 71.8761H64.8948V76.0244L66.4827 71.8761H67.891V78.329H66.6391V74.1807L65.0512 78.329H63.6705L63.6475 71.8761Z" fill="#CC902D"/>
<path d="M68.7886 71.8761H70.0911V74.3512H71.6146V71.8761H72.9217V78.329H71.6146V75.4528H70.0911V78.329H68.7886V71.8761Z" fill="#CC902D"/>
<path d="M74.5786 78.3797H74.33H74.1966L73.9895 78.3567V77.3657C74.116 77.3839 74.2436 77.3931 74.3715 77.3933C74.4552 77.4009 74.5397 77.3904 74.6191 77.3626C74.6984 77.3348 74.771 77.2902 74.8317 77.232C74.945 77.093 75.0366 76.9376 75.1033 76.7711L75.1631 76.6282L73.3911 71.8761H74.8455L75.7937 75.0611L76.7142 71.8761H78.095L76.5439 76.5406C76.4529 76.8323 76.3453 77.1185 76.2217 77.3979C76.1301 77.6082 76.0058 77.8027 75.8535 77.9741C75.7146 78.1216 75.5403 78.2311 75.3472 78.2921C75.0978 78.3645 74.8379 78.3942 74.5786 78.3797Z" fill="#CC902D"/>
</g>
<defs>
<clipPath id="clip0_1_2468">
<rect width="104" height="92" fill="white" transform="translate(0.5)"/>
</clipPath>
</defs>
</svg>
