<svg width="173" height="52" viewBox="0 0 173 52" fill="none" xmlns="http://www.w3.org/2000/svg">
<g clip-path="url(#clip0_1_2400)">
<path d="M159.149 3.16992H13.8502C8.22779 3.16992 3.66992 7.72762 3.66992 13.3498V38.65C3.66992 44.2722 8.22779 48.8299 13.8502 48.8299H159.149C164.772 48.8299 169.33 44.2722 169.33 38.65V13.3498C169.33 7.72762 164.772 3.16992 159.149 3.16992Z" fill="#F7EEDC"/>
<path d="M159.144 6.33403C161.004 6.33561 162.788 7.07529 164.103 8.39068C165.418 9.70606 166.158 11.4897 166.16 13.3499V38.6441C166.157 40.5033 165.416 42.2854 164.101 43.5995C162.786 44.9136 161.003 45.6524 159.144 45.654H13.8504C11.9911 45.6524 10.2084 44.9136 8.89309 43.5995C7.57782 42.2854 6.83743 40.5033 6.83426 38.6441V13.3499C6.83584 11.4897 7.57553 9.70606 8.89097 8.39068C10.2064 7.07529 11.9901 6.33561 13.8504 6.33403H159.144ZM159.144 0H13.8504C10.3096 0 6.91391 1.40651 4.41023 3.9101C1.90654 6.41369 0.5 9.80929 0.5 13.3499V38.6441C0.5 42.1847 1.90654 45.5803 4.41023 48.0839C6.91391 50.5875 10.3096 51.994 13.8504 51.994H159.144C162.684 51.994 166.08 50.5875 168.584 48.0839C171.087 45.5803 172.494 42.1847 172.494 38.6441V13.3499C172.494 9.80929 171.087 6.41369 168.584 3.9101C166.08 1.40651 162.684 0 159.144 0Z" fill="#2A5962"/>
<path d="M16.4702 11.46H20.4717V17.7282H19.2097V12.5007H17.7442V17.7282H16.4822L16.4702 11.46Z" fill="#2A5962"/>
<path d="M23.3486 17.8416C22.9589 17.8592 22.5708 17.7811 22.2181 17.6144C21.9426 17.4636 21.7178 17.2347 21.5721 16.9564C21.4133 16.6365 21.3159 16.2895 21.285 15.9337C21.1973 15.0586 21.1973 14.177 21.285 13.302C21.3143 12.9439 21.4117 12.5947 21.5721 12.2732C21.717 11.9898 21.9415 11.7548 22.2181 11.5973C22.5752 11.4396 22.9613 11.3582 23.3516 11.3582C23.7419 11.3582 24.128 11.4396 24.4851 11.5973C24.7617 11.7548 24.9862 11.9898 25.1311 12.2732C25.2915 12.5947 25.3889 12.9439 25.4182 13.302C25.5059 14.177 25.5059 15.0586 25.4182 15.9337C25.3873 16.2895 25.2899 16.6365 25.1311 16.9564C24.9854 17.2347 24.7606 17.4636 24.4851 17.6144C24.1302 17.7809 23.7402 17.8589 23.3486 17.8416ZM23.3486 16.9385C23.5097 16.9468 23.6692 16.9027 23.8032 16.8129C23.9298 16.7093 24.0216 16.5694 24.0664 16.4121C24.1354 16.1764 24.1776 15.9336 24.192 15.6884C24.192 15.3954 24.2219 15.0365 24.2219 14.6118C24.2219 14.1872 24.2219 13.8343 24.192 13.5412C24.1771 13.298 24.1349 13.0573 24.0664 12.8235C24.0234 12.6637 23.9314 12.5214 23.8032 12.4168C23.6681 12.3311 23.5115 12.2857 23.3516 12.2857C23.1917 12.2857 23.0351 12.3311 22.9 12.4168C22.7718 12.5214 22.6798 12.6637 22.6368 12.8235C22.5654 13.0566 22.5232 13.2977 22.5112 13.5412C22.5112 13.8343 22.4813 14.1932 22.4813 14.6118C22.4813 15.0305 22.4813 15.3954 22.5112 15.6884C22.5227 15.934 22.5649 16.1771 22.6368 16.4121C22.6816 16.5694 22.7734 16.7093 22.9 16.8129C23.032 16.9022 23.1894 16.9463 23.3486 16.9385Z" fill="#2A5962"/>
<path d="M25.7053 16.7114H26.2018C26.3541 16.4341 26.4764 16.1414 26.5666 15.8382C26.6559 15.5536 26.718 15.2612 26.7521 14.9649C26.7879 14.6659 26.8119 14.3668 26.8238 14.0378C26.8358 13.7089 26.8238 13.3739 26.8238 13.0091V11.46H30.4485V16.6935H31.0467V18.9663H29.8504V17.7282H26.8597V18.9663H25.6934L25.7053 16.7114ZM29.2224 16.7114V12.5246H28.0261V13.5414C28.0261 13.7866 28.0261 14.0498 28.0261 14.3309C28.0261 14.612 27.9902 14.8931 27.9543 15.1743C27.9184 15.4554 27.8706 15.7305 27.8107 15.9937C27.7573 16.2421 27.6792 16.4845 27.5775 16.7174L29.2224 16.7114Z" fill="#2A5962"/>
<path d="M31.3999 16.7114H31.9024C32.0521 16.4329 32.1743 16.1404 32.2672 15.8382C32.3507 15.5521 32.4127 15.2602 32.4526 14.9649C32.4903 14.6572 32.5122 14.3478 32.5184 14.0378C32.5184 13.7208 32.5184 13.3739 32.5184 13.0091V11.46H36.1431V16.6935H36.7413V18.9663H35.5749V17.7282H32.5842V18.9663H31.4178L31.3999 16.7114ZM34.9229 16.7114V12.5246H33.7267V13.5414C33.7267 13.7866 33.7267 14.0498 33.7267 14.3309C33.7267 14.612 33.6848 14.8931 33.6549 15.1743C33.6211 15.4501 33.5712 15.7237 33.5054 15.9937C33.4519 16.2421 33.3738 16.4845 33.2721 16.7174L34.9229 16.7114Z" fill="#2A5962"/>
<path d="M37.2734 11.46H40.7785V12.5007H38.5355V13.972H40.6469V15.0486H38.5355V16.7353H40.8623V17.7701H37.2734V11.46Z" fill="#2A5962"/>
<path d="M41.4961 11.4598H43.7092C43.9898 11.4499 44.2688 11.5073 44.5227 11.6273C44.7304 11.726 44.9126 11.8714 45.055 12.052C45.1883 12.231 45.2858 12.4341 45.3421 12.6501C45.4017 12.8745 45.4319 13.1057 45.4318 13.3379C45.4403 13.6282 45.3894 13.9172 45.2823 14.1872C45.1984 14.4157 45.0609 14.6208 44.8815 14.7853C44.6972 14.9399 44.4836 15.0559 44.2535 15.1263C43.9878 15.2058 43.7114 15.2441 43.4341 15.2399H42.7582V17.74H41.4961V11.4598ZM43.3204 14.3009C43.4306 14.3039 43.5404 14.2848 43.6431 14.2448C43.7458 14.2047 43.8395 14.1445 43.9186 14.0676C44.0036 13.9709 44.0681 13.858 44.1082 13.7357C44.1483 13.6133 44.1631 13.4841 44.1518 13.3559C44.1697 13.1002 44.0977 12.8464 43.9485 12.6381C43.8622 12.5498 43.7573 12.4818 43.6414 12.4394C43.5254 12.397 43.4014 12.3811 43.2785 12.3929H42.7462V14.3009H43.3204Z" fill="#2A5962"/>
<path d="M47.0888 14.1335L45.5157 11.46H46.8257L48.309 14.0319V11.46H49.5053V14.0319L50.9887 11.46H52.2926L50.7255 14.1156L52.5199 17.7043H51.1502L49.9898 15.1862L49.5173 15.9697V17.7043H48.321V15.9697L47.8485 15.1862L46.6881 17.7043H45.3184L47.0888 14.1335Z" fill="#2A5962"/>
<path d="M52.837 11.46H54.0333V15.4853L55.5705 11.46H56.9283V17.7282H55.732V13.7208L54.1948 17.7282H52.8311L52.837 11.46Z" fill="#2A5962"/>
<path d="M57.8193 11.4597H59.9308C60.1725 11.4589 60.4135 11.487 60.6485 11.5435C60.8556 11.5866 61.05 11.6766 61.2167 11.8066C61.3788 11.9358 61.5045 12.1048 61.5816 12.2971C61.6769 12.5366 61.7217 12.7931 61.7132 13.0507C61.7226 13.3584 61.6414 13.662 61.4799 13.924C61.3132 14.1727 61.0592 14.3498 60.7681 14.4204C61.0933 14.4554 61.3918 14.6165 61.5996 14.869C61.816 15.16 61.9239 15.5176 61.9046 15.8798C61.9068 16.1165 61.8746 16.3522 61.8089 16.5796C61.7505 16.8031 61.6375 17.0087 61.4799 17.1777C61.3139 17.3539 61.1091 17.489 60.8818 17.5725C60.5852 17.6811 60.2704 17.7319 59.9547 17.722H57.8193V11.4597ZM59.4403 14.0316C59.7101 14.0562 59.9806 13.9933 60.2119 13.8522C60.3608 13.6745 60.4425 13.4501 60.4425 13.2182C60.4425 12.9863 60.3608 12.7619 60.2119 12.5842C60.0097 12.4425 59.7639 12.3768 59.518 12.3988H59.0635V14.0376L59.4403 14.0316ZM59.5719 16.8009C59.8327 16.8153 60.0911 16.7438 60.3076 16.5975C60.4122 16.5055 60.4925 16.3892 60.5415 16.2588C60.5905 16.1284 60.6068 15.988 60.5887 15.8499C60.5937 15.6971 60.5693 15.5449 60.5169 15.4013C60.4734 15.2889 60.4037 15.1884 60.3136 15.1082C60.228 15.0341 60.1251 14.9827 60.0145 14.9587C59.8873 14.927 59.7568 14.9109 59.6257 14.9109H59.0814V16.8428L59.5719 16.8009Z" fill="#2A5962"/>
<path d="M63.8307 11.46H65.3918L67.0546 17.7282H65.7327L65.4456 16.4064H63.8008L63.5136 17.7282H62.1978L63.8307 11.46ZM65.2243 15.3716L64.6262 12.5485L64.028 15.3716H65.2243Z" fill="#2A5962"/>
<path d="M67.4911 11.46H70.9782V12.5007H68.7352V13.972H70.8466V15.0486H68.7352V16.7353H71.062V17.7701H67.4731L67.4911 11.46Z" fill="#2A5962"/>
<path d="M72.7726 12.5186H71.4028V11.46H75.4104V12.5007H74.0406V17.7282H72.7726V12.5186Z" fill="#2A5962"/>
<path d="M78.0361 11.46H79.2982V13.972L80.8952 11.46H82.265L80.5603 14.1515L82.4564 17.7402H81.0388L79.7468 15.1683L79.2803 15.88V17.7402H78.0361V11.46Z" fill="#2A5962"/>
<path d="M83.4792 17.782H83.234H83.1024H82.905V16.825C83.0278 16.8439 83.1517 16.8539 83.2759 16.8549C83.3577 16.8602 83.4398 16.8486 83.517 16.8208C83.5941 16.7931 83.6648 16.7497 83.7245 16.6935C83.8339 16.5599 83.9226 16.4107 83.9876 16.2508L84.0475 16.1073L82.3428 11.46H83.7484L84.6695 14.5462L85.5607 11.46H86.8766L85.3335 15.9937C85.2451 16.2743 85.1413 16.5499 85.0224 16.8191C84.9355 17.0236 84.8141 17.2118 84.6635 17.3753C84.5281 17.5177 84.3596 17.6245 84.1731 17.6863C83.9482 17.7544 83.7141 17.7867 83.4792 17.782Z" fill="#2A5962"/>
<path d="M87.0682 17.7998H86.7752L86.5239 17.7639V16.6874H86.6256H86.6974C86.7909 16.6967 86.885 16.6967 86.9785 16.6874C87.0256 16.6759 87.07 16.6552 87.109 16.6265C87.148 16.5977 87.1809 16.5615 87.2058 16.5199C87.2904 16.3778 87.3491 16.2219 87.3793 16.0593C87.4397 15.7632 87.4816 15.4635 87.5049 15.1622C87.5348 14.7794 87.5587 14.2889 87.5767 13.6968C87.5946 13.1047 87.5767 12.369 87.5767 11.5017H91.1655V17.7699H89.8974V12.5424H88.7849C88.7849 13.2781 88.7849 13.9241 88.755 14.4743C88.7251 15.0246 88.7011 15.4911 88.6533 15.8859C88.6187 16.2125 88.5526 16.535 88.4559 16.8488C88.391 17.0673 88.2832 17.2706 88.1389 17.447C88.0137 17.5874 87.8523 17.6909 87.6724 17.746C87.4751 17.7958 87.2712 17.814 87.0682 17.7998Z" fill="#2A5962"/>
<path d="M92.0566 11.46H93.3187V13.8524H93.9826C94.2731 13.8465 94.5629 13.8807 94.844 13.9541C95.0765 14.0123 95.2918 14.125 95.472 14.2831C95.6497 14.4467 95.7834 14.6524 95.8608 14.8812C95.9585 15.1699 96.0051 15.4736 95.9984 15.7783C96.005 16.089 95.9584 16.3985 95.8608 16.6935C95.7788 16.9215 95.6434 17.1265 95.466 17.2916C95.2838 17.4525 95.0668 17.5692 94.832 17.6325C94.555 17.7056 94.2691 17.7398 93.9826 17.7342H92.0566V11.46ZM93.6716 16.7712C93.9559 16.7974 94.2402 16.721 94.4731 16.5559C94.563 16.4467 94.63 16.3205 94.6701 16.1849C94.7102 16.0492 94.7226 15.9069 94.7064 15.7664C94.7102 15.6044 94.688 15.4428 94.6406 15.2879C94.6028 15.1737 94.537 15.0709 94.4492 14.9888C94.3618 14.9093 94.2542 14.8555 94.1382 14.8333C93.9967 14.8028 93.8522 14.7888 93.7075 14.7915H93.3187V16.7712H93.6716Z" fill="#2A5962"/>
<path d="M97.2423 12.5186H95.8726V11.46H99.8741V12.5007H98.4924V17.7282H97.2303L97.2423 12.5186Z" fill="#2A5962"/>
<path d="M101.148 17.782H100.885H100.754H100.556V16.825C100.677 16.8439 100.799 16.8539 100.921 16.8549C101.003 16.863 101.086 16.8526 101.164 16.8247C101.241 16.7968 101.312 16.7519 101.37 16.6935C101.483 16.5629 101.572 16.413 101.633 16.2508L101.699 16.1073L100 11.46H101.406L102.327 14.5462L103.212 11.46H104.528L103.027 15.9757C102.941 16.2573 102.837 16.533 102.716 16.8011C102.628 17.0042 102.509 17.192 102.363 17.3574C102.225 17.5006 102.055 17.6075 101.866 17.6684C101.635 17.745 101.392 17.7834 101.148 17.782Z" fill="#2A5962"/>
<path d="M104.982 11.4598H107.196C107.476 11.4499 107.755 11.5073 108.009 11.6273C108.218 11.7245 108.4 11.8701 108.541 12.052C108.677 12.2296 108.775 12.4332 108.828 12.6501C108.888 12.8745 108.918 13.1057 108.918 13.3379C108.925 13.6276 108.877 13.916 108.775 14.1872C108.689 14.4161 108.549 14.6212 108.368 14.7853C108.185 14.9418 107.971 15.058 107.74 15.1263C107.476 15.2058 107.202 15.2442 106.926 15.2399H106.268V17.74H105L104.982 11.4598ZM106.813 14.3009C106.923 14.3039 107.033 14.2848 107.135 14.2448C107.238 14.2047 107.332 14.1445 107.411 14.0676C107.496 13.9709 107.56 13.858 107.601 13.7357C107.641 13.6133 107.655 13.4841 107.644 13.3559C107.662 13.1093 107.599 12.8636 107.465 12.6561C107.377 12.5676 107.271 12.4996 107.154 12.4572C107.037 12.4148 106.913 12.399 106.789 12.4108H106.268V14.3188L106.813 14.3009Z" fill="#2A5962"/>
<path d="M110.27 17.782H110.031H109.899H109.702V16.825C109.823 16.8439 109.944 16.8539 110.067 16.8549C110.149 16.8625 110.231 16.852 110.309 16.8241C110.386 16.7962 110.457 16.7516 110.515 16.6935C110.627 16.5614 110.716 16.4119 110.778 16.2508L110.838 16.1073L109.122 11.46H110.527L111.448 14.5462L112.334 11.46H113.649L112.148 15.9757C112.062 16.2573 111.959 16.533 111.837 16.8011C111.75 17.0042 111.631 17.192 111.484 17.3574C111.347 17.5006 111.176 17.6075 110.988 17.6684C110.756 17.745 110.514 17.7834 110.27 17.782Z" fill="#2A5962"/>
<path d="M16.4702 22.0165H18.5816C18.8231 22.0138 19.0641 22.04 19.2994 22.0943C19.5056 22.1401 19.6994 22.2298 19.8676 22.3575C20.0297 22.4866 20.1554 22.6556 20.2325 22.8479C20.3278 23.0874 20.3726 23.344 20.3641 23.6016C20.3734 23.9092 20.2923 24.2128 20.1308 24.4748C19.964 24.7235 19.7101 24.9007 19.419 24.9712C19.7446 25.005 20.0435 25.1663 20.2504 25.4198C20.469 25.7101 20.5791 26.0677 20.5615 26.4306C20.5616 26.6676 20.5274 26.9033 20.4598 27.1304C20.4014 27.354 20.2884 27.5595 20.1308 27.7285C19.9635 27.9046 19.7592 28.0415 19.5327 28.1293C19.2354 28.2356 18.9212 28.2863 18.6056 28.2788H16.4762L16.4702 22.0165ZM18.0912 24.5884C18.3623 24.6094 18.6329 24.5423 18.8628 24.397C18.9494 24.3174 19.0161 24.2185 19.0577 24.1084C19.0992 23.9984 19.1144 23.8801 19.102 23.763C19.1144 23.6476 19.101 23.5308 19.0627 23.4211C19.0245 23.3115 18.9623 23.2117 18.8807 23.129C18.6785 22.9873 18.4328 22.9217 18.1869 22.9436H17.7442V24.6183L18.0912 24.5884ZM18.2227 27.3517C18.4853 27.3644 18.7451 27.2932 18.9645 27.1484C19.0666 27.056 19.145 26.9404 19.1929 26.8113C19.2408 26.6821 19.2568 26.5433 19.2396 26.4067C19.2446 26.252 19.2202 26.0978 19.1678 25.9521C19.1242 25.8414 19.0545 25.7429 18.9645 25.665C18.8793 25.589 18.7765 25.5355 18.6654 25.5095C18.538 25.4799 18.4074 25.4658 18.2766 25.4677H17.7442V27.3517H18.2227Z" fill="#2A5962"/>
<path d="M21.333 22.0166H22.5951V24.4091H23.265C23.5533 24.4064 23.8407 24.4406 24.1203 24.5107C24.3529 24.5689 24.5681 24.6817 24.7484 24.8397C24.9252 25.004 25.0588 25.2095 25.1371 25.4378C25.2344 25.7246 25.281 26.0262 25.2747 26.329C25.2813 26.6397 25.2348 26.9491 25.1371 27.2441C25.0551 27.4721 24.9198 27.6772 24.7424 27.8422C24.5601 28.0032 24.3431 28.1198 24.1084 28.1832C23.8337 28.2584 23.5498 28.2946 23.265 28.2908H21.333V22.0166ZM22.948 27.3279C23.2323 27.354 23.5166 27.2776 23.7495 27.1125C23.8393 27.0021 23.9062 26.8749 23.9462 26.7383C23.9863 26.6017 23.9987 26.4585 23.9827 26.317C23.9862 26.1551 23.964 25.9936 23.917 25.8385C23.8815 25.7233 23.8153 25.62 23.7256 25.5395C23.6368 25.4621 23.5297 25.4086 23.4145 25.384C23.2731 25.3535 23.1286 25.3394 22.9839 25.3421H22.5951V27.3279H22.948ZM25.7891 22.0166H27.0572V28.2848H25.7891V22.0166Z" fill="#2A5962"/>
<path d="M29.9523 28.3804C29.5619 28.3983 29.1732 28.3181 28.8218 28.1471C28.5463 27.9964 28.3215 27.7675 28.1758 27.4892C28.0167 27.169 27.9174 26.8224 27.8828 26.4664C27.8377 26.0293 27.8157 25.5901 27.8169 25.1506C27.816 24.7111 27.838 24.2719 27.8828 23.8348C27.9178 23.477 28.0171 23.1285 28.1758 22.806C28.3207 22.5226 28.5452 22.2876 28.8218 22.1301C29.1726 21.9568 29.5614 21.8746 29.9523 21.8909C30.3203 21.8715 30.6871 21.9478 31.017 22.1122C31.265 22.2372 31.4725 22.4301 31.6151 22.6684C31.7452 22.8922 31.8268 23.1408 31.8544 23.3981C31.8872 23.64 31.9032 23.8838 31.9022 24.1278H30.6401C30.6609 23.789 30.6058 23.4498 30.4787 23.135C30.4218 23.029 30.3343 22.9426 30.2276 22.8872C30.1209 22.8317 29.9999 22.8096 29.8805 22.8239C29.7402 22.8189 29.6026 22.8633 29.4917 22.9495C29.37 23.0591 29.2845 23.203 29.2465 23.3622C29.1796 23.6064 29.1394 23.8571 29.1269 24.1099C29.1269 24.4149 29.091 24.7917 29.091 25.2343C29.074 25.6271 29.08 26.0205 29.1089 26.4126C29.127 26.6438 29.1774 26.8713 29.2585 27.0885C29.3034 27.2229 29.3918 27.3386 29.5097 27.4174C29.6206 27.4744 29.7439 27.5032 29.8685 27.5012C29.975 27.4999 30.0803 27.4796 30.1796 27.4414C30.2858 27.395 30.374 27.3152 30.4308 27.2141C30.5121 27.0625 30.5686 26.899 30.5983 26.7296C30.6411 26.4586 30.6611 26.1845 30.6581 25.9102H31.9202C31.923 26.2349 31.897 26.5591 31.8424 26.8791C31.7989 27.1594 31.6992 27.4279 31.5493 27.6687C31.4022 27.8988 31.1955 28.0848 30.9512 28.207C30.6356 28.3396 30.2941 28.399 29.9523 28.3804Z" fill="#2A5962"/>
<path d="M34.6655 28.3805C34.2751 28.3984 33.8865 28.3182 33.535 28.1472C33.2595 27.9965 33.0347 27.7676 32.8891 27.4893C32.7294 27.1697 32.6319 26.8226 32.6019 26.4665C32.5539 26.0296 32.5319 25.5902 32.5362 25.1507C32.5322 24.7111 32.5542 24.2718 32.6019 23.8348C32.6319 23.4769 32.7293 23.1278 32.8891 22.8061C33.0339 22.5226 33.2584 22.2877 33.535 22.1302C33.8858 21.9569 34.2746 21.8746 34.6655 21.8909C35.0584 21.8746 35.449 21.9569 35.802 22.1302C36.0768 22.2881 36.2993 22.523 36.442 22.8061C36.6038 23.1274 36.7033 23.4765 36.7351 23.8348C36.7799 24.272 36.8018 24.7112 36.8009 25.1507C36.8021 25.5901 36.7802 26.0294 36.7351 26.4665C36.7032 26.823 36.6038 27.1701 36.442 27.4893C36.2985 27.7671 36.0758 27.9961 35.802 28.1472C35.448 28.317 35.0577 28.3971 34.6655 28.3805ZM34.6655 27.4773C34.8276 27.4861 34.9878 27.4397 35.1201 27.3457C35.2482 27.2435 35.3403 27.1031 35.3833 26.945C35.4527 26.7096 35.4929 26.4665 35.5029 26.2213C35.5029 25.9282 35.5388 25.5693 35.5388 25.1507C35.5388 24.732 35.5388 24.3671 35.5029 24.08C35.492 23.8349 35.4518 23.5919 35.3833 23.3563C35.3403 23.1965 35.2483 23.0543 35.1201 22.9496C34.9857 22.8606 34.8265 22.8166 34.6655 22.824C34.5063 22.8162 34.3489 22.8603 34.2169 22.9496C34.0887 23.0543 33.9967 23.1965 33.9537 23.3563C33.88 23.5909 33.8378 23.8343 33.8281 24.08C33.8281 24.3671 33.7982 24.726 33.7982 25.1507C33.7982 25.5753 33.7982 25.9282 33.8281 26.2213C33.8367 26.4671 33.8789 26.7107 33.9537 26.945C33.9967 27.1031 34.0889 27.2435 34.2169 27.3457C34.347 27.4397 34.5053 27.4862 34.6655 27.4773Z" fill="#2A5962"/>
<path d="M37.5487 22.0166H38.8108V24.5227L40.4078 22.0166H41.7775L40.0728 24.7021L41.9689 28.2908H40.5514L39.2594 25.7189L38.7928 26.4247V28.2908H37.5308L37.5487 22.0166Z" fill="#2A5962"/>
<path d="M44.0622 28.3804C43.6718 28.3983 43.2831 28.3181 42.9317 28.1471C42.6561 27.9964 42.4314 27.7674 42.2857 27.4892C42.1265 27.1689 42.0272 26.8223 41.9926 26.4664C41.9475 26.0293 41.9256 25.59 41.9268 25.1506C41.9259 24.7111 41.9478 24.2719 41.9926 23.8347C42.0277 23.477 42.127 23.1285 42.2857 22.806C42.4305 22.5225 42.6551 22.2876 42.9317 22.1301C43.2877 21.9725 43.6728 21.8911 44.0622 21.8911C44.4515 21.8911 44.8366 21.9725 45.1926 22.1301C45.4785 22.2896 45.7098 22.5313 45.8566 22.8239C46.0153 23.1464 46.1146 23.4949 46.1496 23.8527C46.1944 24.2898 46.2164 24.729 46.2155 25.1685C46.2167 25.608 46.1947 26.0472 46.1496 26.4843C46.115 26.8403 46.0157 27.1869 45.8566 27.5071C45.7109 27.7854 45.4861 28.0143 45.2106 28.165C44.8522 28.3328 44.457 28.4069 44.0622 28.3804ZM44.0622 27.4772C44.2242 27.486 44.3845 27.4396 44.5167 27.3456C44.6427 27.2415 44.7345 27.1019 44.7799 26.9449C44.8494 26.7095 44.8895 26.4664 44.8995 26.2212C44.8995 25.9281 44.9295 25.5692 44.9295 25.1506C44.9295 24.7319 44.9295 24.367 44.8995 24.0799C44.8886 23.8348 44.8485 23.5918 44.7799 23.3562C44.7345 23.1975 44.6429 23.0559 44.5167 22.9495C44.3824 22.8605 44.2232 22.8165 44.0622 22.8239C43.9012 22.8173 43.7423 22.8612 43.6076 22.9495C43.4814 23.0559 43.3898 23.1975 43.3444 23.3562C43.2758 23.5918 43.2357 23.8348 43.2248 24.0799C43.2248 24.367 43.1949 24.7259 43.1949 25.1506C43.1949 25.5752 43.1949 25.9281 43.2248 26.2212C43.2348 26.4664 43.275 26.7095 43.3444 26.9449C43.3899 27.1019 43.4816 27.2415 43.6076 27.3456C43.7403 27.4388 43.9002 27.4851 44.0622 27.4772Z" fill="#2A5962"/>
<path d="M46.963 22.0165H48.1593V26.0358L49.6905 22.0165H51.0543V28.2848H49.858V24.2714L48.3208 28.2848H46.957L46.963 22.0165ZM48.1593 21.2928C47.9337 21.0472 47.8135 20.7229 47.8243 20.3896H48.4225C48.4282 20.4689 48.4497 20.5462 48.4856 20.6171C48.5216 20.6879 48.5713 20.7509 48.6318 20.8023C48.7534 20.9053 48.9093 20.9587 49.0685 20.9519C49.2294 20.9584 49.3871 20.9052 49.5111 20.8023C49.6299 20.6957 49.7046 20.5485 49.7204 20.3896H50.3186C50.3278 20.7238 50.2054 21.0481 49.9776 21.2928C49.7286 21.5087 49.41 21.6275 49.0804 21.6275C48.7508 21.6275 48.4323 21.5087 48.1832 21.2928H48.1593Z" fill="#2A5962"/>
<path d="M54.0508 22.0165H56.2639C56.5438 22.0078 56.822 22.0631 57.0773 22.178C57.283 22.2773 57.4631 22.4226 57.6037 22.6027C57.7412 22.78 57.8409 22.9835 57.8968 23.2008C57.9544 23.4275 57.9825 23.6607 57.9805 23.8946C57.9878 24.1824 57.9391 24.4688 57.837 24.7379C57.7545 24.9672 57.6169 25.1726 57.4362 25.336C57.2518 25.4906 57.0383 25.6066 56.8082 25.677C56.5424 25.7565 56.2661 25.7948 55.9887 25.7906H55.3128V28.2967H54.0508V22.0165ZM55.8751 24.8516C56.0966 24.8573 56.3114 24.7757 56.4732 24.6243C56.5577 24.5272 56.6218 24.4143 56.6619 24.292C56.702 24.1698 56.7171 24.0407 56.7065 23.9125C56.7248 23.655 56.6528 23.3992 56.5031 23.1888C56.416 23.1 56.31 23.0318 56.1931 22.9894C56.0761 22.9469 55.9511 22.9313 55.8272 22.9436H55.3009V24.8516H55.8751Z" fill="#2A5962"/>
<path d="M58.6089 22.0166H62.108V23.0513H59.8709V24.5227H62.0063V25.5634H59.9009V27.2441H62.2276V28.2848H58.6388L58.6089 22.0166Z" fill="#2A5962"/>
<path d="M64.5843 28.3804C64.2695 28.3856 63.9555 28.3473 63.6512 28.2668C63.4182 28.2071 63.2057 28.0855 63.0362 27.915C62.8667 27.7444 62.7464 27.5312 62.6882 27.2978C62.6178 27.0083 62.5896 26.7102 62.6044 26.4126V26.3349H63.8725V26.3947C63.8632 26.5281 63.8632 26.662 63.8725 26.7954C63.8894 26.9131 63.9279 27.0267 63.9861 27.1304C64.0437 27.2296 64.1261 27.3121 64.2254 27.3696C64.3485 27.4349 64.4869 27.4659 64.6261 27.4593C64.737 27.4682 64.8484 27.4518 64.952 27.4114C65.0556 27.371 65.1487 27.3076 65.2243 27.2261C65.3732 27.0088 65.4429 26.7469 65.4217 26.4844C65.4487 26.2131 65.3717 25.9416 65.2063 25.7248C65.1147 25.6417 65.0067 25.5785 64.8893 25.5394C64.7719 25.5002 64.6477 25.486 64.5245 25.4975H64.339H64.1177V24.5106H64.2374H64.357C64.4886 24.5237 64.6214 24.5102 64.7478 24.4712C64.8741 24.4322 64.9914 24.3683 65.0927 24.2834C65.2621 24.0707 65.3415 23.8002 65.314 23.5297C65.3268 23.4235 65.318 23.3158 65.2882 23.213C65.2584 23.1102 65.2082 23.0145 65.1405 22.9316C65.0758 22.8713 64.9994 22.8249 64.9161 22.7951C64.8328 22.7653 64.7443 22.7527 64.656 22.7582C64.4839 22.7524 64.3137 22.796 64.1656 22.8838C64.0952 22.9285 64.0364 22.9892 63.9938 23.0609C63.9512 23.1326 63.926 23.2133 63.9203 23.2965C63.9158 23.3502 63.9158 23.4042 63.9203 23.458C63.9169 23.5217 63.9169 23.5856 63.9203 23.6494H62.6822V23.6015C62.6641 23.3545 62.7014 23.1065 62.7915 22.8757C62.8815 22.645 63.022 22.4372 63.2026 22.2677C63.6344 21.9461 64.1667 21.7892 64.7039 21.8251C65.2066 21.7916 65.7042 21.9426 66.1035 22.2498C66.2655 22.4026 66.3927 22.5886 66.4763 22.795C66.5599 23.0015 66.598 23.2235 66.588 23.446C66.5882 23.5991 66.5702 23.7517 66.5342 23.9006C66.4968 24.0506 66.4362 24.1938 66.3547 24.3252C66.2771 24.4529 66.1779 24.5662 66.0617 24.6602C65.9445 24.7577 65.8079 24.829 65.6609 24.8695C65.9755 24.9281 66.2605 25.0928 66.4684 25.336C66.6745 25.6223 66.7759 25.9708 66.7555 26.3229C66.7777 26.5959 66.7393 26.8703 66.6432 27.1268C66.547 27.3832 66.3954 27.6152 66.1992 27.8062C65.7503 28.1905 65.175 28.395 64.5843 28.3804Z" fill="#2A5962"/>
<path d="M68.0713 28.3146H67.826H67.6945H67.4971V27.3576C67.6205 27.3664 67.7444 27.3664 67.8679 27.3576C67.9493 27.3637 68.0311 27.353 68.1083 27.3263C68.1855 27.2995 68.2563 27.2573 68.3165 27.2021C68.4267 27.0669 68.5154 26.9157 68.5797 26.7535L68.6395 26.61L66.9229 22.0225H68.3225L69.2436 25.1027L70.1348 22.0225H71.4507L69.9494 26.5322C69.86 26.8145 69.7562 27.092 69.6384 27.3636C69.5501 27.5656 69.4288 27.7516 69.2795 27.9139C69.1464 28.0591 68.9772 28.1665 68.789 28.2249C68.5562 28.2934 68.3138 28.3237 68.0713 28.3146Z" fill="#2A5962"/>
<path d="M71.66 28.3327H71.3669C71.2825 28.3294 71.1985 28.3194 71.1157 28.3028V27.2202H71.2174H71.2892C71.3826 27.2296 71.4768 27.2296 71.5703 27.2202C71.6181 27.2105 71.6632 27.1905 71.7025 27.1616C71.7417 27.1326 71.7742 27.0955 71.7976 27.0527C71.8832 26.9112 71.942 26.755 71.9711 26.5922C72.0341 26.2985 72.0761 26.0007 72.0967 25.701C72.1286 25.3022 72.1525 24.8118 72.1684 24.2296C72.1684 23.6315 72.1983 22.9018 72.1983 22.0405H75.7872V28.3088H74.5071V23.0753H73.3707C73.3707 23.8109 73.3707 24.4569 73.3707 25.0072C73.3707 25.5574 73.3168 26.0299 73.269 26.4187C73.235 26.7454 73.1689 27.068 73.0716 27.3817C73.0072 27.6003 72.8993 27.8037 72.7546 27.9798C72.6303 28.1172 72.4712 28.2184 72.2941 28.2729C72.0873 28.3269 71.8732 28.3471 71.66 28.3327Z" fill="#2A5962"/>
<path d="M76.6489 22.0166H77.911V24.4091H78.5809C78.8692 24.4064 79.1566 24.4406 79.4362 24.5107C79.6688 24.5689 79.8841 24.6817 80.0643 24.8397C80.2412 25.004 80.3747 25.2095 80.4531 25.4378C80.5503 25.7246 80.5969 26.0262 80.5906 26.329C80.5972 26.6397 80.5507 26.9491 80.4531 27.2441C80.3711 27.4721 80.2357 27.6772 80.0583 27.8422C79.876 28.0032 79.659 28.1198 79.4243 28.1832C79.1496 28.2584 78.8657 28.2946 78.5809 28.2908H76.6489V22.0166ZM78.2639 27.3279C78.5482 27.354 78.8325 27.2776 79.0654 27.1125C79.1552 27.0021 79.2221 26.8749 79.2621 26.7383C79.3022 26.6017 79.3146 26.4585 79.2987 26.317C79.3021 26.1551 79.2799 25.9936 79.2329 25.8385C79.1974 25.7233 79.1312 25.62 79.0415 25.5395C78.9527 25.4621 78.8456 25.4086 78.7304 25.384C78.589 25.3535 78.4445 25.3394 78.2998 25.3421H77.911V27.3279H78.2639Z" fill="#2A5962"/>
<path d="M81.8346 23.0513H80.4648V22.0166H84.4724V23.0513H83.1026V28.2848H81.8346V23.0513Z" fill="#2A5962"/>
<path d="M85.7522 22.0166H87.3133L88.9701 28.2848H87.6542L87.3671 26.957H85.6983L85.4112 28.2848H84.0894L85.7522 22.0166ZM87.1458 25.9223L86.5477 23.1052L85.9495 25.9223H87.1458Z" fill="#2A5962"/>
<path d="M89.963 23.0513H88.5933V22.0166H92.6008V23.0513H91.231V28.2848H89.963V23.0513Z" fill="#2A5962"/>
<path d="M93.1455 22.0166H94.3418V26.0359L95.879 22.0166H97.2368V28.2848H96.0405V24.2715L94.5033 28.2848H93.1455V22.0166Z" fill="#2A5962"/>
<path d="M98.1216 22.0165H100.239C100.479 22.0139 100.717 22.04 100.951 22.0943C101.157 22.1401 101.351 22.2298 101.519 22.3575C101.681 22.4866 101.807 22.6556 101.884 22.8479C101.979 23.0874 102.024 23.344 102.015 23.6016C102.025 23.9092 101.944 24.2128 101.782 24.4748C101.615 24.7235 101.361 24.9007 101.07 24.9712C101.396 25.005 101.695 25.1663 101.902 25.4198C102.123 25.7089 102.233 26.0674 102.213 26.4306C102.212 26.6671 102.18 26.9024 102.117 27.1304C102.054 27.3534 101.939 27.5583 101.782 27.7285C101.616 27.9059 101.411 28.043 101.184 28.1293C100.887 28.2356 100.573 28.2863 100.257 28.2788H98.1276L98.1216 22.0165ZM99.7425 24.5884C100.014 24.6094 100.284 24.5423 100.514 24.397C100.601 24.3174 100.667 24.2185 100.709 24.1084C100.751 23.9984 100.766 23.8801 100.753 23.763C100.766 23.6476 100.752 23.5308 100.714 23.4211C100.676 23.3115 100.614 23.2117 100.532 23.129C100.33 22.9873 100.084 22.9217 99.8382 22.9436H99.3836V24.6183L99.7425 24.5884ZM99.8741 27.3517C100.137 27.3644 100.396 27.2932 100.616 27.1484C100.716 27.0557 100.792 26.9408 100.839 26.8129C100.886 26.685 100.901 26.5479 100.885 26.4127C100.889 26.2576 100.862 26.1032 100.807 25.9581C100.764 25.8474 100.694 25.7489 100.604 25.671C100.519 25.595 100.416 25.5415 100.305 25.5155C100.177 25.4855 100.047 25.4714 99.916 25.4736H99.3717V27.3577L99.8741 27.3517Z" fill="#2A5962"/>
<path d="M103.002 22.0166H104.264V24.4091H105.742V22.0166H107.004V28.2848H105.742V25.4976H104.264V28.2848H103.002V22.0166Z" fill="#2A5962"/>
<path d="M109.857 28.3806C109.467 28.3985 109.078 28.3183 108.727 28.1473C108.451 27.9966 108.227 27.7677 108.081 27.4894C107.921 27.1698 107.824 26.8227 107.794 26.4666C107.746 26.0297 107.724 25.5903 107.728 25.1508C107.724 24.7112 107.746 24.2719 107.794 23.8349C107.824 23.477 107.921 23.1279 108.081 22.8062C108.226 22.5227 108.45 22.2878 108.727 22.1303C109.084 21.9726 109.47 21.8911 109.86 21.8911C110.251 21.8911 110.637 21.9726 110.994 22.1303C111.278 22.2907 111.507 22.5324 111.652 22.8241C111.812 23.1458 111.909 23.4949 111.939 23.8529C111.984 24.29 112.006 24.7292 112.005 25.1687C112.006 25.6082 111.984 26.0474 111.939 26.4846C111.909 26.8406 111.812 27.1877 111.652 27.5073C111.506 27.7856 111.281 28.0145 111.006 28.1653C110.647 28.3328 110.252 28.4069 109.857 28.3806ZM109.857 27.4774C110.02 27.4872 110.18 27.4407 110.312 27.3458C110.44 27.2436 110.532 27.1032 110.575 26.9451C110.644 26.7094 110.686 26.4666 110.701 26.2214C110.701 25.9283 110.731 25.5694 110.731 25.1508C110.731 24.7321 110.731 24.3672 110.701 24.0801C110.685 23.8351 110.643 23.5924 110.575 23.3564C110.532 23.1966 110.44 23.0544 110.312 22.9497C110.176 22.8674 110.02 22.8239 109.86 22.8239C109.701 22.8239 109.545 22.8674 109.409 22.9497C109.281 23.0544 109.189 23.1966 109.146 23.3564C109.078 23.5924 109.036 23.8351 109.02 24.0801C109.02 24.3672 108.99 24.7261 108.99 25.1508C108.99 25.5754 108.99 25.9283 109.02 26.2214C109.034 26.4666 109.077 26.7094 109.146 26.9451C109.189 27.1032 109.281 27.2436 109.409 27.3458C109.539 27.4398 109.697 27.4863 109.857 27.4774Z" fill="#2A5962"/>
<path d="M114.762 28.3804C114.371 28.3983 113.983 28.3181 113.631 28.1471C113.356 27.9964 113.131 27.7675 112.985 27.4892C112.826 27.1696 112.728 26.8225 112.698 26.4664C112.65 26.0295 112.628 25.5901 112.632 25.1506C112.628 24.7111 112.65 24.2717 112.698 23.8347C112.728 23.4768 112.826 23.1277 112.985 22.806C113.13 22.5226 113.355 22.2876 113.631 22.1301C113.982 21.9568 114.371 21.8746 114.762 21.8909C115.132 21.8716 115.5 21.9478 115.832 22.1122C116.081 22.2363 116.289 22.4294 116.431 22.6684C116.56 22.893 116.643 23.141 116.676 23.3981C116.706 23.6402 116.722 23.8839 116.724 24.1278H115.456C115.476 23.789 115.421 23.4497 115.294 23.1349C115.237 23.029 115.15 22.9426 115.043 22.8871C114.936 22.8317 114.815 22.8096 114.696 22.8239C114.556 22.8189 114.418 22.8633 114.307 22.9495C114.187 23.0596 114.104 23.2036 114.068 23.3622C113.999 23.606 113.956 23.8568 113.942 24.1099C113.942 24.4149 113.906 24.7917 113.906 25.2343C113.906 25.6769 113.906 26.0956 113.954 26.3887C113.975 26.6194 114.025 26.8465 114.104 27.0646C114.151 27.1994 114.241 27.315 114.361 27.3935C114.47 27.45 114.591 27.4787 114.714 27.4773C114.82 27.4764 114.926 27.4562 115.025 27.4174C115.131 27.3711 115.219 27.2913 115.276 27.1902C115.36 27.0398 115.417 26.8758 115.444 26.7057C115.489 26.4351 115.509 26.1607 115.503 25.8863H116.771C116.772 26.2111 116.744 26.5354 116.688 26.8552C116.647 27.1361 116.547 27.4052 116.395 27.6447C116.247 27.8748 116.041 28.0609 115.796 28.183C115.472 28.3294 115.117 28.397 114.762 28.3804Z" fill="#2A5962"/>
<path d="M118.428 23.0513H117.035V22.0166H121.036V23.0513H119.666V28.2848H118.404L118.428 23.0513Z" fill="#2A5962"/>
<path d="M121.604 22.0166H122.801V26.0359L124.338 22.0166H125.702V28.2848H124.505V24.2715L122.968 28.2848H121.61L121.604 22.0166Z" fill="#2A5962"/>
<path d="M16.4702 32.5493H17.6665V36.5806L19.2037 32.5613H20.5675V38.8295H19.3712V34.7863L17.834 38.7996H16.4762L16.4702 32.5493Z" fill="#2A5962"/>
<path d="M23.5879 32.5493H26.9315V33.59H24.85V38.8235H23.5879V32.5493Z" fill="#2A5962"/>
<path d="M29.3658 38.9134C28.9734 38.932 28.5827 38.8518 28.2294 38.6801C27.9531 38.5323 27.7294 38.3025 27.5894 38.0222C27.4275 37.7051 27.328 37.36 27.2963 37.0054C27.2085 36.1304 27.2085 35.2487 27.2963 34.3737C27.3273 34.0133 27.4268 33.6621 27.5894 33.339C27.7306 33.0565 27.9536 32.8231 28.2294 32.6691C28.5853 32.5073 28.9718 32.4236 29.3628 32.4236C29.7538 32.4236 30.1403 32.5073 30.4963 32.6691C30.7725 32.8244 30.9971 33.0573 31.1423 33.339C31.3028 33.6625 31.4002 34.0137 31.4294 34.3737C31.5171 35.2487 31.5171 36.1304 31.4294 37.0054C31.3995 37.3596 31.3021 37.7047 31.1423 38.0222C30.9984 38.3017 30.7732 38.5311 30.4963 38.6801C30.1449 38.8511 29.7562 38.9313 29.3658 38.9134ZM29.3658 38.0102C29.525 38.018 29.6824 37.974 29.8144 37.8846C29.9411 37.7787 30.0329 37.6369 30.0776 37.4779C30.1491 37.2448 30.1912 37.0037 30.2032 36.7602C30.2032 36.4611 30.2331 36.1022 30.2331 35.6836C30.2331 35.2649 30.2331 34.906 30.2032 34.6129C30.1912 34.3694 30.1491 34.1283 30.0776 33.8952C30.0362 33.7331 29.944 33.5884 29.8144 33.4825C29.6782 33.4002 29.522 33.3567 29.3628 33.3567C29.2036 33.3567 29.0475 33.4002 28.9113 33.4825C28.7817 33.5884 28.6895 33.7331 28.6481 33.8952C28.5791 34.1287 28.5389 34.3697 28.5284 34.6129C28.5284 34.906 28.4926 35.2589 28.4926 35.6836C28.4926 36.1082 28.4925 36.4611 28.5284 36.7602C28.5389 37.0034 28.5791 37.2444 28.6481 37.4779C28.6928 37.6369 28.7845 37.7787 28.9113 37.8846C29.0453 37.9744 29.2047 38.0185 29.3658 38.0102Z" fill="#2A5962"/>
<path d="M32.2432 32.5492H34.4563C34.7362 32.5405 35.0144 32.5958 35.2697 32.7107C35.4773 32.8098 35.6594 32.9551 35.8021 33.1354C35.9341 33.3152 36.0315 33.518 36.0892 33.7335C36.1491 33.9579 36.1793 34.1891 36.1789 34.4213C36.1867 34.7116 36.1358 35.0005 36.0294 35.2706C35.9461 35.4995 35.8086 35.7047 35.6286 35.8688C35.4553 36.0245 35.2517 36.1426 35.0305 36.2157C34.7661 36.2919 34.4922 36.3301 34.217 36.3293H33.5351V38.8294H32.2731L32.2432 32.5492ZM34.0675 35.3843C34.1773 35.3881 34.2868 35.37 34.3895 35.331C34.4922 35.2919 34.5861 35.2328 34.6656 35.157C34.7501 35.06 34.8142 34.947 34.8543 34.8247C34.8944 34.7025 34.9095 34.5735 34.8989 34.4452C34.917 34.1905 34.8473 33.9372 34.7015 33.7275C34.6146 33.6383 34.5087 33.5699 34.3917 33.5274C34.2746 33.485 34.1495 33.4695 34.0256 33.4823H33.4933V35.3843H34.0675Z" fill="#2A5962"/>
<path d="M36.0115 37.777H36.5079C36.6592 37.4992 36.7815 37.2065 36.8728 36.9037C36.9587 36.6183 37.0207 36.3262 37.0582 36.0305C37.0941 35.7314 37.118 35.4323 37.13 35.1034C37.142 34.7744 37.13 34.4395 37.13 34.0686V32.5435H40.7547V37.777H41.3528V40.0498H40.1566V38.8117H37.1659V40.0498H35.9995L36.0115 37.777ZM39.5285 37.777V33.5902H38.3323V34.6069C38.3323 34.8582 38.3323 35.1213 38.3323 35.4024C38.3323 35.6836 38.2964 35.9587 38.2605 36.2398C38.2246 36.5209 38.1767 36.796 38.1169 37.0652C38.0626 37.3134 37.9845 37.5557 37.8837 37.7889L39.5285 37.777Z" fill="#2A5962"/>
<path d="M43.8828 38.9134C43.4924 38.9313 43.1037 38.8511 42.7523 38.6801C42.4754 38.5311 42.2502 38.3017 42.1063 38.0222C41.9465 37.7047 41.8491 37.3596 41.8192 37.0054C41.7315 36.1304 41.7315 35.2487 41.8192 34.3737C41.8484 34.0137 41.9459 33.6625 42.1063 33.339C42.2516 33.0573 42.4761 32.8244 42.7523 32.6691C43.1083 32.5073 43.4948 32.4236 43.8858 32.4236C44.2768 32.4236 44.6633 32.5073 45.0193 32.6691C45.295 32.8231 45.518 33.0565 45.6593 33.339C45.8218 33.6621 45.9213 34.0133 45.9524 34.3737C46.0401 35.2487 46.0401 36.1304 45.9524 37.0054C45.9206 37.36 45.8211 37.7051 45.6593 38.0222C45.5192 38.3025 45.2956 38.5323 45.0193 38.6801C44.666 38.8518 44.2752 38.932 43.8828 38.9134ZM43.8828 38.0102C44.0439 38.0185 44.2034 37.9744 44.3374 37.8846C44.4641 37.7787 44.5558 37.6369 44.6006 37.4779C44.6695 37.2444 44.7097 37.0034 44.7202 36.7602C44.7441 36.4611 44.7561 36.1022 44.7561 35.6836C44.7561 35.2589 44.7561 34.906 44.7202 34.6129C44.7097 34.3697 44.6695 34.1287 44.6006 33.8952C44.5592 33.7331 44.4669 33.5884 44.3374 33.4825C44.2011 33.4002 44.045 33.3567 43.8858 33.3567C43.7266 33.3567 43.5705 33.4002 43.4342 33.4825C43.3047 33.5884 43.2124 33.7331 43.171 33.8952C43.0996 34.1283 43.0574 34.3694 43.0454 34.6129C43.0454 34.906 43.0155 35.2589 43.0155 35.6836C43.0155 36.1082 43.0155 36.4611 43.0454 36.7602C43.0574 37.0037 43.0996 37.2448 43.171 37.4779C43.2158 37.6369 43.3075 37.7787 43.4342 37.8846C43.5662 37.974 43.7236 38.018 43.8828 38.0102Z" fill="#2A5962"/>
<path d="M48.7636 38.9134C48.3732 38.9313 47.9846 38.8511 47.6332 38.6801C47.3563 38.5312 47.1311 38.3018 46.9872 38.0222C46.8274 37.7047 46.7299 37.3596 46.7001 37.0054C46.6123 36.1304 46.6123 35.2487 46.7001 34.3737C46.7293 34.0137 46.8267 33.6626 46.9872 33.339C47.1324 33.0573 47.357 32.8244 47.6332 32.6691C47.9825 32.491 48.372 32.4065 48.7636 32.4239C49.1334 32.4077 49.5013 32.4837 49.8343 32.6452C50.0804 32.773 50.2871 32.9653 50.4325 33.2014C50.5609 33.4264 50.6442 33.6742 50.6777 33.9311C50.7074 34.1753 50.7234 34.4209 50.7255 34.6668H49.4455C49.4668 34.326 49.4117 33.9847 49.284 33.6679C49.2272 33.562 49.1397 33.4756 49.033 33.4201C48.9263 33.3647 48.8053 33.3426 48.6859 33.3569C48.5456 33.3519 48.4079 33.3963 48.2971 33.4825C48.1787 33.5947 48.0938 33.7376 48.0519 33.8952C47.9884 34.1401 47.9483 34.3904 47.9322 34.6429C47.9083 34.9499 47.8964 35.3267 47.8964 35.7733C47.8964 36.2458 47.8964 36.6286 47.9442 36.9217C47.9624 37.1548 48.0127 37.3842 48.0937 37.6035C48.1384 37.7383 48.2296 37.8528 48.3509 37.9265C48.4599 37.983 48.5811 38.0117 48.7038 38.0102C48.8106 38.0124 48.9165 37.992 49.0149 37.9504C49.1211 37.904 49.2093 37.8242 49.2661 37.7231C49.3501 37.5728 49.4068 37.4088 49.4336 37.2387C49.4797 36.9681 49.4997 36.6937 49.4934 36.4193H50.7614C50.7624 36.7441 50.7343 37.0684 50.6777 37.3882C50.6369 37.6691 50.537 37.9382 50.3846 38.1777C50.2375 38.4078 50.0308 38.5939 49.7865 38.716C49.4655 38.8605 49.1153 38.9281 48.7636 38.9134Z" fill="#2A5962"/>
<path d="M52.4361 33.5902H51.0664V32.5554H55.0739V33.5902H53.6922V38.8236H52.4361V33.5902Z" fill="#2A5962"/>
<path d="M55.6064 32.5493H56.8027V36.5806L58.3399 32.5613H59.7037V38.8295H58.5074V34.7863L56.9702 38.7996H55.6064V32.5493Z" fill="#2A5962"/>
<path d="M64.4467 38.9133C64.1298 38.921 63.8135 38.8828 63.5076 38.7997C63.283 38.7313 63.078 38.6103 62.9095 38.4468C62.7455 38.2807 62.6279 38.0744 62.5685 37.8487C62.4922 37.564 62.456 37.2701 62.4609 36.9754V36.8977H63.7229V36.9575C63.7233 37.0916 63.7333 37.2255 63.7529 37.3582C63.768 37.4782 63.8066 37.5941 63.8665 37.6992C63.9253 37.7938 64.0051 37.8737 64.0998 37.9324C64.2251 37.9976 64.3654 38.0286 64.5065 38.0221C64.6174 38.0314 64.7289 38.0152 64.8326 37.9748C64.9363 37.9344 65.0293 37.8708 65.1046 37.7889C65.2544 37.572 65.3242 37.3098 65.302 37.0472C65.3278 36.7769 65.2533 36.5065 65.0927 36.2876C64.999 36.206 64.8898 36.1442 64.7715 36.1062C64.6533 36.0681 64.5285 36.0546 64.4048 36.0663H64.0041V35.0854H64.2373C64.3699 35.0992 64.5039 35.0862 64.6313 35.0472C64.7587 35.0081 64.877 34.9438 64.979 34.8581C65.1426 34.645 65.2195 34.3779 65.1944 34.1105C65.2072 34.0042 65.1984 33.8965 65.1686 33.7937C65.1388 33.691 65.0886 33.5953 65.0209 33.5124C64.9559 33.4524 64.8796 33.4061 64.7963 33.3763C64.7131 33.3465 64.6247 33.3338 64.5364 33.3389C64.3644 33.3341 64.1945 33.3776 64.0459 33.4645C63.9771 33.5109 63.9195 33.572 63.8771 33.6434C63.8347 33.7147 63.8086 33.7946 63.8007 33.8772C63.8007 33.943 63.8007 33.9968 63.8007 34.0447V34.2361H62.5626V34.1882C62.5442 33.9426 62.5808 33.6959 62.6698 33.4662C62.7588 33.2365 62.8979 33.0296 63.077 32.8604C63.507 32.5348 64.0401 32.3755 64.5783 32.4118C65.082 32.3772 65.5808 32.5306 65.9779 32.8425C66.143 32.9933 66.2725 33.1787 66.3573 33.3856C66.4422 33.5924 66.4801 33.8155 66.4684 34.0387C66.4691 34.1942 66.449 34.3491 66.4086 34.4992C66.338 34.7957 66.1745 35.0618 65.942 35.2588C65.8224 35.3547 65.6837 35.424 65.5353 35.4622C65.8514 35.5205 66.1371 35.6877 66.3428 35.9347C66.5552 36.2181 66.6591 36.5682 66.6359 36.9216C66.6584 37.1937 66.6202 37.4674 66.524 37.7229C66.4278 37.9784 66.276 38.2093 66.0796 38.3989C65.6174 38.7659 65.0358 38.9491 64.4467 38.9133Z" fill="#2A5962"/>
<path d="M68.5079 32.5493H70.069L71.7319 38.8176H70.416L70.1229 37.4897H68.4541L68.167 38.8176H66.8511L68.5079 32.5493ZM69.9075 36.455L69.3094 33.6379L68.7113 36.455H69.9075Z" fill="#2A5962"/>
<path d="M73.8376 37.777H74.3401C74.4863 37.4968 74.6084 37.2046 74.7049 36.9037C74.7879 36.6175 74.8499 36.3257 74.8904 36.0305C74.9278 35.7227 74.9497 35.4133 74.9562 35.1034C74.9562 34.7804 74.9562 34.4395 74.9562 34.0686V32.5435H78.5868V37.777H79.185V40.0498H77.9887V38.8117H74.998V40.0498H73.8018L73.8376 37.777ZM77.3607 37.777V33.5902H76.1644V34.6069C76.1644 34.8582 76.1644 35.1213 76.1644 35.4024C76.1644 35.6836 76.1225 35.9587 76.0866 36.2398C76.0544 36.5174 76.0064 36.793 75.9431 37.0652C75.8888 37.3134 75.8106 37.5557 75.7098 37.7889L77.3607 37.777Z" fill="#2A5962"/>
<path d="M81.7447 38.9134C81.3524 38.932 80.9616 38.8518 80.6083 38.6801C80.3314 38.5311 80.1061 38.3017 79.9623 38.0222C79.8025 37.7047 79.705 37.3596 79.6752 37.0054C79.5874 36.1304 79.5874 35.2487 79.6752 34.3737C79.7044 34.0137 79.8018 33.6625 79.9623 33.339C80.1075 33.0573 80.3321 32.8244 80.6083 32.6691C80.9642 32.5073 81.3507 32.4236 81.7417 32.4236C82.1327 32.4236 82.5192 32.5073 82.8752 32.6691C83.1514 32.8244 83.376 33.0573 83.5212 33.339C83.6817 33.6625 83.7791 34.0137 83.8083 34.3737C83.8961 35.2487 83.8961 36.1304 83.8083 37.0054C83.7785 37.3596 83.681 37.7047 83.5212 38.0222C83.3773 38.3017 83.1521 38.5311 82.8752 38.6801C82.5238 38.8511 82.1351 38.9313 81.7447 38.9134ZM81.7447 38.0102C81.9039 38.018 82.0614 37.974 82.1933 37.8846C82.32 37.7787 82.4118 37.6369 82.4565 37.4779C82.528 37.2448 82.5701 37.0037 82.5821 36.7602C82.5821 36.4611 82.5821 36.1022 82.5821 35.6836C82.5821 35.2649 82.5821 34.906 82.5821 34.6129C82.5701 34.3694 82.528 34.1283 82.4565 33.8952C82.4151 33.7331 82.3229 33.5884 82.1933 33.4825C82.0571 33.4002 81.9009 33.3567 81.7417 33.3567C81.5826 33.3567 81.4264 33.4002 81.2901 33.4825C81.1606 33.5884 81.0684 33.7331 81.027 33.8952C80.9584 34.129 80.9163 34.3697 80.9014 34.6129C80.9014 34.906 80.8715 35.2589 80.8715 35.6836C80.8715 36.1082 80.8714 36.4611 80.9014 36.7602C80.9163 37.0034 80.9584 37.2441 81.027 37.4779C81.0717 37.6369 81.1634 37.7787 81.2901 37.8846C81.4241 37.9744 81.5836 38.0185 81.7447 38.0102Z" fill="#2A5962"/>
<path d="M86.5958 38.9133C86.2034 38.932 85.8126 38.8518 85.4593 38.6801C85.1825 38.5311 84.9572 38.3017 84.8134 38.0221C84.6564 37.7036 84.559 37.359 84.5263 37.0054C84.4385 36.1303 84.4385 35.2487 84.5263 34.3736C84.5587 34.0142 84.656 33.6637 84.8134 33.3389C84.9586 33.0573 85.1832 32.8244 85.4593 32.669C85.8105 32.4902 86.2021 32.4056 86.5958 32.4238C86.9636 32.4076 87.3296 32.4837 87.6605 32.6451C87.9061 32.7737 88.1126 32.9658 88.2586 33.2014C88.3853 33.4266 88.4665 33.6745 88.4979 33.9311C88.5276 34.1752 88.5435 34.4208 88.5457 34.6667H87.2837C87.305 34.3259 87.2498 33.9846 87.1222 33.6679C87.0653 33.5619 86.9778 33.4756 86.8711 33.4201C86.7644 33.3646 86.6434 33.3426 86.524 33.3569C86.3817 33.3504 86.2417 33.3949 86.1293 33.4825C86.013 33.5954 85.9302 33.7382 85.89 33.8952C85.8212 34.1391 85.7791 34.3898 85.7644 34.6428C85.7405 34.9498 85.7285 35.3266 85.7285 35.7732C85.7285 36.2457 85.7285 36.6285 85.7764 36.9216C85.7975 37.1543 85.8477 37.3833 85.9259 37.6035C85.9732 37.7368 86.0637 37.8505 86.1831 37.9264C86.2921 37.9829 86.4133 38.0117 86.536 38.0102C86.6446 38.0118 86.7524 37.9914 86.853 37.9504C86.9586 37.9052 87.0453 37.8249 87.0983 37.7231C87.1822 37.5727 87.2389 37.4087 87.2657 37.2386C87.3143 36.9683 87.3363 36.6938 87.3315 36.4192H88.5936C88.5934 36.7437 88.5674 37.0677 88.5158 37.3881C88.4703 37.6688 88.3686 37.9373 88.2168 38.1777C88.0713 38.4092 87.8642 38.5956 87.6186 38.716C87.298 38.8613 86.9475 38.9289 86.5958 38.9133Z" fill="#2A5962"/>
<path d="M90.2565 33.5902H88.8867V32.5554H92.8883V33.5902H91.5185V38.8236H90.2565V33.5902Z" fill="#2A5962"/>
<path d="M93.4326 32.5493H94.6289V36.5806L96.1601 32.5613H97.5239V38.8295H96.3276V34.7863L94.7964 38.7996H93.4326V32.5493Z" fill="#2A5962"/>
<path d="M99.6232 35.199L98.0501 32.5493H99.36L100.843 35.1212V32.5493H102.04V35.1212L103.523 32.5493H104.833L103.278 35.199L105.072 38.8176H103.702L102.548 36.2995L102.07 37.077V38.8176H100.873V37.077L100.395 36.2995L99.2403 38.8176H97.8706L99.6232 35.199Z" fill="#2A5962"/>
<path d="M105.371 32.5493H108.876V33.59H106.633V35.0674H108.745V36.1021H106.633V37.7768H108.96V38.8116H105.371V32.5493Z" fill="#2A5962"/>
<path d="M109.594 32.5493H110.856V34.9418H112.334V32.5493H113.596V38.8176H112.334V36.0363H110.856V38.8176H109.594V32.5493Z" fill="#2A5962"/>
<path d="M114.475 32.5493H115.671V36.5806L117.202 32.5613H118.566V38.8295H117.37V34.7863L115.838 38.8176H114.475V32.5493Z" fill="#2A5962"/>
<path d="M120.355 36.2516C120.031 36.1447 119.752 35.9346 119.559 35.6535C119.347 35.3048 119.245 34.9005 119.266 34.4931C119.261 34.1845 119.316 33.8778 119.427 33.59C119.51 33.3608 119.648 33.1555 119.828 32.9919C120.009 32.8301 120.223 32.7115 120.456 32.645C120.721 32.5704 120.995 32.5341 121.27 32.5373H123.333V38.8055H122.077V36.4131H121.623L120.426 38.8055H119.033L120.355 36.2516ZM122.071 35.474V33.4823H121.569C121.293 33.4575 121.018 33.5364 120.797 33.7036C120.641 33.9329 120.558 34.2038 120.558 34.4812C120.558 34.7585 120.641 35.0294 120.797 35.2587C121.007 35.4199 121.269 35.4967 121.533 35.474H122.071Z" fill="#2A5962"/>
<path d="M144.525 16.8667L142.521 18.8764L149.645 25.9999L142.521 33.1234L144.525 35.1331L153.665 25.9999L144.525 16.8667Z" fill="#2A5962"/>
</g>
<defs>
<clipPath id="clip0_1_2400">
<rect width="172" height="52" fill="white" transform="translate(0.5)"/>
</clipPath>
</defs>
</svg>
