<svg width="30" height="30" viewBox="0 0 30 30" fill="none" xmlns="http://www.w3.org/2000/svg">
<path d="M14.5848 0C6.44444 0 0 6.44444 0 14.5848C0 22.5556 6.44444 29.1696 14.5848 29.1696C22.5556 29.1696 29.1696 22.7251 29.1696 14.5848C29 6.44444 22.5556 0 14.5848 0Z" fill="#F7EEDC"/>
<path d="M14.5848 3.90057C20.3509 3.90057 25.0994 8.64911 25.0994 14.4152C25.0994 20.1813 20.3509 24.9298 14.5848 24.9298C8.81874 24.9298 4.0702 20.1813 4.0702 14.4152C3.90061 8.64911 8.64915 3.90057 14.5848 3.90057Z" fill="#6B7C43"/>
<path d="M13.3976 16.6199L10.0058 13.2281C8.81868 12.0409 7.29236 12.3801 6.10522 13.5673L13.5672 21.0292L26.4561 8.14035C25.269 6.95322 23.7427 6.44444 22.5555 7.63158L13.3976 16.6199Z" fill="#F7EEDC"/>
</svg>
