<svg width="29" height="29" viewBox="0 0 29 29" fill="none" xmlns="http://www.w3.org/2000/svg">
<circle cx="14.5" cy="14.5" r="14.5" fill="#F7EEDC"/>
<path d="M14.4565 25.6538C20.5828 25.6538 25.6539 20.6699 25.6539 14.5436C25.6539 8.41722 20.5828 3.34614 14.4565 3.34614C8.33011 3.34615 3.34617 8.41722 3.34617 14.5436C3.34617 20.6699 8.33011 25.6538 14.4565 25.6538ZM13.1494 8.57451C13.1494 7.85387 13.7362 7.26742 14.4565 7.26742C15.1771 7.26742 15.7635 7.85387 15.7635 8.57451L15.7635 15.1971C15.7635 15.9178 15.1771 16.5042 14.4565 16.5042C13.7362 16.5042 13.1494 15.9178 13.1494 15.1971L13.1494 8.57451ZM14.4565 19.1184C15.1771 19.1184 15.7635 19.7048 15.7635 20.4255C15.7635 21.1461 15.1771 21.7326 14.4565 21.7326C13.7362 21.7326 13.1494 21.1461 13.1494 20.4255C13.1494 19.7048 13.7362 19.1184 14.4565 19.1184Z" fill="#A04830"/>
</svg>
